{
copyright = "Copyright (c) 2015, Cadson Demak (info@cadsondemak.com)";
customParameters = (
{
name = vendorID;
value = CDK;
},
{
name = description;
value = "Copyright (c) 2015, Cadson Demak (info@cadsondemak.com)";
},
{
name = license;

glyphs = (
{
glyphname = A;
lastChange = "2015-11-30 00:21:35 +0000";
layers = (
{
layerId = "EA8340D9-3B60-45BA-AE27-149F2EF80A01";
name = "Light Italic";
paths = (
{
closed = 1;
nodes = (
"83 0 LINE",
"196 187 LINE",
"518 187 LINE",
"554 0 LINE",
"631 0 LINE",
"500 699 LINE",
"427 699 LINE",
"0 0 LINE"
);
},
{
closed = 1;
nodes = (
"447 609 LINE",
"510 253 LINE",
"233 253 LINE"
);
}
);
width = 731;
}
);
leftKerningGroup = A;
note = A;
rightKerningGroup = A;
unicode = 0041;
},
{
glyphname = Aacute;
lastChange = "2015-11-30 00:21:36 +0000";
layers = (
{
layerId = "EA8340D9-3B60-45BA-AE27-149F2EF80A01";
name = "Light Italic";
paths = (
{
closed = 1;
nodes = (
"83 0 LINE",
"196 187 LINE",
"518 187 LINE",
"554 0 LINE",
"631 0 LINE",
"500 699 LINE",
"427 699 LINE",
"0 0 LINE"
);
},
{
closed = 1;
nodes = (
"447 609 LINE",
"510 253 LINE",
"233 253 LINE"
);
},
{
closed = 1;
nodes = (
"513 742 LINE",
"629 912 LINE",
"548 912 LINE",
"444 742 LINE"
);
}
);
width = 731;
}
);
leftKerningGroup = A;
note = Aacute;
rightKerningGroup = A;
unicode = 00C1;
},
{
glyphname = Abreve;
lastChange = "2015-11-30 00:21:36 +0000";
layers = (
{
layerId = "EA8340D9-3B60-45BA-AE27-149F2EF80A01";
name = "Light Italic";
paths = (
{
closed = 1;
nodes = (
"83 0 LINE",
"196 187 LINE",
"518 187 LINE",
"554 0 LINE",
"631 0 LINE",
"500 699 LINE",
"427 699 LINE",
"0 0 LINE"
);
},
{
closed = 1;
nodes = (
"447 609 LINE",
"510 253 LINE",
"233 253 LINE"
);
},
{
closed = 1;
nodes = (
"558 742 OFFCURVE",
"623 797 OFFCURVE",
"639 872 CURVE",
"577 872 LINE",
"568 826 OFFCURVE",
"531 796 OFFCURVE",
"481 796 CURVE SMOOTH",
"431 796 OFFCURVE",
"408 826 OFFCURVE",
"417 872 CURVE",
"360 872 LINE",
"345 797 OFFCURVE",
"387 742 OFFCURVE",
"473 742 CURVE SMOOTH"
);
}
);
width = 731;
}
);
leftKerningGroup = A;
note = Abreve;
rightKerningGroup = A;
unicode = 0102;
},
{
glyphname = Abreveacute;
lastChange = "2015-11-30 00:21:35 +0000";
layers = (
{
layerId = "EA8340D9-3B60-45BA-AE27-149F2EF80A01";
name = "Light Italic";
paths = (
{
closed = 1;
nodes = (
"83 0 LINE",
"196 187 LINE",
"518 187 LINE",
"554 0 LINE",
"631 0 LINE",
"500 699 LINE",
"427 699 LINE",
"0 0 LINE"
);
},
{
closed = 1;
nodes = (
"447 609 LINE",
"510 253 LINE",
"233 253 LINE"
);
},
{
closed = 1;
nodes = (
"556 742 OFFCURVE",
"621 796 OFFCURVE",
"636 870 CURVE",
"579 870 LINE",
"569 824 OFFCURVE",
"534 795 OFFCURVE",
"484 795 CURVE SMOOTH",
"435 795 OFFCURVE",
"411 824 OFFCURVE",
"421 870 CURVE",
"363 870 LINE",
"347 796 OFFCURVE",
"388 742 OFFCURVE",
"472 742 CURVE SMOOTH"
);
},
{
closed = 1;
nodes = (
"516 855 LINE",
"605 978 LINE",
"541 978 LINE",
"462 855 LINE"
);
}
);
width = 731;
}
);
leftKerningGroup = A;
note = Abreveacute;
rightKerningGroup = A;
unicode = 1EAE;
},
{
glyphname = Abrevedotbelow;
lastChange = "2015-11-30 00:21:34 +0000";
layers = (
{
layerId = "EA8340D9-3B60-45BA-AE27-149F2EF80A01";
name = "Light Italic";
paths = (
{
closed = 1;
nodes = (
"83 0 LINE",
"196 187 LINE",
"518 187 LINE",
"554 0 LINE",
"631 0 LINE",
"500 699 LINE",
"427 699 LINE",
"0 0 LINE"
);
},
{
closed = 1;
nodes = (
"310 -152 OFFCURVE",
"337 -130 OFFCURVE",
"343 -103 CURVE",
"348 -76 OFFCURVE",
"330 -54 OFFCURVE",
"305 -54 CURVE SMOOTH",
"278 -54 OFFCURVE",
"250 -76 OFFCURVE",
"245 -103 CURVE",
"239 -130 OFFCURVE",
"257 -152 OFFCURVE",
"284 -152 CURVE SMOOTH"
);
},
{
closed = 1;
nodes = (
"447 609 LINE",
"510 253 LINE",
"233 253 LINE"
);
},
{
closed = 1;
nodes = (
"558 742 OFFCURVE",
"623 797 OFFCURVE",
"639 872 CURVE",
"577 872 LINE",
"568 826 OFFCURVE",
"531 796 OFFCURVE",
"481 796 CURVE SMOOTH",
"431 796 OFFCURVE",
"408 826 OFFCURVE",
"417 872 CURVE",
"360 872 LINE",
"345 797 OFFCURVE",
"387 742 OFFCURVE",
"473 742 CURVE SMOOTH"
);
}
);
width = 731;
}
);
leftKerningGroup = A;
note = Abrevedotbelow;
rightKerningGroup = A;
unicode = 1EB6;
},
{
glyphname = Abrevegrave;
lastChange = "2015-11-30 00:21:37 +0000";
layers = (
{
layerId = "EA8340D9-3B60-45BA-AE27-149F2EF80A01";
name = "Light Italic";
paths = (
{
closed = 1;
nodes = (
"83 0 LINE",
"196 187 LINE",
"518 187 LINE",
"554 0 LINE",
"631 0 LINE",
"500 699 LINE",
"427 699 LINE",
"0 0 LINE"
);
},
{
closed = 1;
nodes = (
"447 609 LINE",
"510 253 LINE",
"233 253 LINE"
);
},
{
closed = 1;
nodes = (
"556 742 OFFCURVE",
"621 796 OFFCURVE",
"636 870 CURVE",
"579 870 LINE",
"569 824 OFFCURVE",
"534 795 OFFCURVE",
"484 795 CURVE SMOOTH",
"435 795 OFFCURVE",
"411 824 OFFCURVE",
"421 870 CURVE",
"363 870 LINE",
"347 796 OFFCURVE",
"388 742 OFFCURVE",
"472 742 CURVE SMOOTH"
);
},
{
closed = 1;
nodes = (
"533 855 LINE",
"506 978 LINE",
"441 978 LINE",
"479 855 LINE"
);
}
);
width = 731;
}
);
leftKerningGroup = A;
note = Abrevegrave;
rightKerningGroup = A;
unicode = 1EB0;
},
{
glyphname = Abrevehookabove;
lastChange = "2015-11-30 00:21:37 +0000";
layers = (
{
layerId = "EA8340D9-3B60-45BA-AE27-149F2EF80A01";
name = "Light Italic";
paths = (
{
closed = 1;
nodes = (
"83 0 LINE",
"196 187 LINE",
"518 187 LINE",
"554 0 LINE",
"631 0 LINE",
"500 699 LINE",
"427 699 LINE",
"0 0 LINE"
);
},
{
closed = 1;
nodes = (
"447 609 LINE",
"510 253 LINE",
"233 253 LINE"
);
},
{
closed = 1;
nodes = (
"556 742 OFFCURVE",
"621 796 OFFCURVE",
"636 870 CURVE",
"580 870 LINE",
"570 824 OFFCURVE",
"534 794 OFFCURVE",
"484 794 CURVE SMOOTH",
"434 794 OFFCURVE",
"410 824 OFFCURVE",
"420 870 CURVE",
"363 870 LINE",
"347 796 OFFCURVE",
"388 742 OFFCURVE",
"472 742 CURVE SMOOTH"
);
},
{
closed = 1;
nodes = (
"516 842 LINE",
"521 867 LINE",
"565 873 OFFCURVE",
"595 900 OFFCURVE",
"602 932 CURVE SMOOTH",
"610 972 OFFCURVE",
"587 998 OFFCURVE",
"532 998 CURVE SMOOTH",
"511 998 OFFCURVE",
"485 994 OFFCURVE",
"470 989 CURVE",
"462 953 LINE",
"473 958 OFFCURVE",
"493 961 OFFCURVE",
"509 961 CURVE SMOOTH",
"538 961 OFFCURVE",
"551 950 OFFCURVE",
"546 928 CURVE SMOOTH",
"541 904 OFFCURVE",
"519 892 OFFCURVE",
"476 892 CURVE",
"466 842 LINE"
);
}
);
width = 731;
}
);
leftKerningGroup = A;
note = Abrevehookabove;
rightKerningGroup = A;
unicode = 1EB2;
},
{
glyphname = Abrevetilde;
lastChange = "2015-11-30 00:21:34 +0000";
layers = (
{
layerId = "EA8340D9-3B60-45BA-AE27-149F2EF80A01";
name = "Light Italic";
paths = (
{
closed = 1;
nodes = (
"83 0 LINE",
"196 187 LINE",
"518 187 LINE",
"554 0 LINE",
"631 0 LINE",
"500 699 LINE",
"427 699 LINE",
"0 0 LINE"
);
},
{
closed = 1;
nodes = (
"447 609 LINE",
"510 253 LINE",
"233 253 LINE"
);
},
{
closed = 1;
nodes = (
"562 742 OFFCURVE",
"627 796 OFFCURVE",
"642 870 CURVE",
"586 870 LINE",
"576 824 OFFCURVE",
"540 794 OFFCURVE",
"490 794 CURVE SMOOTH",
"440 794 OFFCURVE",
"416 824 OFFCURVE",
"426 870 CURVE",
"369 870 LINE",
"353 796 OFFCURVE",
"394 742 OFFCURVE",
"478 742 CURVE SMOOTH"
);
},
{
closed = 1;
nodes = (
"375 922 OFFCURVE",
"404 932 OFFCURVE",
"434 932 CURVE SMOOTH",
"490 932 OFFCURVE",
"520 889 OFFCURVE",
"584 889 CURVE SMOOTH",
"619 889 OFFCURVE",
"649 897 OFFCURVE",
"673 925 CURVE",
"686 986 LINE",
"655 951 OFFCURVE",
"626 940 OFFCURVE",
"595 940 CURVE SMOOTH",
"538 940 OFFCURVE",
"505 984 OFFCURVE",
"445 984 CURVE SMOOTH",
"411 984 OFFCURVE",
"379 975 OFFCURVE",
"354 947 CURVE",
"341 886 LINE"
);
}
);
width = 731;
}
);
leftKerningGroup = A;
note = Abrevetilde;
rightKerningGroup = A;
unicode = 1EB4;
},
{
glyphname = Acaron;
lastChange = "2015-11-30 00:21:34 +0000";
layers = (
{
layerId = "EA8340D9-3B60-45BA-AE27-149F2EF80A01";
name = "Light Italic";
paths = (
{
closed = 1;
nodes = (
"83 0 LINE",
"196 187 LINE",
"518 187 LINE",
"554 0 LINE",
"631 0 LINE",
"500 699 LINE",
"427 699 LINE",
"0 0 LINE"
);
},
{
closed = 1;
nodes = (
"447 609 LINE",
"510 253 LINE",
"233 253 LINE"
);
},
{
closed = 1;
nodes = (
"505 742 LINE",
"677 903 LINE",
"596 903 LINE",
"479 789 LINE",
"412 903 LINE",
"337 903 LINE",
"438 742 LINE"
);
}
);
width = 731;
}
);
leftKerningGroup = A;
note = Acaron;
rightKerningGroup = A;
unicode = 01CD;
},
{
glyphname = Acircumflex;
lastChange = "2015-11-30 00:21:35 +0000";
layers = (
{
layerId = "EA8340D9-3B60-45BA-AE27-149F2EF80A01";
name = "Light Italic";
paths = (
{
closed = 1;
nodes = (
"83 0 LINE",
"196 187 LINE",
"518 187 LINE",
"554 0 LINE",
"631 0 LINE",
"500 699 LINE",
"427 699 LINE",
"0 0 LINE"
);
},
{
closed = 1;
nodes = (
"447 609 LINE",
"510 253 LINE",
"233 253 LINE"
);
},
{
closed = 1;
nodes = (
"384 742 LINE",
"500 856 LINE",
"568 742 LINE",
"643 742 LINE",
"540 903 LINE",
"473 903 LINE",
"303 742 LINE"
);
}
);
width = 731;
}
);
leftKerningGroup = A;
note = Acircumflex;
rightKerningGroup = A;
unicode = 00C2;
},
{
glyphname = Acircumflexacute;
lastChange = "2015-11-30 00:21:36 +0000";
layers = (
{
layerId = "EA8340D9-3B60-45BA-AE27-149F2EF80A01";
name = "Light Italic";
paths = (
{
closed = 1;
nodes = (
"83 0 LINE",
"196 187 LINE",
"518 187 LINE",
"554 0 LINE",
"631 0 LINE",
"500 699 LINE",
"427 699 LINE",
"0 0 LINE"
);
},
{
closed = 1;
nodes = (
"447 609 LINE",
"510 253 LINE",
"233 253 LINE"
);
},
{
closed = 1;
nodes = (
"376 742 LINE",
"489 837 LINE",
"560 742 LINE",
"637 742 LINE",
"531 880 LINE",
"464 880 LINE",
"297 742 LINE"
);
},
{
closed = 1;
nodes = (
"630 845 LINE",
"736 965 LINE",
"672 965 LINE",
"576 845 LINE"
);
}
);
width = 731;
}
);
leftKerningGroup = A;
note = Acircumflexacute;
rightKerningGroup = A;
unicode = 1EA4;
},
{
glyphname = Acircumflexdotbelow;
lastChange = "2015-11-30 00:21:34 +0000";
layers = (
{
layerId = "EA8340D9-3B60-45BA-AE27-149F2EF80A01";
name = "Light Italic";
paths = (
{
closed = 1;
nodes = (
"83 0 LINE",
"196 187 LINE",
"518 187 LINE",
"554 0 LINE",
"631 0 LINE",
"500 699 LINE",
"427 699 LINE",
"0 0 LINE"
);
},
{
closed = 1;
nodes = (
"310 -152 OFFCURVE",
"337 -130 OFFCURVE",
"343 -103 CURVE",
"348 -76 OFFCURVE",
"330 -54 OFFCURVE",
"305 -54 CURVE SMOOTH",
"278 -54 OFFCURVE",
"250 -76 OFFCURVE",
"245 -103 CURVE",
"239 -130 OFFCURVE",
"257 -152 OFFCURVE",
"284 -152 CURVE SMOOTH"
);
},
{
closed = 1;
nodes = (
"447 609 LINE",
"510 253 LINE",
"233 253 LINE"
);
},
{
closed = 1;
nodes = (
"384 742 LINE",
"500 856 LINE",
"568 742 LINE",
"643 742 LINE",
"540 903 LINE",
"473 903 LINE",
"303 742 LINE"
);
}
);
width = 731;
}
);
leftKerningGroup = A;
note = Acircumflexdotbelow;
rightKerningGroup = A;
unicode = 1EAC;
},
{
glyphname = Acircumflexgrave;
lastChange = "2015-11-30 00:21:34 +0000";
layers = (
{
layerId = "EA8340D9-3B60-45BA-AE27-149F2EF80A01";
name = "Light Italic";
paths = (
{
closed = 1;
nodes = (
"83 0 LINE",
"196 187 LINE",
"518 187 LINE",
"554 0 LINE",
"631 0 LINE",
"500 699 LINE",
"427 699 LINE",
"0 0 LINE"
);
},
{
closed = 1;
nodes = (
"447 609 LINE",
"510 253 LINE",
"233 253 LINE"
);
},
{
closed = 1;
nodes = (
"407 845 LINE",
"362 965 LINE",
"298 965 LINE",
"353 845 LINE"
);
},
{
closed = 1;
nodes = (
"379 742 LINE",
"492 837 LINE",
"563 742 LINE",
"641 742 LINE",
"535 880 LINE",
"468 880 LINE",
"301 742 LINE"
);
}
);
width = 731;
}
);
leftKerningGroup = A;
note = Acircumflexgrave;
rightKerningGroup = A;
unicode = 1EA6;
},
{
glyphname = Acircumflexhookabove;
lastChange = "2015-11-30 00:21:37 +0000";
layers = (
{
layerId = "EA8340D9-3B60-45BA-AE27-149F2EF80A01";
name = "Light Italic";
paths = (
{
closed = 1;
nodes = (
"83 0 LINE",
"196 187 LINE",
"518 187 LINE",
"554 0 LINE",
"631 0 LINE",
"500 699 LINE",
"427 699 LINE",
"0 0 LINE"
);
},
{
closed = 1;
nodes = (
"447 609 LINE",
"510 253 LINE",
"233 253 LINE"
);
},
{
closed = 1;
nodes = (
"381 742 LINE",
"494 837 LINE",
"565 742 LINE",
"643 742 LINE",
"537 880 LINE",
"470 880 LINE",
"303 742 LINE"
);
},
{
closed = 1;
nodes = (
"635 838 LINE",
"640 863 LINE",
"684 869 OFFCURVE",
"714 896 OFFCURVE",
"721 928 CURVE SMOOTH",
"729 968 OFFCURVE",
"706 994 OFFCURVE",
"651 994 CURVE SMOOTH",
"630 994 OFFCURVE",
"604 990 OFFCURVE",
"590 985 CURVE",
"582 949 LINE",
"593 954 OFFCURVE",
"612 957 OFFCURVE",
"628 957 CURVE SMOOTH",
"657 957 OFFCURVE",
"670 946 OFFCURVE",
"665 924 CURVE SMOOTH",
"660 900 OFFCURVE",
"638 888 OFFCURVE",
"596 888 CURVE",
"586 838 LINE"
);
}
);
width = 731;
}
);
leftKerningGroup = A;
note = Acircumflexhookabove;
rightKerningGroup = A;
unicode = 1EA8;
},
{
glyphname = Acircumflextilde;
lastChange = "2015-11-30 00:21:34 +0000";
layers = (
{
layerId = "EA8340D9-3B60-45BA-AE27-149F2EF80A01";
name = "Light Italic";
paths = (
{
closed = 1;
nodes = (
"83 0 LINE",
"196 187 LINE",
"518 187 LINE",
"554 0 LINE",
"631 0 LINE",
"500 699 LINE",
"427 699 LINE",
"0 0 LINE"
);
},
{
closed = 1;
nodes = (
"447 609 LINE",
"510 253 LINE",
"233 253 LINE"
);
},
{
closed = 1;
nodes = (
"380 742 LINE",
"493 837 LINE",
"564 742 LINE",
"642 742 LINE",
"536 880 LINE",
"469 880 LINE",
"302 742 LINE"
);
},
{
closed = 1;
nodes = (
"379 918 OFFCURVE",
"408 928 OFFCURVE",
"438 928 CURVE SMOOTH",
"494 928 OFFCURVE",
"524 885 OFFCURVE",
"588 885 CURVE SMOOTH",
"622 885 OFFCURVE",
"653 893 OFFCURVE",
"677 921 CURVE",
"690 982 LINE",
"659 947 OFFCURVE",
"629 936 OFFCURVE",
"599 936 CURVE SMOOTH",
"542 936 OFFCURVE",
"509 980 OFFCURVE",
"449 980 CURVE SMOOTH",
"415 980 OFFCURVE",
"383 971 OFFCURVE",
"358 943 CURVE",
"345 882 LINE"
);
}
);
width = 731;
}
);
leftKerningGroup = A;
note = Acircumflextilde;
rightKerningGroup = A;
unicode = 1EAA;
},
{
glyphname = Adieresis;
lastChange = "2015-11-30 00:21:34 +0000";
layers = (
{
layerId = "EA8340D9-3B60-45BA-AE27-149F2EF80A01";
name = "Light Italic";
paths = (
{
closed = 1;
nodes = (
"83 0 LINE",
"196 187 LINE",
"518 187 LINE",
"554 0 LINE",
"631 0 LINE",
"500 699 LINE",
"427 699 LINE",
"0 0 LINE"
);
},
{
closed = 1;
nodes = (
"447 609 LINE",
"510 253 LINE",
"233 253 LINE"
);
},
{
closed = 1;
nodes = (
"390 742 OFFCURVE",
"417 764 OFFCURVE",
"423 791 CURVE SMOOTH",
"429 818 OFFCURVE",
"410 840 OFFCURVE",
"384 840 CURVE SMOOTH",
"357 840 OFFCURVE",
"331 818 OFFCURVE",
"325 791 CURVE SMOOTH",
"319 764 OFFCURVE",
"338 742 OFFCURVE",
"364 742 CURVE SMOOTH"
);
},
{
closed = 1;
nodes = (
"607 742 OFFCURVE",
"634 764 OFFCURVE",
"640 791 CURVE SMOOTH",
"646 818 OFFCURVE",
"627 840 OFFCURVE",
"601 840 CURVE SMOOTH",
"574 840 OFFCURVE",
"547 818 OFFCURVE",
"541 791 CURVE SMOOTH",
"535 764 OFFCURVE",
"554 742 OFFCURVE",
"581 742 CURVE SMOOTH"
);
}
);
width = 731;
}
);
leftKerningGroup = A;
note = Adieresis;
rightKerningGroup = A;
unicode = 00C4;
},
{
glyphname = Adotbelow;
lastChange = "2015-11-30 00:21:34 +0000";
layers = (
{
layerId = "EA8340D9-3B60-45BA-AE27-149F2EF80A01";
name = "Light Italic";
paths = (
{
closed = 1;
nodes = (
"83 0 LINE",
"196 187 LINE",
"518 187 LINE",
"554 0 LINE",
"631 0 LINE",
"500 699 LINE",
"427 699 LINE",
"0 0 LINE"
);
},
{
closed = 1;
nodes = (
"310 -152 OFFCURVE",
"337 -130 OFFCURVE",
"343 -103 CURVE",
"348 -76 OFFCURVE",
"330 -54 OFFCURVE",
"305 -54 CURVE SMOOTH",
"278 -54 OFFCURVE",
"250 -76 OFFCURVE",
"245 -103 CURVE",
"239 -130 OFFCURVE",
"257 -152 OFFCURVE",
"284 -152 CURVE SMOOTH"
);
},
{
closed = 1;
nodes = (
"447 609 LINE",
"510 253 LINE",
"233 253 LINE"
);
}
);
width = 731;
}
);
leftKerningGroup = A;
note = Adotbelow;
rightKerningGroup = A;
unicode = 1EA0;
},
{
glyphname = Agrave;
lastChange = "2015-11-30 00:21:35 +0000";
layers = (
{
layerId = "EA8340D9-3B60-45BA-AE27-149F2EF80A01";
name = "Light Italic";
paths = (
{
closed = 1;
nodes = (
"83 0 LINE",
"196 187 LINE",
"518 187 LINE",
"554 0 LINE",
"631 0 LINE",
"500 699 LINE",
"427 699 LINE",
"0 0 LINE"
);
},
{
closed = 1;
nodes = (
"447 609 LINE",
"510 253 LINE",
"233 253 LINE"
);
},
{
closed = 1;
nodes = (
"504 742 LINE",
"472 912 LINE",
"391 912 LINE",
"435 742 LINE"
);
}
);
width = 731;
}
);
leftKerningGroup = A;
note = Agrave;
rightKerningGroup = A;
unicode = 00C0;
},
{
glyphname = Ahookabove;
lastChange = "2015-11-30 00:21:37 +0000";
layers = (
{
layerId = "EA8340D9-3B60-45BA-AE27-149F2EF80A01";
name = "Light Italic";
paths = (
{
closed = 1;
nodes = (
"83 0 LINE",
"196 187 LINE",
"518 187 LINE",
"554 0 LINE",
"631 0 LINE",
"500 699 LINE",
"427 699 LINE",
"0 0 LINE"
);
},
{
closed = 1;
nodes = (
"447 609 LINE",
"510 253 LINE",
"233 253 LINE"
);
},
{
closed = 1;
nodes = (
"506 742 LINE",
"513 777 LINE",
"577 783 OFFCURVE",
"617 823 OFFCURVE",
"627 871 CURVE SMOOTH",
"639 926 OFFCURVE",
"599 964 OFFCURVE",
"525 964 CURVE SMOOTH",
"497 964 OFFCURVE",
"465 959 OFFCURVE",
"447 953 CURVE",
"437 908 LINE",
"450 914 OFFCURVE",
"482 918 OFFCURVE",
"499 918 CURVE SMOOTH",
"546 918 OFFCURVE",
"566 903 OFFCURVE",
"559 868 CURVE SMOOTH",
"550 827 OFFCURVE",
"517 810 OFFCURVE",
"453 810 CURVE",
"439 742 LINE"
);
}
);
width = 731;
}
);
leftKerningGroup = A;
note = Ahookabove;
rightKerningGroup = A;
unicode = 1EA2;
},
{
glyphname = Amacron;
lastChange = "2015-11-30 00:21:35 +0000";
layers = (
{
layerId = "EA8340D9-3B60-45BA-AE27-149F2EF80A01";
name = "Light Italic";
paths = (
{
closed = 1;
nodes = (
"83 0 LINE",
"196 187 LINE",
"518 187 LINE",
"554 0 LINE",
"631 0 LINE",
"500 699 LINE",
"427 699 LINE",
"0 0 LINE"
);
},
{
closed = 1;
nodes = (
"447 609 LINE",
"510 253 LINE",
"233 253 LINE"
);
},
{
closed = 1;
nodes = (
"627 762 LINE",
"638 816 LINE",
"338 816 LINE",
"327 762 LINE"
);
}
);
width = 731;
}
);
leftKerningGroup = A;
note = Amacron;
rightKerningGroup = A;
unicode = 0100;
},
{
glyphname = Aogonek;
lastChange = "2015-11-30 00:21:36 +0000";
layers = (
{
layerId = "EA8340D9-3B60-45BA-AE27-149F2EF80A01";
name = "Light Italic";
paths = (
{
closed = 1;
nodes = (
"562 -210 OFFCURVE",
"587 -206 OFFCURVE",
"604 -199 CURVE",
"615 -149 LINE",
"601 -155 OFFCURVE",
"584 -159 OFFCURVE",
"566 -159 CURVE SMOOTH",
"534 -159 OFFCURVE",
"522 -145 OFFCURVE",
"529 -112 CURVE SMOOTH",
"538 -69 OFFCURVE",
"573 -34 OFFCURVE",
"631 0 CURVE",
"500 699 LINE",
"427 699 LINE",
"0 0 LINE",
"83 0 LINE",
"196 187 LINE",
"518 187 LINE",
"554 0 LINE",
"512 -27 OFFCURVE",
"469 -71 OFFCURVE",
"458 -123 CURVE SMOOTH",
"446 -182 OFFCURVE",
"484 -210 OFFCURVE",
"537 -210 CURVE SMOOTH"
);
},
{
closed = 1;
nodes = (
"447 609 LINE",
"510 253 LINE",
"233 253 LINE"
);
}
);
width = 731;
}
);
leftKerningGroup = A;
note = Aogonek;
rightKerningGroup = A;
unicode = 0104;
},
{
glyphname = Aring;
lastChange = "2015-11-30 00:21:37 +0000";
layers = (
{
layerId = "EA8340D9-3B60-45BA-AE27-149F2EF80A01";
name = "Light Italic";
paths = (
{
closed = 1;
nodes = (
"83 0 LINE",
"196 187 LINE",
"518 187 LINE",
"554 0 LINE",
"631 0 LINE",
"506 663 LINE",
"545 681 OFFCURVE",
"575 717 OFFCURVE",
"584 760 CURVE SMOOTH",
"596 819 OFFCURVE",
"558 868 OFFCURVE",
"499 868 CURVE SMOOTH",
"434 868 OFFCURVE",
"380 819 OFFCURVE",
"368 760 CURVE SMOOTH",
"359 718 OFFCURVE",
"375 682 OFFCURVE",
"406 664 CURVE",
"0 0 LINE"
);
},
{
closed = 1;
nodes = (
"447 609 LINE",
"510 253 LINE",
"233 253 LINE"
);
},
{
closed = 1;
nodes = (
"424 702 OFFCURVE",
"412 729 OFFCURVE",
"419 760 CURVE SMOOTH",
"425 791 OFFCURVE",
"456 817 OFFCURVE",
"488 817 CURVE SMOOTH",
"529 817 OFFCURVE",
"539 791 OFFCURVE",
"533 760 CURVE SMOOTH",
"526 729 OFFCURVE",
"495 702 OFFCURVE",
"464 702 CURVE SMOOTH"
);
}
);
width = 731;
}
);
leftKerningGroup = A;
note = Aring;
rightKerningGroup = A;
unicode = 00C5;
},
{
glyphname = Aringacute;
lastChange = "2015-11-30 00:21:37 +0000";
layers = (
{
layerId = "EA8340D9-3B60-45BA-AE27-149F2EF80A01";
name = "Light Italic";
paths = (
{
closed = 1;
nodes = (
"83 0 LINE",
"196 187 LINE",
"518 187 LINE",
"554 0 LINE",
"631 0 LINE",
"506 663 LINE",
"545 681 OFFCURVE",
"575 717 OFFCURVE",
"584 760 CURVE SMOOTH",
"596 819 OFFCURVE",
"558 868 OFFCURVE",
"499 868 CURVE SMOOTH",
"434 868 OFFCURVE",
"380 819 OFFCURVE",
"368 760 CURVE SMOOTH",
"359 718 OFFCURVE",
"375 682 OFFCURVE",
"406 664 CURVE",
"0 0 LINE"
);
},
{
closed = 1;
nodes = (
"447 609 LINE",
"510 253 LINE",
"233 253 LINE"
);
},
{
closed = 1;
nodes = (
"424 702 OFFCURVE",
"412 729 OFFCURVE",
"419 760 CURVE SMOOTH",
"425 791 OFFCURVE",
"456 817 OFFCURVE",
"488 817 CURVE SMOOTH",
"529 817 OFFCURVE",
"539 791 OFFCURVE",
"533 760 CURVE SMOOTH",
"526 729 OFFCURVE",
"495 702 OFFCURVE",
"464 702 CURVE SMOOTH"
);
},
{
closed = 1;
nodes = (
"566 906 LINE",
"682 1042 LINE",
"601 1042 LINE",
"497 906 LINE"
);
}
);
width = 731;
}
);
leftKerningGroup = A;
note = Aringacute;
rightKerningGroup = A;
unicode = 01FA;
},
{
glyphname = Atilde;
lastChange = "2015-11-30 00:21:37 +0000";
layers = (
{
layerId = "EA8340D9-3B60-45BA-AE27-149F2EF80A01";
name = "Light Italic";
paths = (
{
closed = 1;
nodes = (
"83 0 LINE",
"196 187 LINE",
"518 187 LINE",
"554 0 LINE",
"631 0 LINE",
"500 699 LINE",
"427 699 LINE",
"0 0 LINE"
);
},
{
closed = 1;
nodes = (
"447 609 LINE",
"510 253 LINE",
"233 253 LINE"
);
},
{
closed = 1;
nodes = (
"325 783 OFFCURVE",
"359 795 OFFCURVE",
"394 795 CURVE SMOOTH",
"458 795 OFFCURVE",
"491 745 OFFCURVE",
"564 745 CURVE SMOOTH",
"604 745 OFFCURVE",
"640 755 OFFCURVE",
"667 787 CURVE",
"682 856 LINE",
"647 816 OFFCURVE",
"612 804 OFFCURVE",
"576 804 CURVE SMOOTH",
"511 804 OFFCURVE",
"474 854 OFFCURVE",
"406 854 CURVE SMOOTH",
"367 854 OFFCURVE",
"330 843 OFFCURVE",
"302 811 CURVE",
"287 742 LINE"
);
}
);
width = 731;
}
);
leftKerningGroup = A;
note = Atilde;
rightKerningGroup = A;
unicode = 00C3;
},
{
glyphname = AE;
lastChange = "2015-11-30 00:21:35 +0000";
layers = (
{
layerId = "EA8340D9-3B60-45BA-AE27-149F2EF80A01";
name = "Light Italic";
paths = (
{
closed = 1;
nodes = (
"80 0 LINE",
"214 187 LINE",
"453 187 LINE",
"414 0 LINE",
"820 0 LINE",
"834 66 LINE",
"506 66 LINE",
"559 317 LINE",
"795 317 LINE",
"809 383 LINE",
"573 383 LINE",
"626 633 LINE",
"954 633 LINE",
"968 699 LINE",
"504 699 LINE",
"0 0 LINE"
);
},
{
closed = 1;
nodes = (
"535 633 LINE",
"548 633 LINE",
"467 253 LINE",
"262 253 LINE"
);
}
);
width = 920;
}
);
leftKerningGroup = A;
note = AE;
rightKerningGroup = E;
unicode = 00C6;
},
{
glyphname = AEacute;
lastChange = "2015-11-30 00:21:34 +0000";
layers = (
{
layerId = "EA8340D9-3B60-45BA-AE27-149F2EF80A01";
name = "Light Italic";
paths = (
{
closed = 1;
nodes = (
"80 0 LINE",
"214 187 LINE",
"453 187 LINE",
"414 0 LINE",
"820 0 LINE",
"834 66 LINE",
"506 66 LINE",
"559 317 LINE",
"795 317 LINE",
"809 383 LINE",
"573 383 LINE",
"626 633 LINE",
"954 633 LINE",
"968 699 LINE",
"504 699 LINE",
"0 0 LINE"
);
},
{
closed = 1;
nodes = (
"535 633 LINE",
"548 633 LINE",
"467 253 LINE",
"262 253 LINE"
);
},
{
closed = 1;
nodes = (
"708 742 LINE",
"824 912 LINE",
"743 912 LINE",
"639 742 LINE"
);
}
);
width = 920;
}
);
leftKerningGroup = A;
note = AEacute;
rightKerningGroup = E;
unicode = 01FC;
},
{
glyphname = B;
lastChange = "2015-11-30 00:21:36 +0000";
layers = (
{
layerId = "EA8340D9-3B60-45BA-AE27-149F2EF80A01";
name = "Light Italic";
paths = (
{
closed = 1;
nodes = (
"347 0 LINE SMOOTH",
"466 0 OFFCURVE",
"557 73 OFFCURVE",
"582 195 CURVE SMOOTH",
"600 284 OFFCURVE",
"570 337 OFFCURVE",
"502 356 CURVE",
"560 380 OFFCURVE",
"609 437 OFFCURVE",
"625 512 CURVE SMOOTH",
"651 635 OFFCURVE",
"591 699 OFFCURVE",
"478 699 CURVE SMOOTH",
"168 699 LINE",
"20 0 LINE"
);
},
{
closed = 1;
nodes = (
"167 325 LINE",
"388 325 LINE SMOOTH",
"484 325 OFFCURVE",
"525 292 OFFCURVE",
"504 197 CURVE SMOOTH",
"484 99 OFFCURVE",
"416 66 OFFCURVE",
"340 66 CURVE SMOOTH",
"112 66 LINE"
);
},
{
closed = 1;
nodes = (
"232 633 LINE",
"450 633 LINE SMOOTH",
"540 633 OFFCURVE",
"566 599 OFFCURVE",
"547 510 CURVE SMOOTH",
"530 432 OFFCURVE",
"481 391 OFFCURVE",
"407 391 CURVE SMOOTH",
"181 391 LINE"
);
}
);
width = 641;
}
);
note = B;
unicode = 0042;
},
{
glyphname = C;
lastChange = "2015-11-30 00:21:37 +0000";
layers = (
{
layerId = "EA8340D9-3B60-45BA-AE27-149F2EF80A01";
name = "Light Italic";
paths = (
{
closed = 1;
nodes = (
"463 -15 OFFCURVE",
"553 7 OFFCURVE",
"629 64 CURVE",
"645 141 LINE",
"564 78 OFFCURVE",
"481 55 OFFCURVE",
"384 55 CURVE SMOOTH",
"202 55 OFFCURVE",
"112 160 OFFCURVE",
"152 349 CURVE SMOOTH",
"190 530 OFFCURVE",
"330 643 OFFCURVE",
"509 643 CURVE SMOOTH",
"606 643 OFFCURVE",
"676 618 OFFCURVE",
"726 562 CURVE",
"742 638 LINE",
"689 689 OFFCURVE",
"614 714 OFFCURVE",
"518 714 CURVE SMOOTH",
"299 714 OFFCURVE",
"122 575 OFFCURVE",
"74 349 CURVE SMOOTH",
"27 128 OFFCURVE",
"163 -15 OFFCURVE",
"363 -15 CURVE SMOOTH"
);
}
);
width = 716;
}
);
leftKerningGroup = C;
note = C;
rightKerningGroup = C;
unicode = 0043;
},
{
glyphname = Cacute;
lastChange = "2015-11-30 00:21:36 +0000";
layers = (
{
layerId = "EA8340D9-3B60-45BA-AE27-149F2EF80A01";
name = "Light Italic";
paths = (
{
closed = 1;
nodes = (
"463 -15 OFFCURVE",
"553 7 OFFCURVE",
"629 64 CURVE",
"645 141 LINE",
"564 78 OFFCURVE",
"481 55 OFFCURVE",
"384 55 CURVE SMOOTH",
"202 55 OFFCURVE",
"112 160 OFFCURVE",
"152 349 CURVE SMOOTH",
"190 530 OFFCURVE",
"330 643 OFFCURVE",
"509 643 CURVE SMOOTH",
"606 643 OFFCURVE",
"676 618 OFFCURVE",
"726 562 CURVE",
"742 638 LINE",
"689 689 OFFCURVE",
"614 714 OFFCURVE",
"518 714 CURVE SMOOTH",
"299 714 OFFCURVE",
"122 575 OFFCURVE",
"74 349 CURVE SMOOTH",
"27 128 OFFCURVE",
"163 -15 OFFCURVE",
"363 -15 CURVE SMOOTH"
);
},
{
closed = 1;
nodes = (
"554 742 LINE",
"670 912 LINE",
"589 912 LINE",
"485 742 LINE"
);
}
);
width = 716;
}
);
leftKerningGroup = C;
note = Cacute;
rightKerningGroup = C;
unicode = 0106;
},
{
glyphname = Ccaron;
lastChange = "2015-11-30 00:21:34 +0000";
layers = (
{
layerId = "EA8340D9-3B60-45BA-AE27-149F2EF80A01";
name = "Light Italic";
paths = (
{
closed = 1;
nodes = (
"463 -15 OFFCURVE",
"553 7 OFFCURVE",
"629 64 CURVE",
"645 141 LINE",
"564 78 OFFCURVE",
"481 55 OFFCURVE",
"384 55 CURVE SMOOTH",
"202 55 OFFCURVE",
"112 160 OFFCURVE",
"152 349 CURVE SMOOTH",
"190 530 OFFCURVE",
"330 643 OFFCURVE",
"509 643 CURVE SMOOTH",
"606 643 OFFCURVE",
"676 618 OFFCURVE",
"726 562 CURVE",
"742 638 LINE",
"689 689 OFFCURVE",
"614 714 OFFCURVE",
"518 714 CURVE SMOOTH",
"299 714 OFFCURVE",
"122 575 OFFCURVE",
"74 349 CURVE SMOOTH",
"27 128 OFFCURVE",
"163 -15 OFFCURVE",
"363 -15 CURVE SMOOTH"
);
},
{
closed = 1;
nodes = (
"557 742 LINE",
"729 903 LINE",
"648 903 LINE",
"531 789 LINE",
"464 903 LINE",
"389 903 LINE",
"490 742 LINE"
);
}
);
width = 716;
}
);
leftKerningGroup = C;
note = Ccaron;
rightKerningGroup = C;
unicode = 010C;
},
{
glyphname = Ccedilla;
lastChange = "2015-11-30 00:21:36 +0000";
layers = (
{
layerId = "EA8340D9-3B60-45BA-AE27-149F2EF80A01";
name = "Light Italic";
paths = (
{
closed = 1;
nodes = (
"394 -248 OFFCURVE",
"440 -206 OFFCURVE",
"451 -152 CURVE SMOOTH",
"460 -106 OFFCURVE",
"440 -68 OFFCURVE",
"379 -60 CURVE",
"407 -13 LINE",
"489 -7 OFFCURVE",
"564 15 OFFCURVE",
"629 64 CURVE",
"645 141 LINE",
"564 78 OFFCURVE",
"481 55 OFFCURVE",
"384 55 CURVE SMOOTH",
"202 55 OFFCURVE",
"112 160 OFFCURVE",
"152 349 CURVE SMOOTH",
"190 530 OFFCURVE",
"330 643 OFFCURVE",
"509 643 CURVE SMOOTH",
"606 643 OFFCURVE",
"676 618 OFFCURVE",
"726 562 CURVE",
"742 638 LINE",
"689 689 OFFCURVE",
"614 714 OFFCURVE",
"518 714 CURVE SMOOTH",
"299 714 OFFCURVE",
"122 575 OFFCURVE",
"74 349 CURVE SMOOTH",
"29 138 OFFCURVE",
"151 -1 OFFCURVE",
"336 -14 CURVE",
"290 -93 LINE",
"367 -93 OFFCURVE",
"387 -113 OFFCURVE",
"380 -150 CURVE SMOOTH",
"373 -186 OFFCURVE",
"345 -200 OFFCURVE",
"302 -200 CURVE SMOOTH",
"283 -200 OFFCURVE",
"259 -196 OFFCURVE",
"247 -190 CURVE",
"237 -238 LINE",
"251 -244 OFFCURVE",
"280 -248 OFFCURVE",
"308 -248 CURVE SMOOTH"
);
}
);
width = 716;
}
);
leftKerningGroup = C;
note = Ccedilla;
rightKerningGroup = C;
unicode = 00C7;
},
{
glyphname = Ccircumflex;
lastChange = "2015-11-30 00:21:35 +0000";
layers = (
{
layerId = "EA8340D9-3B60-45BA-AE27-149F2EF80A01";
name = "Light Italic";
paths = (
{
closed = 1;
nodes = (
"463 -15 OFFCURVE",
"553 7 OFFCURVE",
"629 64 CURVE",
"645 141 LINE",
"564 78 OFFCURVE",
"481 55 OFFCURVE",
"384 55 CURVE SMOOTH",
"202 55 OFFCURVE",
"112 160 OFFCURVE",
"152 349 CURVE SMOOTH",
"190 530 OFFCURVE",
"330 643 OFFCURVE",
"509 643 CURVE SMOOTH",
"606 643 OFFCURVE",
"676 618 OFFCURVE",
"726 562 CURVE",
"742 638 LINE",
"689 689 OFFCURVE",
"614 714 OFFCURVE",
"518 714 CURVE SMOOTH",
"299 714 OFFCURVE",
"122 575 OFFCURVE",
"74 349 CURVE SMOOTH",
"27 128 OFFCURVE",
"163 -15 OFFCURVE",
"363 -15 CURVE SMOOTH"
);
},
{
closed = 1;
nodes = (
"427 742 LINE",
"543 856 LINE",
"611 742 LINE",
"686 742 LINE",
"583 903 LINE",
"516 903 LINE",
"346 742 LINE"
);
}
);
width = 716;
}
);
leftKerningGroup = C;
note = Ccircumflex;
rightKerningGroup = C;
unicode = 0108;
},
{
glyphname = Cdotaccent;
lastChange = "2015-11-30 00:21:36 +0000";
layers = (
{
layerId = "EA8340D9-3B60-45BA-AE27-149F2EF80A01";
name = "Light Italic";
paths = (
{
closed = 1;
nodes = (
"463 -15 OFFCURVE",
"553 7 OFFCURVE",
"629 64 CURVE",
"645 141 LINE",
"564 78 OFFCURVE",
"481 55 OFFCURVE",
"384 55 CURVE SMOOTH",
"202 55 OFFCURVE",
"112 160 OFFCURVE",
"152 349 CURVE SMOOTH",
"190 530 OFFCURVE",
"330 643 OFFCURVE",
"509 643 CURVE SMOOTH",
"606 643 OFFCURVE",
"676 618 OFFCURVE",
"726 562 CURVE",
"742 638 LINE",
"689 689 OFFCURVE",
"614 714 OFFCURVE",
"518 714 CURVE SMOOTH",
"299 714 OFFCURVE",
"122 575 OFFCURVE",
"74 349 CURVE SMOOTH",
"27 128 OFFCURVE",
"163 -15 OFFCURVE",
"363 -15 CURVE SMOOTH"
);
},
{
closed = 1;
nodes = (
"546 742 OFFCURVE",
"573 764 OFFCURVE",
"579 791 CURVE SMOOTH",
"585 818 OFFCURVE",
"566 840 OFFCURVE",
"540 840 CURVE SMOOTH",
"513 840 OFFCURVE",
"486 818 OFFCURVE",
"480 791 CURVE SMOOTH",
"474 764 OFFCURVE",
"493 742 OFFCURVE",
"520 742 CURVE SMOOTH"
);
}
);
width = 716;
}
);
leftKerningGroup = C;
note = Cdotaccent;
rightKerningGroup = C;
unicode = 010A;
},
{
glyphname = D;
lastChange = "2015-11-30 00:21:34 +0000";
layers = (
{
layerId = "EA8340D9-3B60-45BA-AE27-149F2EF80A01";
name = "Light Italic";
paths = (
{
closed = 1;
nodes = (
"220 0 LINE SMOOTH",
"468 0 OFFCURVE",
"625 116 OFFCURVE",
"676 353 CURVE SMOOTH",
"721 566 OFFCURVE",
"611 699 OFFCURVE",
"384 699 CURVE SMOOTH",
"168 699 LINE",
"20 0 LINE"
);
},
{
closed = 1;
nodes = (
"232 633 LINE",
"369 633 LINE SMOOTH",
"574 633 OFFCURVE",
"634 525 OFFCURVE",
"598 353 CURVE SMOOTH",
"558 168 OFFCURVE",
"444 66 OFFCURVE",
"229 66 CURVE SMOOTH",
"112 66 LINE"
);
}
);
width = 701;
}
);
note = D;
rightKerningGroup = D;
unicode = 0044;
},
{
glyphname = Eth;
lastChange = "2015-11-30 00:21:36 +0000";
layers = (
{
layerId = "EA8340D9-3B60-45BA-AE27-149F2EF80A01";
name = "Light Italic";
paths = (
{
closed = 1;
nodes = (
"249 0 LINE SMOOTH",
"507 0 OFFCURVE",
"654 116 OFFCURVE",
"705 353 CURVE SMOOTH",
"750 566 OFFCURVE",
"633 699 OFFCURVE",
"414 699 CURVE SMOOTH",
"197 699 LINE",
"129 379 LINE",
"60 379 LINE",
"47 319 LINE",
"116 319 LINE",
"49 0 LINE"
);
},
{
closed = 1;
nodes = (
"195 319 LINE",
"392 319 LINE",
"405 379 LINE",
"208 379 LINE",
"261 628 LINE",
"397 628 LINE SMOOTH",
"592 628 OFFCURVE",
"663 525 OFFCURVE",
"627 353 CURVE SMOOTH",
"587 168 OFFCURVE",
"465 71 OFFCURVE",
"260 71 CURVE SMOOTH",
"143 71 LINE"
);
}
);
width = 730;
}
);
note = Eth;
rightKerningGroup = D;
unicode = 00D0;
},
{
glyphname = Dcaron;
lastChange = "2015-11-30 00:21:35 +0000";
layers = (
{
layerId = "EA8340D9-3B60-45BA-AE27-149F2EF80A01";
name = "Light Italic";
paths = (
{
closed = 1;
nodes = (
"220 0 LINE SMOOTH",
"468 0 OFFCURVE",
"625 116 OFFCURVE",
"676 353 CURVE SMOOTH",
"721 566 OFFCURVE",
"611 699 OFFCURVE",
"384 699 CURVE SMOOTH",
"168 699 LINE",
"20 0 LINE"
);
},
{
closed = 1;
nodes = (
"232 633 LINE",
"369 633 LINE SMOOTH",
"574 633 OFFCURVE",
"634 525 OFFCURVE",
"598 353 CURVE SMOOTH",
"558 168 OFFCURVE",
"444 66 OFFCURVE",
"229 66 CURVE SMOOTH",
"112 66 LINE"
);
},
{
closed = 1;
nodes = (
"446 742 LINE",
"618 903 LINE",
"537 903 LINE",
"420 789 LINE",
"353 903 LINE",
"278 903 LINE",
"379 742 LINE"
);
}
);
width = 701;
}
);
note = Dcaron;
rightKerningGroup = D;
unicode = 010E;
},
{
glyphname = Dcroat;
lastChange = "2015-11-30 00:21:36 +0000";
layers = (
{
layerId = "EA8340D9-3B60-45BA-AE27-149F2EF80A01";
name = "Light Italic";
paths = (
{
closed = 1;
nodes = (
"249 0 LINE SMOOTH",
"503 0 OFFCURVE",
"654 116 OFFCURVE",
"705 353 CURVE SMOOTH",
"750 566 OFFCURVE",
"640 699 OFFCURVE",
"414 699 CURVE SMOOTH",
"197 699 LINE",
"129 379 LINE",
"60 379 LINE",
"47 319 LINE",
"116 319 LINE",
"49 0 LINE"
);
},
{
closed = 1;
nodes = (
"195 319 LINE",
"392 319 LINE",
"405 379 LINE",
"208 379 LINE",
"261 628 LINE",
"397 628 LINE SMOOTH",
"594 628 OFFCURVE",
"663 525 OFFCURVE",
"627 353 CURVE SMOOTH",
"587 168 OFFCURVE",
"465 71 OFFCURVE",
"260 71 CURVE SMOOTH",
"143 71 LINE"
);
}
);
width = 730;
}
);
note = Dcroat;
rightKerningGroup = D;
unicode = 0110;
},
{
glyphname = Ddotbelow;
lastChange = "2015-11-30 00:21:35 +0000";
layers = (
{
layerId = "EA8340D9-3B60-45BA-AE27-149F2EF80A01";
name = "Light Italic";
paths = (
{
closed = 1;
nodes = (
"220 0 LINE SMOOTH",
"468 0 OFFCURVE",
"625 116 OFFCURVE",
"676 353 CURVE SMOOTH",
"721 566 OFFCURVE",
"611 699 OFFCURVE",
"384 699 CURVE SMOOTH",
"168 699 LINE",
"20 0 LINE"
);
},
{
closed = 1;
nodes = (
"219 -152 OFFCURVE",
"246 -130 OFFCURVE",
"252 -103 CURVE",
"257 -76 OFFCURVE",
"239 -54 OFFCURVE",
"214 -54 CURVE SMOOTH",
"187 -54 OFFCURVE",
"159 -76 OFFCURVE",
"154 -103 CURVE",
"148 -130 OFFCURVE",
"166 -152 OFFCURVE",
"193 -152 CURVE SMOOTH"
);
},
{
closed = 1;
nodes = (
"232 633 LINE",
"369 633 LINE SMOOTH",
"574 633 OFFCURVE",
"634 525 OFFCURVE",
"598 353 CURVE SMOOTH",
"558 168 OFFCURVE",
"444 66 OFFCURVE",
"229 66 CURVE SMOOTH",
"112 66 LINE"
);
}
);
width = 701;
}
);
note = Ddotbelow;
rightKerningGroup = D;
unicode = 1E0C;
},
{
glyphname = Dlinebelow;
lastChange = "2015-11-30 00:21:37 +0000";
layers = (
{
layerId = "EA8340D9-3B60-45BA-AE27-149F2EF80A01";
name = "Light Italic";
paths = (
{
closed = 1;
nodes = (
"220 0 LINE SMOOTH",
"468 0 OFFCURVE",
"625 116 OFFCURVE",
"676 353 CURVE SMOOTH",
"721 566 OFFCURVE",
"611 699 OFFCURVE",
"384 699 CURVE SMOOTH",
"168 699 LINE",
"20 0 LINE"
);
},
{
closed = 1;
nodes = (
"348 -131 LINE",
"360 -74 LINE",
"56 -74 LINE",
"44 -131 LINE"
);
},
{
closed = 1;
nodes = (
"232 633 LINE",
"369 633 LINE SMOOTH",
"574 633 OFFCURVE",
"634 525 OFFCURVE",
"598 353 CURVE SMOOTH",
"558 168 OFFCURVE",
"444 66 OFFCURVE",
"229 66 CURVE SMOOTH",
"112 66 LINE"
);
}
);
width = 701;
}
);
note = Dlinebelow;
rightKerningGroup = D;
unicode = 1E0E;
},
{
glyphname = E;
lastChange = "2015-11-30 00:21:34 +0000";
layers = (
{
layerId = "EA8340D9-3B60-45BA-AE27-149F2EF80A01";
name = "Light Italic";
paths = (
{
closed = 1;
nodes = (
"470 0 LINE",
"484 66 LINE",
"112 66 LINE",
"165 317 LINE",
"444 317 LINE",
"458 383 LINE",
"179 383 LINE",
"232 633 LINE",
"604 633 LINE",
"618 699 LINE",
"168 699 LINE",
"20 0 LINE"
);
}
);
width = 570;
}
);
leftKerningGroup = E;
note = E;
rightKerningGroup = E;
unicode = 0045;
},
{
glyphname = Eacute;
lastChange = "2015-11-30 00:21:36 +0000";
layers = (
{
layerId = "EA8340D9-3B60-45BA-AE27-149F2EF80A01";
name = "Light Italic";
paths = (
{
closed = 1;
nodes = (
"470 0 LINE",
"484 66 LINE",
"112 66 LINE",
"165 317 LINE",
"444 317 LINE",
"458 383 LINE",
"179 383 LINE",
"232 633 LINE",
"604 633 LINE",
"618 699 LINE",
"168 699 LINE",
"20 0 LINE"
);
},
{
closed = 1;
nodes = (
"426 742 LINE",
"542 912 LINE",
"461 912 LINE",
"357 742 LINE"
);
}
);
width = 570;
}
);
leftKerningGroup = E;
note = Eacute;
rightKerningGroup = E;
unicode = 00C9;
},
{
glyphname = Ebreve;
lastChange = "2015-11-30 00:21:36 +0000";
layers = (
{
layerId = "EA8340D9-3B60-45BA-AE27-149F2EF80A01";
name = "Light Italic";
paths = (
{
closed = 1;
nodes = (
"470 0 LINE",
"484 66 LINE",
"112 66 LINE",
"165 317 LINE",
"444 317 LINE",
"458 383 LINE",
"179 383 LINE",
"232 633 LINE",
"604 633 LINE",
"618 699 LINE",
"168 699 LINE",
"20 0 LINE"
);
},
{
closed = 1;
nodes = (
"488 742 OFFCURVE",
"553 797 OFFCURVE",
"569 872 CURVE",
"507 872 LINE",
"498 826 OFFCURVE",
"461 796 OFFCURVE",
"411 796 CURVE SMOOTH",
"361 796 OFFCURVE",
"338 826 OFFCURVE",
"347 872 CURVE",
"290 872 LINE",
"275 797 OFFCURVE",
"317 742 OFFCURVE",
"403 742 CURVE SMOOTH"
);
}
);
width = 570;
}
);
leftKerningGroup = E;
note = Ebreve;
rightKerningGroup = E;
unicode = 0114;
},
{
glyphname = Ecaron;
lastChange = "2015-11-30 00:21:36 +0000";
layers = (
{
layerId = "EA8340D9-3B60-45BA-AE27-149F2EF80A01";
name = "Light Italic";
paths = (
{
closed = 1;
nodes = (
"470 0 LINE",
"484 66 LINE",
"112 66 LINE",
"165 317 LINE",
"444 317 LINE",
"458 383 LINE",
"179 383 LINE",
"232 633 LINE",
"604 633 LINE",
"618 699 LINE",
"168 699 LINE",
"20 0 LINE"
);
},
{
closed = 1;
nodes = (
"433 742 LINE",
"605 903 LINE",
"524 903 LINE",
"407 789 LINE",
"340 903 LINE",
"265 903 LINE",
"366 742 LINE"
);
}
);
width = 570;
}
);
leftKerningGroup = E;
note = Ecaron;
rightKerningGroup = E;
unicode = 011A;
},
{
glyphname = Ecircumflex;
lastChange = "2015-11-30 00:21:34 +0000";
layers = (
{
layerId = "EA8340D9-3B60-45BA-AE27-149F2EF80A01";
name = "Light Italic";
paths = (
{
closed = 1;
nodes = (
"470 0 LINE",
"484 66 LINE",
"112 66 LINE",
"165 317 LINE",
"444 317 LINE",
"458 383 LINE",
"179 383 LINE",
"232 633 LINE",
"604 633 LINE",
"618 699 LINE",
"168 699 LINE",
"20 0 LINE"
);
},
{
closed = 1;
nodes = (
"309 743 LINE",
"425 857 LINE",
"493 743 LINE",
"568 743 LINE",
"465 904 LINE",
"398 904 LINE",
"228 743 LINE"
);
}
);
width = 570;
}
);
leftKerningGroup = E;
note = Ecircumflex;
rightKerningGroup = E;
unicode = 00CA;
},
{
glyphname = Ecircumflexacute;
lastChange = "2015-11-30 00:21:35 +0000";
layers = (
{
layerId = "EA8340D9-3B60-45BA-AE27-149F2EF80A01";
name = "Light Italic";
paths = (
{
closed = 1;
nodes = (
"470 0 LINE",
"484 66 LINE",
"112 66 LINE",
"165 317 LINE",
"444 317 LINE",
"458 383 LINE",
"179 383 LINE",
"232 633 LINE",
"604 633 LINE",
"618 699 LINE",
"168 699 LINE",
"20 0 LINE"
);
},
{
closed = 1;
nodes = (
"289 742 LINE",
"402 837 LINE",
"473 742 LINE",
"550 742 LINE",
"444 880 LINE",
"377 880 LINE",
"210 742 LINE"
);
},
{
closed = 1;
nodes = (
"543 845 LINE",
"649 965 LINE",
"585 965 LINE",
"489 845 LINE"
);
}
);
width = 570;
}
);
leftKerningGroup = E;
note = Ecircumflexacute;
rightKerningGroup = E;
unicode = 1EBE;
},
{
glyphname = Ecircumflexdotbelow;
lastChange = "2015-11-30 00:21:37 +0000";
layers = (
{
layerId = "EA8340D9-3B60-45BA-AE27-149F2EF80A01";
name = "Light Italic";
paths = (
{
closed = 1;
nodes = (
"470 0 LINE",
"484 66 LINE",
"112 66 LINE",
"165 317 LINE",
"444 317 LINE",
"458 383 LINE",
"179 383 LINE",
"232 633 LINE",
"604 633 LINE",
"618 699 LINE",
"168 699 LINE",
"20 0 LINE"
);
},
{
closed = 1;
nodes = (
"221 -152 OFFCURVE",
"248 -130 OFFCURVE",
"254 -103 CURVE",
"259 -76 OFFCURVE",
"241 -54 OFFCURVE",
"216 -54 CURVE SMOOTH",
"189 -54 OFFCURVE",
"161 -76 OFFCURVE",
"156 -103 CURVE",
"150 -130 OFFCURVE",
"168 -152 OFFCURVE",
"195 -152 CURVE SMOOTH"
);
},
{
closed = 1;
nodes = (
"300 764 LINE",
"416 878 LINE",
"484 764 LINE",
"559 764 LINE",
"456 925 LINE",
"389 925 LINE",
"219 764 LINE"
);
}
);
width = 570;
}
);
leftKerningGroup = E;
note = Ecircumflexdotbelow;
rightKerningGroup = E;
unicode = 1EC6;
},
{
glyphname = Ecircumflexgrave;
lastChange = "2015-11-30 00:21:37 +0000";
layers = (
{
layerId = "EA8340D9-3B60-45BA-AE27-149F2EF80A01";
name = "Light Italic";
paths = (
{
closed = 1;
nodes = (
"509 0 LINE",
"523 66 LINE",
"151 66 LINE",
"204 317 LINE",
"483 317 LINE",
"497 383 LINE",
"218 383 LINE",
"271 633 LINE",
"643 633 LINE",
"657 699 LINE",
"207 699 LINE",
"59 0 LINE"
);
},
{
closed = 1;
nodes = (
"334 845 LINE",
"289 965 LINE",
"225 965 LINE",
"280 845 LINE"
);
},
{
closed = 1;
nodes = (
"306 742 LINE",
"419 837 LINE",
"490 742 LINE",
"568 742 LINE",
"462 880 LINE",
"395 880 LINE",
"228 742 LINE"
);
}
);
width = 609;
}
);
leftKerningGroup = E;
note = Ecircumflexgrave;
rightKerningGroup = E;
unicode = 1EC0;
},
{
glyphname = Ecircumflexhookabove;
lastChange = "2015-11-30 00:21:35 +0000";
layers = (
{
layerId = "EA8340D9-3B60-45BA-AE27-149F2EF80A01";
name = "Light Italic";
paths = (
{
closed = 1;
nodes = (
"470 0 LINE",
"484 66 LINE",
"112 66 LINE",
"165 317 LINE",
"444 317 LINE",
"458 383 LINE",
"179 383 LINE",
"232 633 LINE",
"604 633 LINE",
"618 699 LINE",
"168 699 LINE",
"20 0 LINE"
);
},
{
closed = 1;
nodes = (
"328 742 LINE",
"441 837 LINE",
"512 742 LINE",
"590 742 LINE",
"484 880 LINE",
"417 880 LINE",
"250 742 LINE"
);
},
{
closed = 1;
nodes = (
"582 838 LINE",
"587 863 LINE",
"631 869 OFFCURVE",
"661 896 OFFCURVE",
"668 928 CURVE SMOOTH",
"676 968 OFFCURVE",
"653 994 OFFCURVE",
"598 994 CURVE SMOOTH",
"577 994 OFFCURVE",
"551 990 OFFCURVE",
"537 985 CURVE",
"529 949 LINE",
"540 954 OFFCURVE",
"559 957 OFFCURVE",
"575 957 CURVE SMOOTH",
"604 957 OFFCURVE",
"617 946 OFFCURVE",
"612 924 CURVE SMOOTH",
"607 900 OFFCURVE",
"585 888 OFFCURVE",
"543 888 CURVE",
"533 838 LINE"
);
}
);
width = 572;
}
);
leftKerningGroup = E;
note = Ecircumflexhookabove;
rightKerningGroup = E;
unicode = 1EC2;
},
{
glyphname = Ecircumflextilde;
lastChange = "2015-11-30 00:21:35 +0000";
layers = (
{
layerId = "EA8340D9-3B60-45BA-AE27-149F2EF80A01";
name = "Light Italic";
paths = (
{
closed = 1;
nodes = (
"470 0 LINE",
"484 66 LINE",
"112 66 LINE",
"165 317 LINE",
"444 317 LINE",
"458 383 LINE",
"179 383 LINE",
"232 633 LINE",
"604 633 LINE",
"618 699 LINE",
"168 699 LINE",
"20 0 LINE"
);
},
{
closed = 1;
nodes = (
"330 742 LINE",
"443 837 LINE",
"514 742 LINE",
"592 742 LINE",
"486 880 LINE",
"419 880 LINE",
"252 742 LINE"
);
},
{
closed = 1;
nodes = (
"329 918 OFFCURVE",
"358 928 OFFCURVE",
"388 928 CURVE SMOOTH",
"444 928 OFFCURVE",
"474 885 OFFCURVE",
"538 885 CURVE SMOOTH",
"572 885 OFFCURVE",
"603 893 OFFCURVE",
"627 921 CURVE",
"640 982 LINE",
"609 947 OFFCURVE",
"579 936 OFFCURVE",
"549 936 CURVE SMOOTH",
"492 936 OFFCURVE",
"459 980 OFFCURVE",
"399 980 CURVE SMOOTH",
"365 980 OFFCURVE",
"333 971 OFFCURVE",
"308 943 CURVE",
"295 882 LINE"
);
}
);
width = 570;
}
);
leftKerningGroup = E;
note = Ecircumflextilde;
rightKerningGroup = E;
unicode = 1EC4;
},
{
glyphname = Edieresis;
lastChange = "2015-11-30 00:21:34 +0000";
layers = (
{
layerId = "EA8340D9-3B60-45BA-AE27-149F2EF80A01";
name = "Light Italic";
paths = (
{
closed = 1;
nodes = (
"470 0 LINE",
"484 66 LINE",
"112 66 LINE",
"165 317 LINE",
"444 317 LINE",
"458 383 LINE",
"179 383 LINE",
"232 633 LINE",
"604 633 LINE",
"618 699 LINE",
"168 699 LINE",
"20 0 LINE"
);
},
{
closed = 1;
nodes = (
"326 740 OFFCURVE",
"353 762 OFFCURVE",
"359 789 CURVE SMOOTH",
"365 816 OFFCURVE",
"346 838 OFFCURVE",
"320 838 CURVE SMOOTH",
"293 838 OFFCURVE",
"267 816 OFFCURVE",
"261 789 CURVE SMOOTH",
"255 762 OFFCURVE",
"274 740 OFFCURVE",
"300 740 CURVE SMOOTH"
);
},
{
closed = 1;
nodes = (
"543 740 OFFCURVE",
"570 762 OFFCURVE",
"576 789 CURVE SMOOTH",
"582 816 OFFCURVE",
"563 838 OFFCURVE",
"537 838 CURVE SMOOTH",
"510 838 OFFCURVE",
"483 816 OFFCURVE",
"477 789 CURVE SMOOTH",
"471 762 OFFCURVE",
"490 740 OFFCURVE",
"517 740 CURVE SMOOTH"
);
}
);
width = 570;
}
);
leftKerningGroup = E;
note = Edieresis;
rightKerningGroup = E;
unicode = 00CB;
},
{
glyphname = Edotaccent;
lastChange = "2015-11-30 00:21:34 +0000";
layers = (
{
layerId = "EA8340D9-3B60-45BA-AE27-149F2EF80A01";
name = "Light Italic";
paths = (
{
closed = 1;
nodes = (
"470 0 LINE",
"484 66 LINE",
"112 66 LINE",
"165 317 LINE",
"444 317 LINE",
"458 383 LINE",
"179 383 LINE",
"232 633 LINE",
"604 633 LINE",
"618 699 LINE",
"168 699 LINE",
"20 0 LINE"
);
},
{
closed = 1;
nodes = (
"423 740 OFFCURVE",
"450 762 OFFCURVE",
"456 789 CURVE SMOOTH",
"462 816 OFFCURVE",
"443 838 OFFCURVE",
"417 838 CURVE SMOOTH",
"390 838 OFFCURVE",
"363 816 OFFCURVE",
"357 789 CURVE SMOOTH",
"351 762 OFFCURVE",
"370 740 OFFCURVE",
"397 740 CURVE SMOOTH"
);
}
);
width = 570;
}
);
leftKerningGroup = E;
note = Edotaccent;
rightKerningGroup = E;
unicode = 0116;
},
{
glyphname = Edotbelow;
lastChange = "2015-11-30 00:21:34 +0000";
layers = (
{
layerId = "EA8340D9-3B60-45BA-AE27-149F2EF80A01";
name = "Light Italic";
paths = (
{
closed = 1;
nodes = (
"470 0 LINE",
"484 66 LINE",
"112 66 LINE",
"165 317 LINE",
"444 317 LINE",
"458 383 LINE",
"179 383 LINE",
"232 633 LINE",
"604 633 LINE",
"618 699 LINE",
"168 699 LINE",
"20 0 LINE"
);
},
{
closed = 1;
nodes = (
"223 -152 OFFCURVE",
"250 -130 OFFCURVE",
"256 -103 CURVE",
"261 -76 OFFCURVE",
"243 -54 OFFCURVE",
"218 -54 CURVE SMOOTH",
"191 -54 OFFCURVE",
"163 -76 OFFCURVE",
"158 -103 CURVE",
"152 -130 OFFCURVE",
"170 -152 OFFCURVE",
"197 -152 CURVE SMOOTH"
);
}
);
width = 570;
}
);
leftKerningGroup = E;
note = Edotbelow;
rightKerningGroup = E;
unicode = 1EB8;
},
{
glyphname = Egrave;
lastChange = "2015-11-30 00:21:36 +0000";
layers = (
{
layerId = "EA8340D9-3B60-45BA-AE27-149F2EF80A01";
name = "Light Italic";
paths = (
{
closed = 1;
nodes = (
"470 0 LINE",
"484 66 LINE",
"112 66 LINE",
"165 317 LINE",
"444 317 LINE",
"458 383 LINE",
"179 383 LINE",
"232 633 LINE",
"604 633 LINE",
"618 699 LINE",
"168 699 LINE",
"20 0 LINE"
);
},
{
closed = 1;
nodes = (
"454 742 LINE",
"422 912 LINE",
"341 912 LINE",
"385 742 LINE"
);
}
);
width = 570;
}
);
leftKerningGroup = E;
note = Egrave;
rightKerningGroup = E;
unicode = 00C8;
},
{
glyphname = Ehookabove;
lastChange = "2015-11-30 00:21:36 +0000";
layers = (
{
layerId = "EA8340D9-3B60-45BA-AE27-149F2EF80A01";
name = "Light Italic";
paths = (
{
closed = 1;
nodes = (
"470 0 LINE",
"484 66 LINE",
"112 66 LINE",
"165 317 LINE",
"444 317 LINE",
"458 383 LINE",
"179 383 LINE",
"232 633 LINE",
"604 633 LINE",
"618 699 LINE",
"168 699 LINE",
"20 0 LINE"
);
},
{
closed = 1;
nodes = (
"418 743 LINE",
"425 778 LINE",
"489 784 OFFCURVE",
"529 824 OFFCURVE",
"539 872 CURVE SMOOTH",
"551 927 OFFCURVE",
"511 965 OFFCURVE",
"437 965 CURVE SMOOTH",
"409 965 OFFCURVE",
"377 960 OFFCURVE",
"359 954 CURVE",
"349 909 LINE",
"362 915 OFFCURVE",
"394 919 OFFCURVE",
"411 919 CURVE SMOOTH",
"458 919 OFFCURVE",
"478 904 OFFCURVE",
"471 869 CURVE SMOOTH",
"462 828 OFFCURVE",
"429 811 OFFCURVE",
"365 811 CURVE",
"351 743 LINE"
);
}
);
width = 570;
}
);
leftKerningGroup = E;
note = Ehookabove;
rightKerningGroup = E;
unicode = 1EBA;
},
{
glyphname = Emacron;
lastChange = "2015-11-30 00:21:36 +0000";
layers = (
{
layerId = "EA8340D9-3B60-45BA-AE27-149F2EF80A01";
name = "Light Italic";
paths = (
{
closed = 1;
nodes = (
"470 0 LINE",
"484 66 LINE",
"112 66 LINE",
"165 317 LINE",
"444 317 LINE",
"458 383 LINE",
"179 383 LINE",
"232 633 LINE",
"604 633 LINE",
"618 699 LINE",
"168 699 LINE",
"20 0 LINE"
);
},
{
closed = 1;
nodes = (
"557 762 LINE",
"568 816 LINE",
"268 816 LINE",
"257 762 LINE"
);
}
);
width = 570;
}
);
leftKerningGroup = E;
note = Emacron;
rightKerningGroup = E;
unicode = 0112;
},
{
glyphname = Eogonek;
lastChange = "2015-11-30 00:21:34 +0000";
layers = (
{
layerId = "EA8340D9-3B60-45BA-AE27-149F2EF80A01";
name = "Light Italic";
paths = (
{
closed = 1;
nodes = (
"373 -210 OFFCURVE",
"398 -206 OFFCURVE",
"415 -199 CURVE",
"426 -149 LINE",
"412 -155 OFFCURVE",
"395 -159 OFFCURVE",
"377 -159 CURVE SMOOTH",
"345 -159 OFFCURVE",
"333 -145 OFFCURVE",
"340 -112 CURVE SMOOTH",
"349 -69 OFFCURVE",
"384 -34 OFFCURVE",
"442 0 CURVE",
"470 0 LINE",
"484 66 LINE",
"112 66 LINE",
"165 317 LINE",
"444 317 LINE",
"458 383 LINE",
"179 383 LINE",
"232 633 LINE",
"604 633 LINE",
"618 699 LINE",
"168 699 LINE",
"20 0 LINE",
"370 0 LINE",
"323 -27 OFFCURVE",
"280 -71 OFFCURVE",
"269 -123 CURVE SMOOTH",
"257 -182 OFFCURVE",
"295 -210 OFFCURVE",
"348 -210 CURVE SMOOTH"
);
}
);
width = 570;
}
);
leftKerningGroup = E;
note = Eogonek;
rightKerningGroup = E;
unicode = 0118;
},
{
glyphname = Etilde;
lastChange = "2015-11-30 00:21:34 +0000";
layers = (
{
layerId = "EA8340D9-3B60-45BA-AE27-149F2EF80A01";
name = "Light Italic";
paths = (
{
closed = 1;
nodes = (
"470 0 LINE",
"484 66 LINE",
"112 66 LINE",
"165 317 LINE",
"444 317 LINE",
"458 383 LINE",
"179 383 LINE",
"232 633 LINE",
"604 633 LINE",
"618 699 LINE",
"168 699 LINE",
"20 0 LINE"
);
},
{
closed = 1;
nodes = (
"249 811 OFFCURVE",
"283 823 OFFCURVE",
"318 823 CURVE SMOOTH",
"382 823 OFFCURVE",
"415 773 OFFCURVE",
"488 773 CURVE SMOOTH",
"528 773 OFFCURVE",
"564 783 OFFCURVE",
"591 815 CURVE",
"606 884 LINE",
"571 844 OFFCURVE",
"536 832 OFFCURVE",
"500 832 CURVE SMOOTH",
"435 832 OFFCURVE",
"398 882 OFFCURVE",
"330 882 CURVE SMOOTH",
"291 882 OFFCURVE",
"254 871 OFFCURVE",
"226 839 CURVE",
"211 770 LINE"
);
}
);
width = 570;
}
);
leftKerningGroup = E;
note = Etilde;
rightKerningGroup = E;
unicode = 1EBC;
},
{
glyphname = F;
lastChange = "2015-11-30 00:21:34 +0000";
layers = (
{
layerId = "EA8340D9-3B60-45BA-AE27-149F2EF80A01";
name = "Light Italic";
paths = (
{
closed = 1;
nodes = (
"98 0 LINE",
"165 317 LINE",
"444 317 LINE",
"458 383 LINE",
"179 383 LINE",
"232 633 LINE",
"604 633 LINE",
"618 699 LINE",
"168 699 LINE",
"20 0 LINE"
);
}
);
width = 550;
}
);
note = F;
unicode = 0046;
},
{
glyphname = G;
lastChange = "2015-11-30 00:21:34 +0000";
layers = (
{
layerId = "EA8340D9-3B60-45BA-AE27-149F2EF80A01";
name = "Light Italic";
paths = (
{
closed = 1;
nodes = (
"466 -15 OFFCURVE",
"554 8 OFFCURVE",
"633 64 CURVE",
"700 378 LINE",
"475 378 LINE",
"461 312 LINE",
"608 312 LINE",
"562 97 LINE",
"518 72 OFFCURVE",
"448 55 OFFCURVE",
"382 55 CURVE SMOOTH",
"198 55 OFFCURVE",
"113 167 OFFCURVE",
"152 349 CURVE SMOOTH",
"190 530 OFFCURVE",
"338 643 OFFCURVE",
"509 643 CURVE SMOOTH",
"600 643 OFFCURVE",
"676 618 OFFCURVE",
"726 562 CURVE",
"742 638 LINE",
"689 689 OFFCURVE",
"614 714 OFFCURVE",
"518 714 CURVE SMOOTH",
"298 714 OFFCURVE",
"121 570 OFFCURVE",
"74 349 CURVE SMOOTH",
"27 128 OFFCURVE",
"157 -15 OFFCURVE",
"363 -15 CURVE SMOOTH"
);
}
);
width = 720;
}
);
leftKerningGroup = C;
note = G;
unicode = 0047;
},
{
glyphname = Gbreve;
lastChange = "2015-11-30 00:21:35 +0000";
layers = (
{
layerId = "EA8340D9-3B60-45BA-AE27-149F2EF80A01";
name = "Light Italic";
paths = (
{
closed = 1;
nodes = (
"466 -15 OFFCURVE",
"554 8 OFFCURVE",
"633 64 CURVE",
"700 378 LINE",
"475 378 LINE",
"461 312 LINE",
"608 312 LINE",
"562 97 LINE",
"518 72 OFFCURVE",
"448 55 OFFCURVE",
"382 55 CURVE SMOOTH",
"198 55 OFFCURVE",
"113 167 OFFCURVE",
"152 349 CURVE SMOOTH",
"190 530 OFFCURVE",
"338 643 OFFCURVE",
"509 643 CURVE SMOOTH",
"600 643 OFFCURVE",
"676 618 OFFCURVE",
"726 562 CURVE",
"742 638 LINE",
"689 689 OFFCURVE",
"614 714 OFFCURVE",
"518 714 CURVE SMOOTH",
"298 714 OFFCURVE",
"121 570 OFFCURVE",
"74 349 CURVE SMOOTH",
"27 128 OFFCURVE",
"157 -15 OFFCURVE",
"363 -15 CURVE SMOOTH"
);
},
{
closed = 1;
nodes = (
"613 742 OFFCURVE",
"678 797 OFFCURVE",
"694 872 CURVE",
"632 872 LINE",
"623 826 OFFCURVE",
"586 796 OFFCURVE",
"536 796 CURVE SMOOTH",
"486 796 OFFCURVE",
"463 826 OFFCURVE",
"472 872 CURVE",
"415 872 LINE",
"400 797 OFFCURVE",
"442 742 OFFCURVE",
"528 742 CURVE SMOOTH"
);
}
);
width = 720;
}
);
leftKerningGroup = C;
note = Gbreve;
unicode = 011E;
},
{
glyphname = Gcaron;
lastChange = "2015-11-30 00:21:36 +0000";
layers = (
{
layerId = "EA8340D9-3B60-45BA-AE27-149F2EF80A01";
name = "Light Italic";
paths = (
{
closed = 1;
nodes = (
"466 -15 OFFCURVE",
"554 8 OFFCURVE",
"633 64 CURVE",
"700 378 LINE",
"475 378 LINE",
"461 312 LINE",
"608 312 LINE",
"562 97 LINE",
"518 72 OFFCURVE",
"448 55 OFFCURVE",
"382 55 CURVE SMOOTH",
"198 55 OFFCURVE",
"113 167 OFFCURVE",
"152 349 CURVE SMOOTH",
"190 530 OFFCURVE",
"338 643 OFFCURVE",
"509 643 CURVE SMOOTH",
"600 643 OFFCURVE",
"676 618 OFFCURVE",
"726 562 CURVE",
"742 638 LINE",
"689 689 OFFCURVE",
"614 714 OFFCURVE",
"518 714 CURVE SMOOTH",
"298 714 OFFCURVE",
"121 570 OFFCURVE",
"74 349 CURVE SMOOTH",
"27 128 OFFCURVE",
"157 -15 OFFCURVE",
"363 -15 CURVE SMOOTH"
);
},
{
closed = 1;
nodes = (
"534 742 LINE",
"706 903 LINE",
"625 903 LINE",
"508 789 LINE",
"441 903 LINE",
"366 903 LINE",
"467 742 LINE"
);
}
);
width = 720;
}
);
leftKerningGroup = C;
note = Gcaron;
unicode = 01E6;
},
{
glyphname = Gcircumflex;
lastChange = "2015-11-30 00:21:35 +0000";
layers = (
{
layerId = "EA8340D9-3B60-45BA-AE27-149F2EF80A01";
name = "Light Italic";
paths = (
{
closed = 1;
nodes = (
"466 -15 OFFCURVE",
"554 8 OFFCURVE",
"633 64 CURVE",
"700 378 LINE",
"475 378 LINE",
"461 312 LINE",
"608 312 LINE",
"562 97 LINE",
"518 72 OFFCURVE",
"448 55 OFFCURVE",
"382 55 CURVE SMOOTH",
"198 55 OFFCURVE",
"113 167 OFFCURVE",
"152 349 CURVE SMOOTH",
"190 530 OFFCURVE",
"338 643 OFFCURVE",
"509 643 CURVE SMOOTH",
"600 643 OFFCURVE",
"676 618 OFFCURVE",
"726 562 CURVE",
"742 638 LINE",
"689 689 OFFCURVE",
"614 714 OFFCURVE",
"518 714 CURVE SMOOTH",
"298 714 OFFCURVE",
"121 570 OFFCURVE",
"74 349 CURVE SMOOTH",
"27 128 OFFCURVE",
"157 -15 OFFCURVE",
"363 -15 CURVE SMOOTH"
);
},
{
closed = 1;
nodes = (
"430 742 LINE",
"546 856 LINE",
"614 742 LINE",
"689 742 LINE",
"586 903 LINE",
"519 903 LINE",
"349 742 LINE"
);
}
);
width = 720;
}
);
leftKerningGroup = C;
note = Gcircumflex;
unicode = 011C;
},
{
glyphname = Gcommaaccent;
lastChange = "2015-11-30 00:21:34 +0000";
layers = (
{
layerId = "EA8340D9-3B60-45BA-AE27-149F2EF80A01";
name = "Light Italic";
paths = (
{
closed = 1;
nodes = (
"466 -15 OFFCURVE",
"554 8 OFFCURVE",
"633 64 CURVE",
"700 378 LINE",
"475 378 LINE",
"461 312 LINE",
"608 312 LINE",
"562 97 LINE",
"518 72 OFFCURVE",
"448 55 OFFCURVE",
"382 55 CURVE SMOOTH",
"198 55 OFFCURVE",
"113 167 OFFCURVE",
"152 349 CURVE SMOOTH",
"190 530 OFFCURVE",
"338 643 OFFCURVE",
"509 643 CURVE SMOOTH",
"600 643 OFFCURVE",
"676 618 OFFCURVE",
"726 562 CURVE",
"742 638 LINE",
"689 689 OFFCURVE",
"614 714 OFFCURVE",
"518 714 CURVE SMOOTH",
"298 714 OFFCURVE",
"121 570 OFFCURVE",
"74 349 CURVE SMOOTH",
"27 128 OFFCURVE",
"157 -15 OFFCURVE",
"363 -15 CURVE SMOOTH"
);
},
{
closed = 1;
nodes = (
"258 -260 LINE",
"391 -63 LINE",
"310 -63 LINE",
"189 -260 LINE"
);
}
);
width = 720;
}
);
leftKerningGroup = C;
note = Gcommaaccent;
unicode = 0122;
},
{
glyphname = Gdotaccent;
lastChange = "2015-11-30 00:21:36 +0000";
layers = (
{
layerId = "EA8340D9-3B60-45BA-AE27-149F2EF80A01";
name = "Light Italic";
paths = (
{
closed = 1;
nodes = (
"466 -15 OFFCURVE",
"554 8 OFFCURVE",
"633 64 CURVE",
"700 378 LINE",
"475 378 LINE",
"461 312 LINE",
"608 312 LINE",
"562 97 LINE",
"518 72 OFFCURVE",
"448 55 OFFCURVE",
"382 55 CURVE SMOOTH",
"198 55 OFFCURVE",
"113 167 OFFCURVE",
"152 349 CURVE SMOOTH",
"190 530 OFFCURVE",
"338 643 OFFCURVE",
"509 643 CURVE SMOOTH",
"600 643 OFFCURVE",
"676 618 OFFCURVE",
"726 562 CURVE",
"742 638 LINE",
"689 689 OFFCURVE",
"614 714 OFFCURVE",
"518 714 CURVE SMOOTH",
"298 714 OFFCURVE",
"121 570 OFFCURVE",
"74 349 CURVE SMOOTH",
"27 128 OFFCURVE",
"157 -15 OFFCURVE",
"363 -15 CURVE SMOOTH"
);
},
{
closed = 1;
nodes = (
"548 742 OFFCURVE",
"575 764 OFFCURVE",
"581 791 CURVE SMOOTH",
"587 818 OFFCURVE",
"568 840 OFFCURVE",
"542 840 CURVE SMOOTH",
"515 840 OFFCURVE",
"488 818 OFFCURVE",
"482 791 CURVE SMOOTH",
"476 764 OFFCURVE",
"495 742 OFFCURVE",
"522 742 CURVE SMOOTH"
);
}
);
width = 720;
}
);
leftKerningGroup = C;
note = Gdotaccent;
unicode = 0120;
},
{
glyphname = Gmacron;
lastChange = "2015-11-30 00:21:35 +0000";
layers = (
{
layerId = "EA8340D9-3B60-45BA-AE27-149F2EF80A01";
name = "Light Italic";
paths = (
{
closed = 1;
nodes = (
"466 -15 OFFCURVE",
"554 8 OFFCURVE",
"633 64 CURVE",
"700 378 LINE",
"475 378 LINE",
"461 312 LINE",
"608 312 LINE",
"562 97 LINE",
"518 72 OFFCURVE",
"448 55 OFFCURVE",
"382 55 CURVE SMOOTH",
"198 55 OFFCURVE",
"113 167 OFFCURVE",
"152 349 CURVE SMOOTH",
"190 530 OFFCURVE",
"338 643 OFFCURVE",
"509 643 CURVE SMOOTH",
"600 643 OFFCURVE",
"676 618 OFFCURVE",
"726 562 CURVE",
"742 638 LINE",
"689 689 OFFCURVE",
"614 714 OFFCURVE",
"518 714 CURVE SMOOTH",
"298 714 OFFCURVE",
"121 570 OFFCURVE",
"74 349 CURVE SMOOTH",
"27 128 OFFCURVE",
"157 -15 OFFCURVE",
"363 -15 CURVE SMOOTH"
);
},
{
closed = 1;
nodes = (
"683 762 LINE",
"694 816 LINE",
"394 816 LINE",
"383 762 LINE"
);
}
);
width = 720;
}
);
leftKerningGroup = C;
note = Gmacron;
unicode = 1E20;
},
{
glyphname = H;
lastChange = "2015-11-30 00:21:34 +0000";
layers = (
{
layerId = "EA8340D9-3B60-45BA-AE27-149F2EF80A01";
name = "Light Italic";
paths = (
{
closed = 1;
nodes = (
"98 0 LINE",
"166 323 LINE",
"560 323 LINE",
"492 0 LINE",
"570 0 LINE",
"718 699 LINE",
"640 699 LINE",
"574 389 LINE",
"180 389 LINE",
"246 699 LINE",
"168 699 LINE",
"20 0 LINE"
);
}
);
width = 690;
}
);
note = H;
unicode = 0048;
},
{
glyphname = Hbar;
lastChange = "2015-11-30 00:21:37 +0000";
layers = (
{
layerId = "EA8340D9-3B60-45BA-AE27-149F2EF80A01";
name = "Light Italic";
paths = (
{
closed = 1;
nodes = (
"105 0 LINE",
"173 321 LINE",
"567 321 LINE",
"499 0 LINE",
"577 0 LINE",
"685 512 LINE",
"743 512 LINE",
"756 573 LINE",
"698 573 LINE",
"725 699 LINE",
"647 699 LINE",
"620 573 LINE",
"226 573 LINE",
"253 699 LINE",
"175 699 LINE",
"148 573 LINE",
"101 573 LINE",
"88 512 LINE",
"135 512 LINE",
"27 0 LINE"
);
},
{
closed = 1;
nodes = (
"213 512 LINE",
"607 512 LINE",
"582 392 LINE",
"188 392 LINE"
);
}
);
width = 715;
}
);
note = Hbar;
unicode = 0126;
},
{
glyphname = Hbrevebelow;
lastChange = "2015-11-30 00:21:36 +0000";
layers = (
{
layerId = "EA8340D9-3B60-45BA-AE27-149F2EF80A01";
name = "Light Italic";
paths = (
{
closed = 1;
nodes = (
"98 0 LINE",
"166 323 LINE",
"560 323 LINE",
"492 0 LINE",
"570 0 LINE",
"718 699 LINE",
"640 699 LINE",
"574 389 LINE",
"180 389 LINE",
"246 699 LINE",
"168 699 LINE",
"20 0 LINE"
);
},
{
closed = 1;
nodes = (
"345 -193 OFFCURVE",
"405 -138 OFFCURVE",
"421 -63 CURVE",
"359 -63 LINE",
"349 -109 OFFCURVE",
"313 -139 OFFCURVE",
"264 -139 CURVE SMOOTH",
"214 -139 OFFCURVE",
"190 -109 OFFCURVE",
"200 -63 CURVE",
"143 -63 LINE",
"127 -138 OFFCURVE",
"169 -193 OFFCURVE",
"255 -193 CURVE SMOOTH"
);
}
);
width = 690;
}
);
note = Hbrevebelow;
unicode = 1E2A;
},
{
glyphname = Hcircumflex;
lastChange = "2015-11-30 00:21:34 +0000";
layers = (
{
layerId = "EA8340D9-3B60-45BA-AE27-149F2EF80A01";
name = "Light Italic";
paths = (
{
closed = 1;
nodes = (
"98 0 LINE",
"166 323 LINE",
"560 323 LINE",
"492 0 LINE",
"570 0 LINE",
"718 699 LINE",
"640 699 LINE",
"574 389 LINE",
"180 389 LINE",
"246 699 LINE",
"168 699 LINE",
"20 0 LINE"
);
},
{
closed = 1;
nodes = (
"364 742 LINE",
"480 856 LINE",
"548 742 LINE",
"623 742 LINE",
"520 903 LINE",
"453 903 LINE",
"283 742 LINE"
);
}
);
width = 690;
}
);
note = Hcircumflex;
unicode = 0124;
},
{
glyphname = Hdotbelow;
lastChange = "2015-11-30 00:21:37 +0000";
layers = (
{
layerId = "EA8340D9-3B60-45BA-AE27-149F2EF80A01";
name = "Light Italic";
paths = (
{
closed = 1;
nodes = (
"98 0 LINE",
"166 323 LINE",
"560 323 LINE",
"492 0 LINE",
"570 0 LINE",
"718 699 LINE",
"640 699 LINE",
"574 389 LINE",
"180 389 LINE",
"246 699 LINE",
"168 699 LINE",
"20 0 LINE"
);
},
{
closed = 1;
nodes = (
"290 -152 OFFCURVE",
"317 -130 OFFCURVE",
"323 -103 CURVE",
"328 -76 OFFCURVE",
"310 -54 OFFCURVE",
"285 -54 CURVE SMOOTH",
"258 -54 OFFCURVE",
"230 -76 OFFCURVE",
"225 -103 CURVE",
"219 -130 OFFCURVE",
"237 -152 OFFCURVE",
"264 -152 CURVE SMOOTH"
);
}
);
width = 690;
}
);
note = Hdotbelow;
unicode = 1E24;
},
{
glyphname = I;
lastChange = "2015-11-30 00:21:34 +0000";
layers = (
{
layerId = "EA8340D9-3B60-45BA-AE27-149F2EF80A01";
name = "Light Italic";
paths = (
{
closed = 1;
nodes = (
"99 0 LINE",
"247 699 LINE",
"169 699 LINE",
"21 0 LINE"
);
}
);
width = 220;
}
);
note = I;
unicode = 0049;
},
{
glyphname = IJ;
lastChange = "2015-11-30 00:21:35 +0000";
layers = (
{
layerId = "EA8340D9-3B60-45BA-AE27-149F2EF80A01";
name = "Light Italic";
paths = (
{
closed = 1;
nodes = (
"416 -15 OFFCURVE",
"487 44 OFFCURVE",
"510 155 CURVE SMOOTH",
"626 699 LINE",
"548 699 LINE",
"434 161 LINE SMOOTH",
"418 88 OFFCURVE",
"380 55 OFFCURVE",
"304 55 CURVE SMOOTH",
"279 55 OFFCURVE",
"240 60 OFFCURVE",
"221 68 CURVE",
"207 0 LINE",
"227 -9 OFFCURVE",
"268 -15 OFFCURVE",
"303 -15 CURVE SMOOTH"
);
},
{
closed = 1;
nodes = (
"99 0 LINE",
"247 699 LINE",
"169 699 LINE",
"21 0 LINE"
);
}
);
width = 593;
}
);
note = IJ;
rightKerningGroup = J;
unicode = 0132;
},
{
glyphname = Iacute;
lastChange = "2015-11-30 00:21:37 +0000";
layers = (
{
layerId = "EA8340D9-3B60-45BA-AE27-149F2EF80A01";
name = "Light Italic";
paths = (
{
closed = 1;
nodes = (
"99 0 LINE",
"247 699 LINE",
"169 699 LINE",
"21 0 LINE"
);
},
{
closed = 1;
nodes = (
"253 742 LINE",
"369 912 LINE",
"288 912 LINE",
"184 742 LINE"
);
}
);
width = 220;
}
);
note = Iacute;
unicode = 00CD;
},
{
glyphname = Ibreve;
lastChange = "2015-11-30 00:21:34 +0000";
layers = (
{
layerId = "EA8340D9-3B60-45BA-AE27-149F2EF80A01";
name = "Light Italic";
paths = (
{
closed = 1;
nodes = (
"99 0 LINE",
"247 699 LINE",
"169 699 LINE",
"21 0 LINE"
);
},
{
closed = 1;
nodes = (
"302 742 OFFCURVE",
"367 797 OFFCURVE",
"383 872 CURVE",
"321 872 LINE",
"312 826 OFFCURVE",
"275 796 OFFCURVE",
"225 796 CURVE SMOOTH",
"175 796 OFFCURVE",
"152 826 OFFCURVE",
"161 872 CURVE",
"104 872 LINE",
"89 797 OFFCURVE",
"131 742 OFFCURVE",
"217 742 CURVE SMOOTH"
);
}
);
width = 220;
}
);
note = Ibreve;
unicode = 012C;
},
{
glyphname = Icaron;
lastChange = "2015-11-30 00:21:34 +0000";
layers = (
{
layerId = "EA8340D9-3B60-45BA-AE27-149F2EF80A01";
name = "Light Italic";
paths = (
{
closed = 1;
nodes = (
"99 0 LINE",
"247 699 LINE",
"169 699 LINE",
"21 0 LINE"
);
},
{
closed = 1;
nodes = (
"250 742 LINE",
"422 903 LINE",
"341 903 LINE",
"224 789 LINE",
"157 903 LINE",
"82 903 LINE",
"183 742 LINE"
);
}
);
width = 220;
}
);
note = Icaron;
unicode = 01CF;
},
{
glyphname = Icircumflex;
lastChange = "2015-11-30 00:21:35 +0000";
layers = (
{
layerId = "EA8340D9-3B60-45BA-AE27-149F2EF80A01";
name = "Light Italic";
paths = (
{
closed = 1;
nodes = (
"99 0 LINE",
"247 699 LINE",
"169 699 LINE",
"21 0 LINE"
);
},
{
closed = 1;
nodes = (
"128 742 LINE",
"244 856 LINE",
"312 742 LINE",
"387 742 LINE",
"284 903 LINE",
"217 903 LINE",
"47 742 LINE"
);
}
);
width = 220;
}
);
note = Icircumflex;
unicode = 00CE;
},
{
glyphname = Idieresis;
lastChange = "2015-11-30 00:21:35 +0000";
layers = (
{
layerId = "EA8340D9-3B60-45BA-AE27-149F2EF80A01";
name = "Light Italic";
paths = (
{
closed = 1;
nodes = (
"99 0 LINE",
"247 699 LINE",
"169 699 LINE",
"21 0 LINE"
);
},
{
closed = 1;
nodes = (
"134 742 OFFCURVE",
"161 764 OFFCURVE",
"167 791 CURVE SMOOTH",
"173 818 OFFCURVE",
"154 840 OFFCURVE",
"128 840 CURVE SMOOTH",
"101 840 OFFCURVE",
"75 818 OFFCURVE",
"69 791 CURVE SMOOTH",
"63 764 OFFCURVE",
"82 742 OFFCURVE",
"108 742 CURVE SMOOTH"
);
},
{
closed = 1;
nodes = (
"351 742 OFFCURVE",
"378 764 OFFCURVE",
"384 791 CURVE SMOOTH",
"390 818 OFFCURVE",
"371 840 OFFCURVE",
"345 840 CURVE SMOOTH",
"318 840 OFFCURVE",
"291 818 OFFCURVE",
"285 791 CURVE SMOOTH",
"279 764 OFFCURVE",
"298 742 OFFCURVE",
"325 742 CURVE SMOOTH"
);
}
);
width = 220;
}
);
note = Idieresis;
unicode = 00CF;
},
{
glyphname = Idotaccent;
lastChange = "2015-11-30 00:21:37 +0000";
layers = (
{
layerId = "EA8340D9-3B60-45BA-AE27-149F2EF80A01";
name = "Light Italic";
paths = (
{
closed = 1;
nodes = (
"99 0 LINE",
"247 699 LINE",
"169 699 LINE",
"21 0 LINE"
);
},
{
closed = 1;
nodes = (
"244 742 OFFCURVE",
"271 764 OFFCURVE",
"277 791 CURVE SMOOTH",
"283 818 OFFCURVE",
"264 840 OFFCURVE",
"238 840 CURVE SMOOTH",
"211 840 OFFCURVE",
"184 818 OFFCURVE",
"178 791 CURVE SMOOTH",
"172 764 OFFCURVE",
"191 742 OFFCURVE",
"218 742 CURVE SMOOTH"
);
}
);
width = 220;
}
);
note = Idotaccent;
unicode = 0130;
},
{
glyphname = Idotbelow;
lastChange = "2015-11-30 00:21:36 +0000";
layers = (
{
layerId = "EA8340D9-3B60-45BA-AE27-149F2EF80A01";
name = "Light Italic";
paths = (
{
closed = 1;
nodes = (
"99 0 LINE",
"247 699 LINE",
"169 699 LINE",
"21 0 LINE"
);
},
{
closed = 1;
nodes = (
"55 -152 OFFCURVE",
"82 -130 OFFCURVE",
"88 -103 CURVE",
"93 -76 OFFCURVE",
"75 -54 OFFCURVE",
"50 -54 CURVE SMOOTH",
"23 -54 OFFCURVE",
"-5 -76 OFFCURVE",
"-10 -103 CURVE",
"-16 -130 OFFCURVE",
"2 -152 OFFCURVE",
"29 -152 CURVE SMOOTH"
);
}
);
width = 220;
}
);
note = Idotbelow;
unicode = 1ECA;
},
{
glyphname = Igrave;
lastChange = "2015-11-30 00:21:36 +0000";
layers = (
{
layerId = "EA8340D9-3B60-45BA-AE27-149F2EF80A01";
name = "Light Italic";
paths = (
{
closed = 1;
nodes = (
"99 0 LINE",
"247 699 LINE",
"169 699 LINE",
"21 0 LINE"
);
},
{
closed = 1;
nodes = (
"253 742 LINE",
"221 912 LINE",
"140 912 LINE",
"184 742 LINE"
);
}
);
width = 220;
}
);
note = Igrave;
unicode = 00CC;
},
{
glyphname = Ihookabove;
lastChange = "2015-11-30 00:21:35 +0000";
layers = (
{
layerId = "EA8340D9-3B60-45BA-AE27-149F2EF80A01";
name = "Light Italic";
paths = (
{
closed = 1;
nodes = (
"99 0 LINE",
"247 699 LINE",
"169 699 LINE",
"21 0 LINE"
);
},
{
closed = 1;
nodes = (
"251 742 LINE",
"258 777 LINE",
"322 783 OFFCURVE",
"362 823 OFFCURVE",
"372 871 CURVE SMOOTH",
"384 926 OFFCURVE",
"344 964 OFFCURVE",
"270 964 CURVE SMOOTH",
"242 964 OFFCURVE",
"210 959 OFFCURVE",
"192 953 CURVE",
"182 908 LINE",
"195 914 OFFCURVE",
"227 918 OFFCURVE",
"244 918 CURVE SMOOTH",
"291 918 OFFCURVE",
"311 903 OFFCURVE",
"304 868 CURVE SMOOTH",
"295 827 OFFCURVE",
"262 810 OFFCURVE",
"198 810 CURVE",
"184 742 LINE"
);
}
);
width = 220;
}
);
note = Ihookabove;
unicode = 1EC8;
},
{
glyphname = Imacron;
lastChange = "2015-11-30 00:21:37 +0000";
layers = (
{
layerId = "EA8340D9-3B60-45BA-AE27-149F2EF80A01";
name = "Light Italic";
paths = (
{
closed = 1;
nodes = (
"99 0 LINE",
"247 699 LINE",
"169 699 LINE",
"21 0 LINE"
);
},
{
closed = 1;
nodes = (
"374 762 LINE",
"386 819 LINE",
"81 819 LINE",
"69 762 LINE"
);
}
);
width = 220;
}
);
note = Imacron;
unicode = 012A;
},
{
glyphname = Iogonek;
lastChange = "2015-11-30 00:21:36 +0000";
layers = (
{
layerId = "EA8340D9-3B60-45BA-AE27-149F2EF80A01";
name = "Light Italic";
paths = (
{
closed = 1;
nodes = (
"99 0 LINE",
"247 699 LINE",
"169 699 LINE",
"21 0 LINE"
);
},
{
closed = 1;
nodes = (
"28 -210 OFFCURVE",
"53 -206 OFFCURVE",
"70 -199 CURVE",
"81 -149 LINE",
"67 -155 OFFCURVE",
"50 -159 OFFCURVE",
"32 -159 CURVE SMOOTH",
"0 -159 OFFCURVE",
"-12 -145 OFFCURVE",
"-5 -112 CURVE SMOOTH",
"4 -69 OFFCURVE",
"39 -34 OFFCURVE",
"97 0 CURVE",
"25 0 LINE",
"-22 -27 OFFCURVE",
"-65 -71 OFFCURVE",
"-76 -123 CURVE SMOOTH",
"-88 -182 OFFCURVE",
"-50 -210 OFFCURVE",
"3 -210 CURVE SMOOTH"
);
}
);
width = 220;
}
);
note = Iogonek;
unicode = 012E;
},
{
glyphname = Itilde;
lastChange = "2015-11-30 00:21:35 +0000";
layers = (
{
layerId = "EA8340D9-3B60-45BA-AE27-149F2EF80A01";
name = "Light Italic";
paths = (
{
closed = 1;
nodes = (
"99 0 LINE",
"247 699 LINE",
"169 699 LINE",
"21 0 LINE"
);
},
{
closed = 1;
nodes = (
"69 783 OFFCURVE",
"103 795 OFFCURVE",
"138 795 CURVE SMOOTH",
"202 795 OFFCURVE",
"235 745 OFFCURVE",
"308 745 CURVE SMOOTH",
"348 745 OFFCURVE",
"384 755 OFFCURVE",
"411 787 CURVE",
"426 856 LINE",
"391 816 OFFCURVE",
"356 804 OFFCURVE",
"320 804 CURVE SMOOTH",
"255 804 OFFCURVE",
"218 854 OFFCURVE",
"150 854 CURVE SMOOTH",
"111 854 OFFCURVE",
"74 843 OFFCURVE",
"46 811 CURVE",
"31 742 LINE"
);
}
);
width = 220;
}
);
note = Itilde;
unicode = 0128;
},
{
glyphname = J;
lastChange = "2015-11-30 00:21:34 +0000";
layers = (
{
layerId = "EA8340D9-3B60-45BA-AE27-149F2EF80A01";
name = "Light Italic";
paths = (
{
closed = 1;
nodes = (
"189 -15 OFFCURVE",
"260 44 OFFCURVE",
"283 155 CURVE SMOOTH",
"399 699 LINE",
"321 699 LINE",
"207 161 LINE SMOOTH",
"191 88 OFFCURVE",
"153 55 OFFCURVE",
"77 55 CURVE SMOOTH",
"52 55 OFFCURVE",
"13 60 OFFCURVE",
"-6 68 CURVE",
"-20 0 LINE",
"0 -9 OFFCURVE",
"41 -15 OFFCURVE",
"76 -15 CURVE SMOOTH"
);
}
);
width = 366;
}
);
note = J;
rightKerningGroup = J;
unicode = 004A;
},
{
glyphname = Jcircumflex;
lastChange = "2015-11-30 00:21:37 +0000";
layers = (
{
layerId = "EA8340D9-3B60-45BA-AE27-149F2EF80A01";
name = "Light Italic";
paths = (
{
closed = 1;
nodes = (
"189 -15 OFFCURVE",
"260 44 OFFCURVE",
"283 155 CURVE SMOOTH",
"399 699 LINE",
"321 699 LINE",
"207 161 LINE SMOOTH",
"191 88 OFFCURVE",
"153 55 OFFCURVE",
"77 55 CURVE SMOOTH",
"52 55 OFFCURVE",
"13 60 OFFCURVE",
"-6 68 CURVE",
"-20 0 LINE",
"0 -9 OFFCURVE",
"41 -15 OFFCURVE",
"76 -15 CURVE SMOOTH"
);
},
{
closed = 1;
nodes = (
"279 742 LINE",
"395 856 LINE",
"463 742 LINE",
"538 742 LINE",
"435 903 LINE",
"368 903 LINE",
"198 742 LINE"
);
}
);
width = 366;
}
);
note = Jcircumflex;
rightKerningGroup = J;
unicode = 0134;
},
{
glyphname = K;
lastChange = "2015-11-30 00:21:34 +0000";
layers = (
{
layerId = "EA8340D9-3B60-45BA-AE27-149F2EF80A01";
name = "Light Italic";
paths = (
{
closed = 1;
nodes = (
"569 0 LINE",
"296 350 LINE",
"702 699 LINE",
"606 699 LINE",
"206 355 LINE",
"479 0 LINE"
);
},
{
closed = 1;
nodes = (
"98 0 LINE",
"246 699 LINE",
"168 699 LINE",
"20 0 LINE"
);
}
);
width = 655;
}
);
leftKerningGroup = K;
note = K;
rightKerningGroup = K;
unicode = 004B;
},
{
glyphname = Kcommaaccent;
lastChange = "2015-11-30 00:21:36 +0000";
layers = (
{
layerId = "EA8340D9-3B60-45BA-AE27-149F2EF80A01";
name = "Light Italic";
paths = (
{
closed = 1;
nodes = (
"569 0 LINE",
"296 350 LINE",
"702 699 LINE",
"606 699 LINE",
"206 355 LINE",
"479 0 LINE"
);
},
{
closed = 1;
nodes = (
"145 -260 LINE",
"278 -63 LINE",
"197 -63 LINE",
"76 -260 LINE"
);
},
{
closed = 1;
nodes = (
"98 0 LINE",
"246 699 LINE",
"168 699 LINE",
"20 0 LINE"
);
}
);
width = 655;
}
);
leftKerningGroup = K;
note = Kcommaaccent;
rightKerningGroup = K;
unicode = 0136;
},
{
glyphname = L;
lastChange = "2015-11-30 00:21:37 +0000";
layers = (
{
layerId = "EA8340D9-3B60-45BA-AE27-149F2EF80A01";
name = "Light Italic";
paths = (
{
closed = 1;
nodes = (
"470 0 LINE",
"484 66 LINE",
"112 66 LINE",
"246 699 LINE",
"168 699 LINE",
"20 0 LINE"
);
}
);
width = 545;
}
);
note = L;
rightKerningGroup = L;
unicode = 004C;
},
{
glyphname = Lacute;
lastChange = "2015-11-30 00:21:35 +0000";
layers = (
{
layerId = "EA8340D9-3B60-45BA-AE27-149F2EF80A01";
name = "Light Italic";
paths = (
{
closed = 1;
nodes = (
"470 0 LINE",
"484 66 LINE",
"112 66 LINE",
"246 699 LINE",
"168 699 LINE",
"20 0 LINE"
);
},
{
closed = 1;
nodes = (
"255 761 LINE",
"371 931 LINE",
"290 931 LINE",
"186 761 LINE"
);
}
);
width = 545;
}
);
note = Lacute;
rightKerningGroup = L;
unicode = 0139;
},
{
glyphname = Lcaron;
lastChange = "2015-11-30 00:21:34 +0000";
layers = (
{
layerId = "EA8340D9-3B60-45BA-AE27-149F2EF80A01";
name = "Light Italic";
paths = (
{
closed = 1;
nodes = (
"470 0 LINE",
"484 66 LINE",
"112 66 LINE",
"246 699 LINE",
"168 699 LINE",
"20 0 LINE"
);
},
{
closed = 1;
nodes = (
"386 502 LINE",
"519 699 LINE",
"438 699 LINE",
"317 502 LINE"
);
}
);
width = 545;
}
);
note = Lcaron;
rightKerningGroup = L;
unicode = 013D;
},
{
glyphname = Lcommaaccent;
lastChange = "2015-11-30 00:21:34 +0000";
layers = (
{
layerId = "EA8340D9-3B60-45BA-AE27-149F2EF80A01";
name = "Light Italic";
paths = (
{
closed = 1;
nodes = (
"470 0 LINE",
"484 66 LINE",
"112 66 LINE",
"246 699 LINE",
"168 699 LINE",
"20 0 LINE"
);
},
{
closed = 1;
nodes = (
"141 -260 LINE",
"274 -63 LINE",
"193 -63 LINE",
"72 -260 LINE"
);
}
);
width = 545;
}
);
note = Lcommaaccent;
rightKerningGroup = L;
unicode = 013B;
},
{
glyphname = Ldot;
lastChange = "2015-11-30 00:21:34 +0000";
layers = (
{
layerId = "EA8340D9-3B60-45BA-AE27-149F2EF80A01";
name = "Light Italic";
paths = (
{
closed = 1;
nodes = (
"470 0 LINE",
"484 66 LINE",
"112 66 LINE",
"246 699 LINE",
"168 699 LINE",
"20 0 LINE"
);
},
{
closed = 1;
nodes = (
"394 330 OFFCURVE",
"421 352 OFFCURVE",
"427 379 CURVE SMOOTH",
"433 406 OFFCURVE",
"414 428 OFFCURVE",
"388 428 CURVE SMOOTH",
"361 428 OFFCURVE",
"334 406 OFFCURVE",
"328 379 CURVE SMOOTH",
"322 352 OFFCURVE",
"341 330 OFFCURVE",
"368 330 CURVE SMOOTH"
);
}
);
width = 545;
}
);
note = Ldot;
rightKerningGroup = L;
unicode = 013F;
},
{
glyphname = Ldotbelow;
lastChange = "2015-11-30 00:21:35 +0000";
layers = (
{
layerId = "EA8340D9-3B60-45BA-AE27-149F2EF80A01";
name = "Light Italic";
paths = (
{
closed = 1;
nodes = (
"470 0 LINE",
"484 66 LINE",
"112 66 LINE",
"246 699 LINE",
"168 699 LINE",
"20 0 LINE"
);
},
{
closed = 1;
nodes = (
"229 -152 OFFCURVE",
"256 -130 OFFCURVE",
"262 -103 CURVE",
"267 -76 OFFCURVE",
"249 -54 OFFCURVE",
"224 -54 CURVE SMOOTH",
"197 -54 OFFCURVE",
"169 -76 OFFCURVE",
"164 -103 CURVE",
"158 -130 OFFCURVE",
"176 -152 OFFCURVE",
"203 -152 CURVE SMOOTH"
);
}
);
width = 545;
}
);
note = Ldotbelow;
rightKerningGroup = L;
unicode = 1E36;
},
{
glyphname = Ldotbelowmacron;
lastChange = "2015-11-30 00:21:35 +0000";
layers = (
{
layerId = "EA8340D9-3B60-45BA-AE27-149F2EF80A01";
name = "Light Italic";
paths = (
{
closed = 1;
nodes = (
"470 0 LINE",
"484 66 LINE",
"112 66 LINE",
"246 699 LINE",
"168 699 LINE",
"20 0 LINE"
);
},
{
closed = 1;
nodes = (
"233 -152 OFFCURVE",
"260 -130 OFFCURVE",
"266 -103 CURVE",
"271 -76 OFFCURVE",
"253 -54 OFFCURVE",
"228 -54 CURVE SMOOTH",
"201 -54 OFFCURVE",
"173 -76 OFFCURVE",
"168 -103 CURVE",
"162 -130 OFFCURVE",
"180 -152 OFFCURVE",
"207 -152 CURVE SMOOTH"
);
},
{
closed = 1;
nodes = (
"488 784 LINE",
"499 838 LINE",
"199 838 LINE",
"188 784 LINE"
);
}
);
width = 545;
}
);
note = Ldotbelowmacron;
rightKerningGroup = L;
unicode = 1E38;
},
{
glyphname = Llinebelow;
lastChange = "2015-11-30 00:21:35 +0000";
layers = (
{
layerId = "EA8340D9-3B60-45BA-AE27-149F2EF80A01";
name = "Light Italic";
paths = (
{
closed = 1;
nodes = (
"470 0 LINE",
"484 66 LINE",
"112 66 LINE",
"246 699 LINE",
"168 699 LINE",
"20 0 LINE"
);
},
{
closed = 1;
nodes = (
"368 -131 LINE",
"380 -74 LINE",
"76 -74 LINE",
"64 -131 LINE"
);
}
);
width = 545;
}
);
note = Llinebelow;
rightKerningGroup = L;
unicode = 1E3A;
},
{
glyphname = Lslash;
lastChange = "2015-11-30 00:21:37 +0000";
layers = (
{
layerId = "EA8340D9-3B60-45BA-AE27-149F2EF80A01";
name = "Light Italic";
paths = (
{
closed = 1;
nodes = (
"530 0 LINE",
"544 66 LINE",
"172 66 LINE",
"231 346 LINE",
"415 421 LINE",
"430 492 LINE",
"246 417 LINE",
"306 699 LINE",
"228 699 LINE",
"161 382 LINE",
"40 333 LINE",
"25 262 LINE",
"146 311 LINE",
"80 0 LINE"
);
}
);
width = 600;
}
);
note = Lslash;
rightKerningGroup = L;
unicode = 0141;
},
{
glyphname = M;
lastChange = "2015-11-30 00:21:37 +0000";
layers = (
{
layerId = "EA8340D9-3B60-45BA-AE27-149F2EF80A01";
name = "Light Italic";
paths = (
{
closed = 1;
nodes = (
"97 0 LINE",
"211 540 LINE",
"344 0 LINE",
"384 0 LINE",
"745 540 LINE",
"631 0 LINE",
"708 0 LINE",
"856 699 LINE",
"773 699 LINE",
"386 122 LINE",
"245 699 LINE",
"168 699 LINE",
"20 0 LINE"
);
}
);
width = 828;
}
);
note = M;
unicode = 004D;
},
{
glyphname = Mdotbelow;
lastChange = "2015-11-30 00:21:37 +0000";
layers = (
{
layerId = "EA8340D9-3B60-45BA-AE27-149F2EF80A01";
name = "Light Italic";
paths = (
{
closed = 1;
nodes = (
"97 0 LINE",
"211 540 LINE",
"344 0 LINE",
"384 0 LINE",
"745 540 LINE",
"631 0 LINE",
"708 0 LINE",
"856 699 LINE",
"773 699 LINE",
"386 122 LINE",
"245 699 LINE",
"168 699 LINE",
"20 0 LINE"
);
},
{
closed = 1;
nodes = (
"359 -152 OFFCURVE",
"386 -130 OFFCURVE",
"392 -103 CURVE",
"397 -76 OFFCURVE",
"379 -54 OFFCURVE",
"354 -54 CURVE SMOOTH",
"327 -54 OFFCURVE",
"299 -76 OFFCURVE",
"294 -103 CURVE",
"288 -130 OFFCURVE",
"306 -152 OFFCURVE",
"333 -152 CURVE SMOOTH"
);
}
);
width = 828;
}
);
note = Mdotbelow;
unicode = 1E42;
},
{
glyphname = N;
lastChange = "2015-11-30 00:21:35 +0000";
layers = (
{
layerId = "EA8340D9-3B60-45BA-AE27-149F2EF80A01";
name = "Light Italic";
paths = (
{
closed = 1;
nodes = (
"98 0 LINE",
"218 567 LINE",
"483 0 LINE",
"558 0 LINE",
"706 699 LINE",
"628 699 LINE",
"508 133 LINE",
"243 699 LINE",
"168 699 LINE",
"20 0 LINE"
);
}
);
width = 678;
}
);
note = N;
unicode = 004E;
},
{
glyphname = Nacute;
lastChange = "2015-11-30 00:21:34 +0000";
layers = (
{
layerId = "EA8340D9-3B60-45BA-AE27-149F2EF80A01";
name = "Light Italic";
paths = (
{
closed = 1;
nodes = (
"98 0 LINE",
"218 567 LINE",
"483 0 LINE",
"558 0 LINE",
"706 699 LINE",
"628 699 LINE",
"508 133 LINE",
"243 699 LINE",
"168 699 LINE",
"20 0 LINE"
);
},
{
closed = 1;
nodes = (
"480 742 LINE",
"596 912 LINE",
"515 912 LINE",
"411 742 LINE"
);
}
);
width = 678;
}
);
note = Nacute;
unicode = 0143;
},
{
glyphname = Ncaron;
lastChange = "2015-11-30 00:21:34 +0000";
layers = (
{
layerId = "EA8340D9-3B60-45BA-AE27-149F2EF80A01";
name = "Light Italic";
paths = (
{
closed = 1;
nodes = (
"98 0 LINE",
"218 567 LINE",
"483 0 LINE",
"558 0 LINE",
"706 699 LINE",
"628 699 LINE",
"508 133 LINE",
"243 699 LINE",
"168 699 LINE",
"20 0 LINE"
);
},
{
closed = 1;
nodes = (
"483 742 LINE",
"655 903 LINE",
"574 903 LINE",
"457 789 LINE",
"390 903 LINE",
"315 903 LINE",
"416 742 LINE"
);
}
);
width = 678;
}
);
note = Ncaron;
unicode = 0147;
},
{
glyphname = Ncommaaccent;
lastChange = "2015-11-30 00:21:34 +0000";
layers = (
{
layerId = "EA8340D9-3B60-45BA-AE27-149F2EF80A01";
name = "Light Italic";
paths = (
{
closed = 1;
nodes = (
"98 0 LINE",
"218 567 LINE",
"483 0 LINE",
"558 0 LINE",
"706 699 LINE",
"628 699 LINE",
"508 133 LINE",
"243 699 LINE",
"168 699 LINE",
"20 0 LINE"
);
},
{
closed = 1;
nodes = (
"201 -260 LINE",
"334 -63 LINE",
"253 -63 LINE",
"132 -260 LINE"
);
}
);
width = 678;
}
);
note = Ncommaaccent;
unicode = 0145;
},
{
glyphname = Ndotaccent;
lastChange = "2015-11-30 00:21:37 +0000";
layers = (
{
layerId = "EA8340D9-3B60-45BA-AE27-149F2EF80A01";
name = "Light Italic";
paths = (
{
closed = 1;
nodes = (
"98 0 LINE",
"218 567 LINE",
"483 0 LINE",
"558 0 LINE",
"706 699 LINE",
"628 699 LINE",
"508 133 LINE",
"243 699 LINE",
"168 699 LINE",
"20 0 LINE"
);
},
{
closed = 1;
nodes = (
"483 742 OFFCURVE",
"510 764 OFFCURVE",
"516 791 CURVE SMOOTH",
"522 818 OFFCURVE",
"503 840 OFFCURVE",
"477 840 CURVE SMOOTH",
"450 840 OFFCURVE",
"423 818 OFFCURVE",
"417 791 CURVE SMOOTH",
"411 764 OFFCURVE",
"430 742 OFFCURVE",
"457 742 CURVE SMOOTH"
);
}
);
width = 678;
}
);
note = Ndotaccent;
unicode = 1E44;
},
{
glyphname = Ndotbelow;
lastChange = "2015-11-30 00:21:36 +0000";
layers = (
{
layerId = "EA8340D9-3B60-45BA-AE27-149F2EF80A01";
name = "Light Italic";
paths = (
{
closed = 1;
nodes = (
"98 0 LINE",
"218 567 LINE",
"483 0 LINE",
"558 0 LINE",
"706 699 LINE",
"628 699 LINE",
"508 133 LINE",
"243 699 LINE",
"168 699 LINE",
"20 0 LINE"
);
},
{
closed = 1;
nodes = (
"289 -152 OFFCURVE",
"316 -130 OFFCURVE",
"322 -103 CURVE",
"327 -76 OFFCURVE",
"309 -54 OFFCURVE",
"284 -54 CURVE SMOOTH",
"257 -54 OFFCURVE",
"229 -76 OFFCURVE",
"224 -103 CURVE",
"218 -130 OFFCURVE",
"236 -152 OFFCURVE",
"263 -152 CURVE SMOOTH"
);
}
);
width = 678;
}
);
note = Ndotbelow;
unicode = 1E46;
},
{
glyphname = Eng;
lastChange = "2015-11-30 00:21:35 +0000";
layers = (
{
layerId = "EA8340D9-3B60-45BA-AE27-149F2EF80A01";
name = "Light Italic";
paths = (
{
closed = 1;
nodes = (
"460 -231 OFFCURVE",
"519 -181 OFFCURVE",
"542 -73 CURVE SMOOTH",
"706 699 LINE",
"628 699 LINE",
"508 133 LINE",
"243 699 LINE",
"168 699 LINE",
"20 0 LINE",
"98 0 LINE",
"218 567 LINE",
"481 3 LINE",
"465 -73 LINE SMOOTH",
"451 -140 OFFCURVE",
"421 -170 OFFCURVE",
"356 -170 CURVE SMOOTH",
"336 -170 OFFCURVE",
"315 -165 OFFCURVE",
"301 -157 CURVE",
"287 -222 LINE",
"304 -228 OFFCURVE",
"325 -231 OFFCURVE",
"354 -231 CURVE SMOOTH"
);
}
);
width = 678;
}
);
note = Eng;
unicode = 014A;
},
{
glyphname = Nlinebelow;
lastChange = "2015-11-30 00:21:36 +0000";
layers = (
{
layerId = "EA8340D9-3B60-45BA-AE27-149F2EF80A01";
name = "Light Italic";
paths = (
{
closed = 1;
nodes = (
"98 0 LINE",
"218 567 LINE",
"483 0 LINE",
"558 0 LINE",
"706 699 LINE",
"628 699 LINE",
"508 133 LINE",
"243 699 LINE",
"168 699 LINE",
"20 0 LINE"
);
},
{
closed = 1;
nodes = (
"426 -131 LINE",
"438 -74 LINE",
"134 -74 LINE",
"122 -131 LINE"
);
}
);
width = 678;
}
);
note = Nlinebelow;
unicode = 1E48;
},
{
glyphname = Ntilde;
lastChange = "2015-11-30 00:21:37 +0000";
layers = (
{
layerId = "EA8340D9-3B60-45BA-AE27-149F2EF80A01";
name = "Light Italic";
paths = (
{
closed = 1;
nodes = (
"98 0 LINE",
"218 567 LINE",
"483 0 LINE",
"558 0 LINE",
"706 699 LINE",
"628 699 LINE",
"508 133 LINE",
"243 699 LINE",
"168 699 LINE",
"20 0 LINE"
);
},
{
closed = 1;
nodes = (
"314 783 OFFCURVE",
"348 795 OFFCURVE",
"383 795 CURVE SMOOTH",
"447 795 OFFCURVE",
"480 745 OFFCURVE",
"553 745 CURVE SMOOTH",
"593 745 OFFCURVE",
"629 755 OFFCURVE",
"656 787 CURVE",
"671 856 LINE",
"636 816 OFFCURVE",
"601 804 OFFCURVE",
"565 804 CURVE SMOOTH",
"500 804 OFFCURVE",
"463 854 OFFCURVE",
"395 854 CURVE SMOOTH",
"356 854 OFFCURVE",
"319 843 OFFCURVE",
"291 811 CURVE",
"276 742 LINE"
);
}
);
width = 678;
}
);
note = Ntilde;
unicode = 00D1;
},
{
glyphname = O;
lastChange = "2015-11-30 00:21:36 +0000";
layers = (
{
layerId = "EA8340D9-3B60-45BA-AE27-149F2EF80A01";
name = "Light Italic";
paths = (
{
closed = 1;
nodes = (
"577 -15 OFFCURVE",
"760 127 OFFCURVE",
"806 349 CURVE SMOOTH",
"851 568 OFFCURVE",
"724 714 OFFCURVE",
"517 714 CURVE SMOOTH",
"302 714 OFFCURVE",
"123 574 OFFCURVE",
"74 349 CURVE SMOOTH",
"27 131 OFFCURVE",
"156 -15 OFFCURVE",
"362 -15 CURVE SMOOTH"
);
},
{
closed = 1;
nodes = (
"195 55 OFFCURVE",
"113 167 OFFCURVE",
"152 349 CURVE SMOOTH",
"190 529 OFFCURVE",
"340 643 OFFCURVE",
"502 643 CURVE SMOOTH",
"684 643 OFFCURVE",
"766 529 OFFCURVE",
"728 349 CURVE SMOOTH",
"689 167 OFFCURVE",
"537 55 OFFCURVE",
"377 55 CURVE SMOOTH"
);
}
);
width = 832;
}
);
leftKerningGroup = O;
note = O;
rightKerningGroup = O;
unicode = 004F;
},
{
glyphname = Oacute;
lastChange = "2015-11-30 00:21:37 +0000";
layers = (
{
layerId = "EA8340D9-3B60-45BA-AE27-149F2EF80A01";
name = "Light Italic";
paths = (
{
closed = 1;
nodes = (
"577 -15 OFFCURVE",
"760 127 OFFCURVE",
"806 349 CURVE SMOOTH",
"851 568 OFFCURVE",
"724 714 OFFCURVE",
"517 714 CURVE SMOOTH",
"302 714 OFFCURVE",
"123 574 OFFCURVE",
"74 349 CURVE SMOOTH",
"27 131 OFFCURVE",
"156 -15 OFFCURVE",
"362 -15 CURVE SMOOTH"
);
},
{
closed = 1;
nodes = (
"195 55 OFFCURVE",
"113 167 OFFCURVE",
"152 349 CURVE SMOOTH",
"190 529 OFFCURVE",
"340 643 OFFCURVE",
"502 643 CURVE SMOOTH",
"684 643 OFFCURVE",
"766 529 OFFCURVE",
"728 349 CURVE SMOOTH",
"689 167 OFFCURVE",
"537 55 OFFCURVE",
"377 55 CURVE SMOOTH"
);
},
{
closed = 1;
nodes = (
"558 742 LINE",
"674 912 LINE",
"593 912 LINE",
"489 742 LINE"
);
}
);
width = 832;
}
);
leftKerningGroup = O;
note = Oacute;
rightKerningGroup = O;
unicode = 00D3;
},
{
glyphname = Obreve;
lastChange = "2015-11-30 00:21:35 +0000";
layers = (
{
layerId = "EA8340D9-3B60-45BA-AE27-149F2EF80A01";
name = "Light Italic";
paths = (
{
closed = 1;
nodes = (
"577 -15 OFFCURVE",
"760 127 OFFCURVE",
"806 349 CURVE SMOOTH",
"851 568 OFFCURVE",
"724 714 OFFCURVE",
"517 714 CURVE SMOOTH",
"302 714 OFFCURVE",
"123 574 OFFCURVE",
"74 349 CURVE SMOOTH",
"27 131 OFFCURVE",
"156 -15 OFFCURVE",
"362 -15 CURVE SMOOTH"
);
},
{
closed = 1;
nodes = (
"195 55 OFFCURVE",
"113 167 OFFCURVE",
"152 349 CURVE SMOOTH",
"190 529 OFFCURVE",
"340 643 OFFCURVE",
"502 643 CURVE SMOOTH",
"684 643 OFFCURVE",
"766 529 OFFCURVE",
"728 349 CURVE SMOOTH",
"689 167 OFFCURVE",
"537 55 OFFCURVE",
"377 55 CURVE SMOOTH"
);
},
{
closed = 1;
nodes = (
"609 742 OFFCURVE",
"674 797 OFFCURVE",
"690 872 CURVE",
"628 872 LINE",
"619 826 OFFCURVE",
"582 796 OFFCURVE",
"532 796 CURVE SMOOTH",
"482 796 OFFCURVE",
"459 826 OFFCURVE",
"468 872 CURVE",
"411 872 LINE",
"396 797 OFFCURVE",
"438 742 OFFCURVE",
"524 742 CURVE SMOOTH"
);
}
);
width = 832;
}
);
leftKerningGroup = O;
note = Obreve;
rightKerningGroup = O;
unicode = 014E;
},
{
glyphname = Ocaron;
lastChange = "2015-11-30 00:21:35 +0000";
layers = (
{
layerId = "EA8340D9-3B60-45BA-AE27-149F2EF80A01";
name = "Light Italic";
paths = (
{
closed = 1;
nodes = (
"577 -15 OFFCURVE",
"760 127 OFFCURVE",
"806 349 CURVE SMOOTH",
"851 568 OFFCURVE",
"724 714 OFFCURVE",
"517 714 CURVE SMOOTH",
"302 714 OFFCURVE",
"123 574 OFFCURVE",
"74 349 CURVE SMOOTH",
"27 131 OFFCURVE",
"156 -15 OFFCURVE",
"362 -15 CURVE SMOOTH"
);
},
{
closed = 1;
nodes = (
"195 55 OFFCURVE",
"113 167 OFFCURVE",
"152 349 CURVE SMOOTH",
"190 529 OFFCURVE",
"340 643 OFFCURVE",
"502 643 CURVE SMOOTH",
"684 643 OFFCURVE",
"766 529 OFFCURVE",
"728 349 CURVE SMOOTH",
"689 167 OFFCURVE",
"537 55 OFFCURVE",
"377 55 CURVE SMOOTH"
);
},
{
closed = 1;
nodes = (
"556 742 LINE",
"728 903 LINE",
"647 903 LINE",
"530 789 LINE",
"463 903 LINE",
"388 903 LINE",
"489 742 LINE"
);
}
);
width = 832;
}
);
leftKerningGroup = O;
note = Ocaron;
rightKerningGroup = O;
unicode = 01D1;
},
{
glyphname = Ocircumflex;
lastChange = "2015-11-30 00:21:36 +0000";
layers = (
{
layerId = "EA8340D9-3B60-45BA-AE27-149F2EF80A01";
name = "Light Italic";
paths = (
{
closed = 1;
nodes = (
"577 -15 OFFCURVE",
"760 127 OFFCURVE",
"806 349 CURVE SMOOTH",
"851 568 OFFCURVE",
"724 714 OFFCURVE",
"517 714 CURVE SMOOTH",
"302 714 OFFCURVE",
"123 574 OFFCURVE",
"74 349 CURVE SMOOTH",
"27 131 OFFCURVE",
"156 -15 OFFCURVE",
"362 -15 CURVE SMOOTH"
);
},
{
closed = 1;
nodes = (
"195 55 OFFCURVE",
"113 167 OFFCURVE",
"152 349 CURVE SMOOTH",
"190 529 OFFCURVE",
"340 643 OFFCURVE",
"502 643 CURVE SMOOTH",
"684 643 OFFCURVE",
"766 529 OFFCURVE",
"728 349 CURVE SMOOTH",
"689 167 OFFCURVE",
"537 55 OFFCURVE",
"377 55 CURVE SMOOTH"
);
},
{
closed = 1;
nodes = (
"435 742 LINE",
"551 856 LINE",
"619 742 LINE",
"694 742 LINE",
"591 903 LINE",
"524 903 LINE",
"354 742 LINE"
);
}
);
width = 832;
}
);
leftKerningGroup = O;
note = Ocircumflex;
rightKerningGroup = O;
unicode = 00D4;
},
{
glyphname = Ocircumflexacute;
lastChange = "2015-11-30 00:21:37 +0000";
layers = (
{
layerId = "EA8340D9-3B60-45BA-AE27-149F2EF80A01";
name = "Light Italic";
paths = (
{
closed = 1;
nodes = (
"577 -15 OFFCURVE",
"760 127 OFFCURVE",
"806 349 CURVE SMOOTH",
"851 568 OFFCURVE",
"724 714 OFFCURVE",
"517 714 CURVE SMOOTH",
"302 714 OFFCURVE",
"123 574 OFFCURVE",
"74 349 CURVE SMOOTH",
"27 131 OFFCURVE",
"156 -15 OFFCURVE",
"362 -15 CURVE SMOOTH"
);
},
{
closed = 1;
nodes = (
"195 55 OFFCURVE",
"113 167 OFFCURVE",
"152 349 CURVE SMOOTH",
"190 529 OFFCURVE",
"340 643 OFFCURVE",
"502 643 CURVE SMOOTH",
"684 643 OFFCURVE",
"766 529 OFFCURVE",
"728 349 CURVE SMOOTH",
"689 167 OFFCURVE",
"537 55 OFFCURVE",
"377 55 CURVE SMOOTH"
);
},
{
closed = 1;
nodes = (
"440 742 LINE",
"553 837 LINE",
"624 742 LINE",
"701 742 LINE",
"595 880 LINE",
"528 880 LINE",
"361 742 LINE"
);
},
{
closed = 1;
nodes = (
"694 845 LINE",
"800 965 LINE",
"736 965 LINE",
"640 845 LINE"
);
}
);
width = 832;
}
);
leftKerningGroup = O;
note = Ocircumflexacute;
rightKerningGroup = O;
unicode = 1ED0;
},
{
glyphname = Ocircumflexdotbelow;
lastChange = "2015-11-30 00:21:35 +0000";
layers = (
{
layerId = "EA8340D9-3B60-45BA-AE27-149F2EF80A01";
name = "Light Italic";
paths = (
{
closed = 1;
nodes = (
"577 -15 OFFCURVE",
"760 127 OFFCURVE",
"806 349 CURVE SMOOTH",
"851 568 OFFCURVE",
"724 714 OFFCURVE",
"517 714 CURVE SMOOTH",
"302 714 OFFCURVE",
"123 574 OFFCURVE",
"74 349 CURVE SMOOTH",
"27 131 OFFCURVE",
"156 -15 OFFCURVE",
"362 -15 CURVE SMOOTH"
);
},
{
closed = 1;
nodes = (
"361 -152 OFFCURVE",
"388 -130 OFFCURVE",
"394 -103 CURVE",
"399 -76 OFFCURVE",
"381 -54 OFFCURVE",
"356 -54 CURVE SMOOTH",
"329 -54 OFFCURVE",
"301 -76 OFFCURVE",
"296 -103 CURVE",
"290 -130 OFFCURVE",
"308 -152 OFFCURVE",
"335 -152 CURVE SMOOTH"
);
},
{
closed = 1;
nodes = (
"195 55 OFFCURVE",
"113 167 OFFCURVE",
"152 349 CURVE SMOOTH",
"190 529 OFFCURVE",
"340 643 OFFCURVE",
"502 643 CURVE SMOOTH",
"684 643 OFFCURVE",
"766 529 OFFCURVE",
"728 349 CURVE SMOOTH",
"689 167 OFFCURVE",
"537 55 OFFCURVE",
"377 55 CURVE SMOOTH"
);
},
{
closed = 1;
nodes = (
"434 742 LINE",
"550 856 LINE",
"618 742 LINE",
"693 742 LINE",
"590 903 LINE",
"523 903 LINE",
"353 742 LINE"
);
}
);
width = 832;
}
);
leftKerningGroup = O;
note = Ocircumflexdotbelow;
rightKerningGroup = O;
unicode = 1ED8;
},
{
glyphname = Ocircumflexgrave;
lastChange = "2015-11-30 00:21:37 +0000";
layers = (
{
layerId = "EA8340D9-3B60-45BA-AE27-149F2EF80A01";
name = "Light Italic";
paths = (
{
closed = 1;
nodes = (
"578 -15 OFFCURVE",
"761 127 OFFCURVE",
"807 349 CURVE SMOOTH",
"852 568 OFFCURVE",
"725 714 OFFCURVE",
"518 714 CURVE SMOOTH",
"303 714 OFFCURVE",
"124 574 OFFCURVE",
"75 349 CURVE SMOOTH",
"28 131 OFFCURVE",
"157 -15 OFFCURVE",
"363 -15 CURVE SMOOTH"
);
},
{
closed = 1;
nodes = (
"196 55 OFFCURVE",
"114 167 OFFCURVE",
"153 349 CURVE SMOOTH",
"191 529 OFFCURVE",
"341 643 OFFCURVE",
"503 643 CURVE SMOOTH",
"685 643 OFFCURVE",
"767 529 OFFCURVE",
"729 349 CURVE SMOOTH",
"690 167 OFFCURVE",
"538 55 OFFCURVE",
"378 55 CURVE SMOOTH"
);
},
{
closed = 1;
nodes = (
"443 845 LINE",
"398 965 LINE",
"334 965 LINE",
"389 845 LINE"
);
},
{
closed = 1;
nodes = (
"415 742 LINE",
"528 837 LINE",
"599 742 LINE",
"677 742 LINE",
"571 880 LINE",
"504 880 LINE",
"337 742 LINE"
);
}
);
width = 832;
}
);
leftKerningGroup = O;
note = Ocircumflexgrave;
rightKerningGroup = O;
unicode = 1ED2;
},
{
glyphname = Ocircumflexhookabove;
lastChange = "2015-11-30 00:21:35 +0000";
layers = (
{
layerId = "EA8340D9-3B60-45BA-AE27-149F2EF80A01";
name = "Light Italic";
paths = (
{
closed = 1;
nodes = (
"577 -15 OFFCURVE",
"760 127 OFFCURVE",
"806 349 CURVE SMOOTH",
"851 568 OFFCURVE",
"724 714 OFFCURVE",
"517 714 CURVE SMOOTH",
"302 714 OFFCURVE",
"123 574 OFFCURVE",
"74 349 CURVE SMOOTH",
"27 131 OFFCURVE",
"156 -15 OFFCURVE",
"362 -15 CURVE SMOOTH"
);
},
{
closed = 1;
nodes = (
"195 55 OFFCURVE",
"113 167 OFFCURVE",
"152 349 CURVE SMOOTH",
"190 529 OFFCURVE",
"340 643 OFFCURVE",
"502 643 CURVE SMOOTH",
"684 643 OFFCURVE",
"766 529 OFFCURVE",
"728 349 CURVE SMOOTH",
"689 167 OFFCURVE",
"537 55 OFFCURVE",
"377 55 CURVE SMOOTH"
);
},
{
closed = 1;
nodes = (
"427 742 LINE",
"540 837 LINE",
"611 742 LINE",
"689 742 LINE",
"583 880 LINE",
"516 880 LINE",
"349 742 LINE"
);
},
{
closed = 1;
nodes = (
"681 838 LINE",
"686 863 LINE",
"730 869 OFFCURVE",
"760 896 OFFCURVE",
"767 928 CURVE SMOOTH",
"775 968 OFFCURVE",
"752 994 OFFCURVE",
"697 994 CURVE SMOOTH",
"676 994 OFFCURVE",
"650 990 OFFCURVE",
"636 985 CURVE",
"628 949 LINE",
"639 954 OFFCURVE",
"658 957 OFFCURVE",
"674 957 CURVE SMOOTH",
"703 957 OFFCURVE",
"716 946 OFFCURVE",
"711 924 CURVE SMOOTH",
"706 900 OFFCURVE",
"684 888 OFFCURVE",
"642 888 CURVE",
"632 838 LINE"
);
}
);
width = 832;
}
);
leftKerningGroup = O;
note = Ocircumflexhookabove;
rightKerningGroup = O;
unicode = 1ED4;
},
{
glyphname = Ocircumflextilde;
lastChange = "2015-11-30 00:21:37 +0000";
layers = (
{
layerId = "EA8340D9-3B60-45BA-AE27-149F2EF80A01";
name = "Light Italic";
paths = (
{
closed = 1;
nodes = (
"577 -15 OFFCURVE",
"760 127 OFFCURVE",
"806 349 CURVE SMOOTH",
"851 568 OFFCURVE",
"724 714 OFFCURVE",
"517 714 CURVE SMOOTH",
"302 714 OFFCURVE",
"123 574 OFFCURVE",
"74 349 CURVE SMOOTH",
"27 131 OFFCURVE",
"156 -15 OFFCURVE",
"362 -15 CURVE SMOOTH"
);
},
{
closed = 1;
nodes = (
"195 55 OFFCURVE",
"113 167 OFFCURVE",
"152 349 CURVE SMOOTH",
"190 529 OFFCURVE",
"340 643 OFFCURVE",
"502 643 CURVE SMOOTH",
"684 643 OFFCURVE",
"766 529 OFFCURVE",
"728 349 CURVE SMOOTH",
"689 167 OFFCURVE",
"537 55 OFFCURVE",
"377 55 CURVE SMOOTH"
);
},
{
closed = 1;
nodes = (
"613 742 OFFCURVE",
"678 796 OFFCURVE",
"693 870 CURVE",
"637 870 LINE",
"627 824 OFFCURVE",
"591 794 OFFCURVE",
"541 794 CURVE SMOOTH",
"491 794 OFFCURVE",
"467 824 OFFCURVE",
"477 870 CURVE",
"420 870 LINE",
"404 796 OFFCURVE",
"445 742 OFFCURVE",
"529 742 CURVE SMOOTH"
);
},
{
closed = 1;
nodes = (
"426 922 OFFCURVE",
"455 932 OFFCURVE",
"485 932 CURVE SMOOTH",
"541 932 OFFCURVE",
"571 889 OFFCURVE",
"635 889 CURVE SMOOTH",
"670 889 OFFCURVE",
"700 897 OFFCURVE",
"724 925 CURVE",
"737 986 LINE",
"706 951 OFFCURVE",
"677 940 OFFCURVE",
"646 940 CURVE SMOOTH",
"589 940 OFFCURVE",
"556 984 OFFCURVE",
"496 984 CURVE SMOOTH",
"462 984 OFFCURVE",
"430 975 OFFCURVE",
"405 947 CURVE",
"392 886 LINE"
);
}
);
width = 832;
}
);
leftKerningGroup = O;
note = Ocircumflextilde;
rightKerningGroup = O;
unicode = 1ED6;
},
{
glyphname = Odieresis;
lastChange = "2015-11-30 00:21:35 +0000";
layers = (
{
layerId = "EA8340D9-3B60-45BA-AE27-149F2EF80A01";
name = "Light Italic";
paths = (
{
closed = 1;
nodes = (
"577 -15 OFFCURVE",
"760 127 OFFCURVE",
"806 349 CURVE SMOOTH",
"851 568 OFFCURVE",
"724 714 OFFCURVE",
"517 714 CURVE SMOOTH",
"302 714 OFFCURVE",
"123 574 OFFCURVE",
"74 349 CURVE SMOOTH",
"27 131 OFFCURVE",
"156 -15 OFFCURVE",
"362 -15 CURVE SMOOTH"
);
},
{
closed = 1;
nodes = (
"195 55 OFFCURVE",
"113 167 OFFCURVE",
"152 349 CURVE SMOOTH",
"190 529 OFFCURVE",
"340 643 OFFCURVE",
"502 643 CURVE SMOOTH",
"684 643 OFFCURVE",
"766 529 OFFCURVE",
"728 349 CURVE SMOOTH",
"689 167 OFFCURVE",
"537 55 OFFCURVE",
"377 55 CURVE SMOOTH"
);
},
{
closed = 1;
nodes = (
"441 742 OFFCURVE",
"468 764 OFFCURVE",
"474 791 CURVE SMOOTH",
"480 818 OFFCURVE",
"461 840 OFFCURVE",
"435 840 CURVE SMOOTH",
"408 840 OFFCURVE",
"382 818 OFFCURVE",
"376 791 CURVE SMOOTH",
"370 764 OFFCURVE",
"389 742 OFFCURVE",
"415 742 CURVE SMOOTH"
);
},
{
closed = 1;
nodes = (
"658 742 OFFCURVE",
"685 764 OFFCURVE",
"691 791 CURVE SMOOTH",
"697 818 OFFCURVE",
"678 840 OFFCURVE",
"652 840 CURVE SMOOTH",
"625 840 OFFCURVE",
"598 818 OFFCURVE",
"592 791 CURVE SMOOTH",
"586 764 OFFCURVE",
"605 742 OFFCURVE",
"632 742 CURVE SMOOTH"
);
}
);
width = 832;
}
);
leftKerningGroup = O;
note = Odieresis;
rightKerningGroup = O;
unicode = 00D6;
},
{
glyphname = Odotbelow;
lastChange = "2015-11-30 00:21:34 +0000";
layers = (
{
layerId = "EA8340D9-3B60-45BA-AE27-149F2EF80A01";
name = "Light Italic";
paths = (
{
closed = 1;
nodes = (
"577 -15 OFFCURVE",
"760 127 OFFCURVE",
"806 349 CURVE SMOOTH",
"851 568 OFFCURVE",
"724 714 OFFCURVE",
"517 714 CURVE SMOOTH",
"302 714 OFFCURVE",
"123 574 OFFCURVE",
"74 349 CURVE SMOOTH",
"27 131 OFFCURVE",
"156 -15 OFFCURVE",
"362 -15 CURVE SMOOTH"
);
},
{
closed = 1;
nodes = (
"361 -152 OFFCURVE",
"388 -130 OFFCURVE",
"394 -103 CURVE",
"399 -76 OFFCURVE",
"381 -54 OFFCURVE",
"356 -54 CURVE SMOOTH",
"329 -54 OFFCURVE",
"301 -76 OFFCURVE",
"296 -103 CURVE",
"290 -130 OFFCURVE",
"308 -152 OFFCURVE",
"335 -152 CURVE SMOOTH"
);
},
{
closed = 1;
nodes = (
"195 55 OFFCURVE",
"113 167 OFFCURVE",
"152 349 CURVE SMOOTH",
"190 529 OFFCURVE",
"340 643 OFFCURVE",
"502 643 CURVE SMOOTH",
"684 643 OFFCURVE",
"766 529 OFFCURVE",
"728 349 CURVE SMOOTH",
"689 167 OFFCURVE",
"537 55 OFFCURVE",
"377 55 CURVE SMOOTH"
);
}
);
width = 832;
}
);
leftKerningGroup = O;
note = Odotbelow;
rightKerningGroup = O;
unicode = 1ECC;
},
{
glyphname = Ograve;
lastChange = "2015-11-30 00:21:37 +0000";
layers = (
{
layerId = "EA8340D9-3B60-45BA-AE27-149F2EF80A01";
name = "Light Italic";
paths = (
{
closed = 1;
nodes = (
"577 -15 OFFCURVE",
"760 127 OFFCURVE",
"806 349 CURVE SMOOTH",
"851 568 OFFCURVE",
"724 714 OFFCURVE",
"517 714 CURVE SMOOTH",
"302 714 OFFCURVE",
"123 574 OFFCURVE",
"74 349 CURVE SMOOTH",
"27 131 OFFCURVE",
"156 -15 OFFCURVE",
"362 -15 CURVE SMOOTH"
);
},
{
closed = 1;
nodes = (
"195 55 OFFCURVE",
"113 167 OFFCURVE",
"152 349 CURVE SMOOTH",
"190 529 OFFCURVE",
"340 643 OFFCURVE",
"502 643 CURVE SMOOTH",
"684 643 OFFCURVE",
"766 529 OFFCURVE",
"728 349 CURVE SMOOTH",
"689 167 OFFCURVE",
"537 55 OFFCURVE",
"377 55 CURVE SMOOTH"
);
},
{
closed = 1;
nodes = (
"571 742 LINE",
"539 912 LINE",
"458 912 LINE",
"502 742 LINE"
);
}
);
width = 832;
}
);
leftKerningGroup = O;
note = Ograve;
rightKerningGroup = O;
unicode = 00D2;
},
{
glyphname = Ohookabove;
lastChange = "2015-11-30 00:21:36 +0000";
layers = (
{
layerId = "EA8340D9-3B60-45BA-AE27-149F2EF80A01";
name = "Light Italic";
paths = (
{
closed = 1;
nodes = (
"577 -15 OFFCURVE",
"760 127 OFFCURVE",
"806 349 CURVE SMOOTH",
"851 568 OFFCURVE",
"724 714 OFFCURVE",
"517 714 CURVE SMOOTH",
"302 714 OFFCURVE",
"123 574 OFFCURVE",
"74 349 CURVE SMOOTH",
"27 131 OFFCURVE",
"156 -15 OFFCURVE",
"362 -15 CURVE SMOOTH"
);
},
{
closed = 1;
nodes = (
"195 55 OFFCURVE",
"113 167 OFFCURVE",
"152 349 CURVE SMOOTH",
"190 529 OFFCURVE",
"340 643 OFFCURVE",
"502 643 CURVE SMOOTH",
"684 643 OFFCURVE",
"766 529 OFFCURVE",
"728 349 CURVE SMOOTH",
"689 167 OFFCURVE",
"537 55 OFFCURVE",
"377 55 CURVE SMOOTH"
);
},
{
closed = 1;
nodes = (
"559 742 LINE",
"566 777 LINE",
"630 783 OFFCURVE",
"670 823 OFFCURVE",
"680 871 CURVE SMOOTH",
"692 926 OFFCURVE",
"652 964 OFFCURVE",
"578 964 CURVE SMOOTH",
"550 964 OFFCURVE",
"518 959 OFFCURVE",
"500 953 CURVE",
"490 908 LINE",
"503 914 OFFCURVE",
"535 918 OFFCURVE",
"552 918 CURVE SMOOTH",
"599 918 OFFCURVE",
"619 903 OFFCURVE",
"612 868 CURVE SMOOTH",
"603 827 OFFCURVE",
"570 810 OFFCURVE",
"506 810 CURVE",
"492 742 LINE"
);
}
);
width = 832;
}
);
leftKerningGroup = O;
note = Ohookabove;
rightKerningGroup = O;
unicode = 1ECE;
},
{
glyphname = Ohorn;
lastChange = "2015-11-30 00:21:36 +0000";
layers = (
{
layerId = "EA8340D9-3B60-45BA-AE27-149F2EF80A01";
name = "Light Italic";
paths = (
{
closed = 1;
nodes = (
"590 -15 OFFCURVE",
"759 131 OFFCURVE",
"806 349 CURVE SMOOTH",
"824 433 OFFCURVE",
"815 507 OFFCURVE",
"787 566 CURVE",
"857 583 OFFCURVE",
"914 641 OFFCURVE",
"928 707 CURVE SMOOTH",
"936 747 LINE",
"865 747 LINE",
"858 711 LINE SMOOTH",
"846 655 OFFCURVE",
"809 624 OFFCURVE",
"748 623 CURVE",
"696 681 OFFCURVE",
"616 714 OFFCURVE",
"517 714 CURVE SMOOTH",
"291 714 OFFCURVE",
"120 568 OFFCURVE",
"74 349 CURVE SMOOTH",
"27 131 OFFCURVE",
"154 -15 OFFCURVE",
"362 -15 CURVE SMOOTH"
);
},
{
closed = 1;
nodes = (
"198 55 OFFCURVE",
"113 167 OFFCURVE",
"152 349 CURVE SMOOTH",
"190 529 OFFCURVE",
"340 643 OFFCURVE",
"502 643 CURVE SMOOTH",
"684 643 OFFCURVE",
"766 529 OFFCURVE",
"728 349 CURVE SMOOTH",
"689 167 OFFCURVE",
"537 55 OFFCURVE",
"377 55 CURVE SMOOTH"
);
}
);
width = 853;
}
);
leftKerningGroup = O;
note = Ohorn;
rightKerningGroup = O;
unicode = 01A0;
},
{
glyphname = Ohornacute;
lastChange = "2015-11-30 00:21:35 +0000";
layers = (
{
layerId = "EA8340D9-3B60-45BA-AE27-149F2EF80A01";
name = "Light Italic";
paths = (
{
closed = 1;
nodes = (
"590 -15 OFFCURVE",
"759 131 OFFCURVE",
"806 349 CURVE SMOOTH",
"824 433 OFFCURVE",
"815 507 OFFCURVE",
"787 566 CURVE",
"857 583 OFFCURVE",
"914 641 OFFCURVE",
"928 707 CURVE SMOOTH",
"936 747 LINE",
"865 747 LINE",
"858 711 LINE SMOOTH",
"846 655 OFFCURVE",
"809 624 OFFCURVE",
"748 623 CURVE",
"696 681 OFFCURVE",
"616 714 OFFCURVE",
"517 714 CURVE SMOOTH",
"291 714 OFFCURVE",
"120 568 OFFCURVE",
"74 349 CURVE SMOOTH",
"27 131 OFFCURVE",
"154 -15 OFFCURVE",
"362 -15 CURVE SMOOTH"
);
},
{
closed = 1;
nodes = (
"198 55 OFFCURVE",
"113 167 OFFCURVE",
"152 349 CURVE SMOOTH",
"190 529 OFFCURVE",
"340 643 OFFCURVE",
"502 643 CURVE SMOOTH",
"684 643 OFFCURVE",
"766 529 OFFCURVE",
"728 349 CURVE SMOOTH",
"689 167 OFFCURVE",
"537 55 OFFCURVE",
"377 55 CURVE SMOOTH"
);
},
{
closed = 1;
nodes = (
"564 742 LINE",
"680 912 LINE",
"599 912 LINE",
"495 742 LINE"
);
}
);
width = 853;
}
);
leftKerningGroup = O;
note = Ohornacute;
rightKerningGroup = O;
unicode = 1EDA;
},
{
glyphname = Ohorndotbelow;
lastChange = "2015-11-30 00:21:36 +0000";
layers = (
{
layerId = "EA8340D9-3B60-45BA-AE27-149F2EF80A01";
name = "Light Italic";
paths = (
{
closed = 1;
nodes = (
"590 -15 OFFCURVE",
"759 131 OFFCURVE",
"806 349 CURVE SMOOTH",
"824 433 OFFCURVE",
"815 507 OFFCURVE",
"787 566 CURVE",
"857 583 OFFCURVE",
"914 641 OFFCURVE",
"928 707 CURVE SMOOTH",
"936 747 LINE",
"865 747 LINE",
"858 711 LINE SMOOTH",
"846 655 OFFCURVE",
"809 624 OFFCURVE",
"748 623 CURVE",
"696 681 OFFCURVE",
"616 714 OFFCURVE",
"517 714 CURVE SMOOTH",
"291 714 OFFCURVE",
"120 568 OFFCURVE",
"74 349 CURVE SMOOTH",
"27 131 OFFCURVE",
"154 -15 OFFCURVE",
"362 -15 CURVE SMOOTH"
);
},
{
closed = 1;
nodes = (
"361 -152 OFFCURVE",
"388 -130 OFFCURVE",
"394 -103 CURVE",
"399 -76 OFFCURVE",
"381 -54 OFFCURVE",
"356 -54 CURVE SMOOTH",
"329 -54 OFFCURVE",
"301 -76 OFFCURVE",
"296 -103 CURVE",
"290 -130 OFFCURVE",
"308 -152 OFFCURVE",
"335 -152 CURVE SMOOTH"
);
},
{
closed = 1;
nodes = (
"198 55 OFFCURVE",
"113 167 OFFCURVE",
"152 349 CURVE SMOOTH",
"190 529 OFFCURVE",
"340 643 OFFCURVE",
"502 643 CURVE SMOOTH",
"684 643 OFFCURVE",
"766 529 OFFCURVE",
"728 349 CURVE SMOOTH",
"689 167 OFFCURVE",
"537 55 OFFCURVE",
"377 55 CURVE SMOOTH"
);
}
);
width = 853;
}
);
leftKerningGroup = O;
note = Ohorndotbelow;
rightKerningGroup = O;
unicode = 1EE2;
},
{
glyphname = Ohorngrave;
lastChange = "2015-11-30 00:21:36 +0000";
layers = (
{
layerId = "EA8340D9-3B60-45BA-AE27-149F2EF80A01";
name = "Light Italic";
paths = (
{
closed = 1;
nodes = (
"590 -15 OFFCURVE",
"759 131 OFFCURVE",
"806 349 CURVE SMOOTH",
"824 433 OFFCURVE",
"815 507 OFFCURVE",
"787 566 CURVE",
"857 583 OFFCURVE",
"914 641 OFFCURVE",
"928 707 CURVE SMOOTH",
"936 747 LINE",
"865 747 LINE",
"858 711 LINE SMOOTH",
"846 655 OFFCURVE",
"809 624 OFFCURVE",
"748 623 CURVE",
"696 681 OFFCURVE",
"616 714 OFFCURVE",
"517 714 CURVE SMOOTH",
"291 714 OFFCURVE",
"120 568 OFFCURVE",
"74 349 CURVE SMOOTH",
"27 131 OFFCURVE",
"154 -15 OFFCURVE",
"362 -15 CURVE SMOOTH"
);
},
{
closed = 1;
nodes = (
"198 55 OFFCURVE",
"113 167 OFFCURVE",
"152 349 CURVE SMOOTH",
"190 529 OFFCURVE",
"340 643 OFFCURVE",
"502 643 CURVE SMOOTH",
"684 643 OFFCURVE",
"766 529 OFFCURVE",
"728 349 CURVE SMOOTH",
"689 167 OFFCURVE",
"537 55 OFFCURVE",
"377 55 CURVE SMOOTH"
);
},
{
closed = 1;
nodes = (
"560 742 LINE",
"528 912 LINE",
"447 912 LINE",
"491 742 LINE"
);
}
);
width = 853;
}
);
leftKerningGroup = O;
note = Ohorngrave;
rightKerningGroup = O;
unicode = 1EDC;
},
{
glyphname = Ohornhookabove;
lastChange = "2015-11-30 00:21:34 +0000";
layers = (
{
layerId = "EA8340D9-3B60-45BA-AE27-149F2EF80A01";
name = "Light Italic";
paths = (
{
closed = 1;
nodes = (
"590 -15 OFFCURVE",
"759 131 OFFCURVE",
"806 349 CURVE SMOOTH",
"824 433 OFFCURVE",
"815 507 OFFCURVE",
"787 566 CURVE",
"857 583 OFFCURVE",
"914 641 OFFCURVE",
"928 707 CURVE SMOOTH",
"936 747 LINE",
"865 747 LINE",
"858 711 LINE SMOOTH",
"846 655 OFFCURVE",
"809 624 OFFCURVE",
"748 623 CURVE",
"696 681 OFFCURVE",
"616 714 OFFCURVE",
"517 714 CURVE SMOOTH",
"291 714 OFFCURVE",
"120 568 OFFCURVE",
"74 349 CURVE SMOOTH",
"27 131 OFFCURVE",
"154 -15 OFFCURVE",
"362 -15 CURVE SMOOTH"
);
},
{
closed = 1;
nodes = (
"198 55 OFFCURVE",
"113 167 OFFCURVE",
"152 349 CURVE SMOOTH",
"190 529 OFFCURVE",
"340 643 OFFCURVE",
"502 643 CURVE SMOOTH",
"684 643 OFFCURVE",
"766 529 OFFCURVE",
"728 349 CURVE SMOOTH",
"689 167 OFFCURVE",
"537 55 OFFCURVE",
"377 55 CURVE SMOOTH"
);
},
{
closed = 1;
nodes = (
"560 742 LINE",
"567 777 LINE",
"631 783 OFFCURVE",
"671 823 OFFCURVE",
"681 871 CURVE SMOOTH",
"693 926 OFFCURVE",
"653 964 OFFCURVE",
"579 964 CURVE SMOOTH",
"551 964 OFFCURVE",
"519 959 OFFCURVE",
"501 953 CURVE",
"491 908 LINE",
"504 914 OFFCURVE",
"536 918 OFFCURVE",
"553 918 CURVE SMOOTH",
"600 918 OFFCURVE",
"620 903 OFFCURVE",
"613 868 CURVE SMOOTH",
"604 827 OFFCURVE",
"571 810 OFFCURVE",
"507 810 CURVE",
"493 742 LINE"
);
}
);
width = 853;
}
);
leftKerningGroup = O;
note = Ohornhookabove;
rightKerningGroup = O;
unicode = 1EDE;
},
{
glyphname = Ohorntilde;
lastChange = "2015-11-30 00:21:36 +0000";
layers = (
{
layerId = "EA8340D9-3B60-45BA-AE27-149F2EF80A01";
name = "Light Italic";
paths = (
{
closed = 1;
nodes = (
"590 -15 OFFCURVE",
"759 131 OFFCURVE",
"806 349 CURVE SMOOTH",
"824 433 OFFCURVE",
"815 507 OFFCURVE",
"787 566 CURVE",
"857 583 OFFCURVE",
"914 641 OFFCURVE",
"928 707 CURVE SMOOTH",
"936 747 LINE",
"865 747 LINE",
"858 711 LINE SMOOTH",
"846 655 OFFCURVE",
"809 624 OFFCURVE",
"748 623 CURVE",
"696 681 OFFCURVE",
"616 714 OFFCURVE",
"517 714 CURVE SMOOTH",
"291 714 OFFCURVE",
"120 568 OFFCURVE",
"74 349 CURVE SMOOTH",
"27 131 OFFCURVE",
"154 -15 OFFCURVE",
"362 -15 CURVE SMOOTH"
);
},
{
closed = 1;
nodes = (
"198 55 OFFCURVE",
"113 167 OFFCURVE",
"152 349 CURVE SMOOTH",
"190 529 OFFCURVE",
"340 643 OFFCURVE",
"502 643 CURVE SMOOTH",
"684 643 OFFCURVE",
"766 529 OFFCURVE",
"728 349 CURVE SMOOTH",
"689 167 OFFCURVE",
"537 55 OFFCURVE",
"377 55 CURVE SMOOTH"
);
},
{
closed = 1;
nodes = (
"398 783 OFFCURVE",
"432 795 OFFCURVE",
"467 795 CURVE SMOOTH",
"531 795 OFFCURVE",
"564 745 OFFCURVE",
"637 745 CURVE SMOOTH",
"677 745 OFFCURVE",
"713 755 OFFCURVE",
"740 787 CURVE",
"755 856 LINE",
"720 816 OFFCURVE",
"685 804 OFFCURVE",
"649 804 CURVE SMOOTH",
"584 804 OFFCURVE",
"547 854 OFFCURVE",
"479 854 CURVE SMOOTH",
"440 854 OFFCURVE",
"403 843 OFFCURVE",
"375 811 CURVE",
"360 742 LINE"
);
}
);
width = 853;
}
);
leftKerningGroup = O;
note = Ohorntilde;
rightKerningGroup = O;
unicode = 1EE0;
},
{
glyphname = Ohungarumlaut;
lastChange = "2015-11-30 00:21:36 +0000";
layers = (
{
layerId = "EA8340D9-3B60-45BA-AE27-149F2EF80A01";
name = "Light Italic";
paths = (
{
closed = 1;
nodes = (
"577 -15 OFFCURVE",
"760 127 OFFCURVE",
"806 349 CURVE SMOOTH",
"851 568 OFFCURVE",
"724 714 OFFCURVE",
"517 714 CURVE SMOOTH",
"302 714 OFFCURVE",
"123 574 OFFCURVE",
"74 349 CURVE SMOOTH",
"27 131 OFFCURVE",
"156 -15 OFFCURVE",
"362 -15 CURVE SMOOTH"
);
},
{
closed = 1;
nodes = (
"195 55 OFFCURVE",
"113 167 OFFCURVE",
"152 349 CURVE SMOOTH",
"190 529 OFFCURVE",
"340 643 OFFCURVE",
"502 643 CURVE SMOOTH",
"684 643 OFFCURVE",
"766 529 OFFCURVE",
"728 349 CURVE SMOOTH",
"689 167 OFFCURVE",
"537 55 OFFCURVE",
"377 55 CURVE SMOOTH"
);
},
{
closed = 1;
nodes = (
"454 742 LINE",
"570 912 LINE",
"489 912 LINE",
"386 742 LINE"
);
},
{
closed = 1;
nodes = (
"644 742 LINE",
"760 912 LINE",
"679 912 LINE",
"575 742 LINE"
);
}
);
width = 832;
}
);
leftKerningGroup = O;
note = Ohungarumlaut;
rightKerningGroup = O;
unicode = 0150;
},
{
glyphname = Omacron;
lastChange = "2015-11-30 00:21:36 +0000";
layers = (
{
layerId = "EA8340D9-3B60-45BA-AE27-149F2EF80A01";
name = "Light Italic";
paths = (
{
closed = 1;
nodes = (
"577 -15 OFFCURVE",
"760 127 OFFCURVE",
"806 349 CURVE SMOOTH",
"851 568 OFFCURVE",
"724 714 OFFCURVE",
"517 714 CURVE SMOOTH",
"302 714 OFFCURVE",
"123 574 OFFCURVE",
"74 349 CURVE SMOOTH",
"27 131 OFFCURVE",
"156 -15 OFFCURVE",
"362 -15 CURVE SMOOTH"
);
},
{
closed = 1;
nodes = (
"195 55 OFFCURVE",
"113 167 OFFCURVE",
"152 349 CURVE SMOOTH",
"190 529 OFFCURVE",
"340 643 OFFCURVE",
"502 643 CURVE SMOOTH",
"684 643 OFFCURVE",
"766 529 OFFCURVE",
"728 349 CURVE SMOOTH",
"689 167 OFFCURVE",
"537 55 OFFCURVE",
"377 55 CURVE SMOOTH"
);
},
{
closed = 1;
nodes = (
"678 762 LINE",
"689 816 LINE",
"389 816 LINE",
"378 762 LINE"
);
}
);
width = 832;
}
);
leftKerningGroup = O;
note = Omacron;
rightKerningGroup = O;
unicode = 014C;
},
{
glyphname = Oslash;
lastChange = "2015-11-30 00:21:34 +0000";
layers = (
{
layerId = "EA8340D9-3B60-45BA-AE27-149F2EF80A01";
name = "Light Italic";
paths = (
{
closed = 1;
nodes = (
"214 -86 LINE",
"265 -2 LINE",
"295 -10 OFFCURVE",
"327 -15 OFFCURVE",
"362 -15 CURVE SMOOTH",
"583 -15 OFFCURVE",
"759 131 OFFCURVE",
"806 349 CURVE SMOOTH",
"837 500 OFFCURVE",
"783 616 OFFCURVE",
"681 673 CURVE",
"749 784 LINE",
"673 784 LINE",
"621 699 LINE",
"589 709 OFFCURVE",
"554 714 OFFCURVE",
"517 714 CURVE SMOOTH",
"292 714 OFFCURVE",
"120 568 OFFCURVE",
"74 349 CURVE SMOOTH",
"41 195 OFFCURVE",
"97 78 OFFCURVE",
"204 21 CURVE",
"138 -86 LINE"
);
},
{
closed = 1;
nodes = (
"156 125 OFFCURVE",
"124 216 OFFCURVE",
"152 349 CURVE SMOOTH",
"190 529 OFFCURVE",
"340 643 OFFCURVE",
"502 643 CURVE SMOOTH",
"531 643 OFFCURVE",
"557 640 OFFCURVE",
"581 635 CURVE",
"241 82 LINE"
);
},
{
closed = 1;
nodes = (
"351 55 OFFCURVE",
"327 57 OFFCURVE",
"305 61 CURVE",
"643 612 LINE",
"724 568 OFFCURVE",
"754 477 OFFCURVE",
"728 349 CURVE SMOOTH",
"691 167 OFFCURVE",
"537 55 OFFCURVE",
"377 55 CURVE SMOOTH"
);
}
);
width = 832;
}
);
leftKerningGroup = O;
note = Oslash;
rightKerningGroup = O;
unicode = 00D8;
},
{
glyphname = Oslashacute;
lastChange = "2015-11-30 00:21:35 +0000";
layers = (
{
layerId = "EA8340D9-3B60-45BA-AE27-149F2EF80A01";
name = "Light Italic";
paths = (
{
closed = 1;
nodes = (
"214 -86 LINE",
"265 -2 LINE",
"295 -10 OFFCURVE",
"327 -15 OFFCURVE",
"362 -15 CURVE SMOOTH",
"583 -15 OFFCURVE",
"759 131 OFFCURVE",
"806 349 CURVE SMOOTH",
"837 500 OFFCURVE",
"783 616 OFFCURVE",
"681 673 CURVE",
"749 784 LINE",
"673 784 LINE",
"621 699 LINE",
"589 709 OFFCURVE",
"554 714 OFFCURVE",
"517 714 CURVE SMOOTH",
"292 714 OFFCURVE",
"120 568 OFFCURVE",
"74 349 CURVE SMOOTH",
"41 195 OFFCURVE",
"97 78 OFFCURVE",
"204 21 CURVE",
"138 -86 LINE"
);
},
{
closed = 1;
nodes = (
"156 125 OFFCURVE",
"124 216 OFFCURVE",
"152 349 CURVE SMOOTH",
"190 529 OFFCURVE",
"340 643 OFFCURVE",
"502 643 CURVE SMOOTH",
"531 643 OFFCURVE",
"557 640 OFFCURVE",
"581 635 CURVE",
"241 82 LINE"
);
},
{
closed = 1;
nodes = (
"351 55 OFFCURVE",
"327 57 OFFCURVE",
"305 61 CURVE",
"643 612 LINE",
"724 568 OFFCURVE",
"754 477 OFFCURVE",
"728 349 CURVE SMOOTH",
"691 167 OFFCURVE",
"537 55 OFFCURVE",
"377 55 CURVE SMOOTH"
);
},
{
closed = 1;
nodes = (
"562 755 LINE",
"678 925 LINE",
"597 925 LINE",
"493 755 LINE"
);
}
);
width = 832;
}
);
leftKerningGroup = O;
note = Oslashacute;
rightKerningGroup = O;
unicode = 01FE;
},
{
glyphname = Otilde;
lastChange = "2015-11-30 00:21:35 +0000";
layers = (
{
layerId = "EA8340D9-3B60-45BA-AE27-149F2EF80A01";
name = "Light Italic";
paths = (
{
closed = 1;
nodes = (
"577 -15 OFFCURVE",
"760 127 OFFCURVE",
"806 349 CURVE SMOOTH",
"851 568 OFFCURVE",
"724 714 OFFCURVE",
"517 714 CURVE SMOOTH",
"302 714 OFFCURVE",
"123 574 OFFCURVE",
"74 349 CURVE SMOOTH",
"27 131 OFFCURVE",
"156 -15 OFFCURVE",
"362 -15 CURVE SMOOTH"
);
},
{
closed = 1;
nodes = (
"195 55 OFFCURVE",
"113 167 OFFCURVE",
"152 349 CURVE SMOOTH",
"190 529 OFFCURVE",
"340 643 OFFCURVE",
"502 643 CURVE SMOOTH",
"684 643 OFFCURVE",
"766 529 OFFCURVE",
"728 349 CURVE SMOOTH",
"689 167 OFFCURVE",
"537 55 OFFCURVE",
"377 55 CURVE SMOOTH"
);
},
{
closed = 1;
nodes = (
"376 783 OFFCURVE",
"410 795 OFFCURVE",
"445 795 CURVE SMOOTH",
"509 795 OFFCURVE",
"542 745 OFFCURVE",
"615 745 CURVE SMOOTH",
"655 745 OFFCURVE",
"691 755 OFFCURVE",
"718 787 CURVE",
"733 856 LINE",
"698 816 OFFCURVE",
"663 804 OFFCURVE",
"627 804 CURVE SMOOTH",
"562 804 OFFCURVE",
"525 854 OFFCURVE",
"457 854 CURVE SMOOTH",
"418 854 OFFCURVE",
"381 843 OFFCURVE",
"353 811 CURVE",
"338 742 LINE"
);
}
);
width = 832;
}
);
leftKerningGroup = O;
note = Otilde;
rightKerningGroup = O;
unicode = 00D5;
},
{
glyphname = OE;
lastChange = "2015-11-30 00:21:34 +0000";
layers = (
{
layerId = "EA8340D9-3B60-45BA-AE27-149F2EF80A01";
name = "Light Italic";
paths = (
{
closed = 1;
nodes = (
"789 0 LINE",
"803 66 LINE",
"485 66 LINE",
"538 317 LINE",
"764 317 LINE",
"778 383 LINE",
"552 383 LINE",
"605 633 LINE",
"923 633 LINE",
"937 699 LINE",
"520 699 LINE SMOOTH",
"292 699 OFFCURVE",
"120 568 OFFCURVE",
"74 349 CURVE SMOOTH",
"27 131 OFFCURVE",
"173 0 OFFCURVE",
"372 0 CURVE SMOOTH"
);
},
{
closed = 1;
nodes = (
"209 66 OFFCURVE",
"113 168 OFFCURVE",
"152 349 CURVE SMOOTH",
"190 531 OFFCURVE",
"341 633 OFFCURVE",
"501 633 CURVE SMOOTH",
"527 633 LINE",
"407 66 LINE",
"381 66 LINE SMOOTH"
);
}
);
width = 889;
}
);
leftKerningGroup = O;
note = OE;
rightKerningGroup = E;
unicode = 0152;
},
{
glyphname = P;
lastChange = "2015-11-30 00:21:36 +0000";
layers = (
{
layerId = "EA8340D9-3B60-45BA-AE27-149F2EF80A01";
name = "Light Italic";
paths = (
{
closed = 1;
nodes = (
"98 0 LINE",
"159 288 LINE",
"340 288 LINE SMOOTH",
"488 288 OFFCURVE",
"587 353 OFFCURVE",
"616 493 CURVE SMOOTH",
"644 627 OFFCURVE",
"567 699 OFFCURVE",
"427 699 CURVE SMOOTH",
"168 699 LINE",
"20 0 LINE"
);
},
{
closed = 1;
nodes = (
"232 633 LINE",
"415 633 LINE SMOOTH",
"511 633 OFFCURVE",
"562 606 OFFCURVE",
"538 493 CURVE SMOOTH",
"514 381 OFFCURVE",
"437 354 OFFCURVE",
"348 354 CURVE SMOOTH",
"173 354 LINE"
);
}
);
width = 592;
}
);
note = P;
unicode = 0050;
},
{
glyphname = Thorn;
lastChange = "2015-11-30 00:21:35 +0000";
layers = (
{
layerId = "EA8340D9-3B60-45BA-AE27-149F2EF80A01";
name = "Light Italic";
paths = (
{
closed = 1;
nodes = (
"98 0 LINE",
"129 149 LINE",
"314 149 LINE SMOOTH",
"473 149 OFFCURVE",
"557 210 OFFCURVE",
"586 350 CURVE SMOOTH",
"614 486 OFFCURVE",
"538 552 OFFCURVE",
"400 552 CURVE SMOOTH",
"215 552 LINE",
"246 699 LINE",
"168 699 LINE",
"20 0 LINE"
);
},
{
closed = 1;
nodes = (
"201 486 LINE",
"376 486 LINE SMOOTH",
"490 486 OFFCURVE",
"531 459 OFFCURVE",
"508 350 CURVE SMOOTH",
"484 238 OFFCURVE",
"407 215 OFFCURVE",
"318 215 CURVE SMOOTH",
"143 215 LINE"
);
}
);
width = 592;
}
);
note = Thorn;
unicode = 00DE;
},
{
glyphname = Q;
lastChange = "2015-11-30 00:21:36 +0000";
layers = (
{
layerId = "EA8340D9-3B60-45BA-AE27-149F2EF80A01";
name = "Light Italic";
paths = (
{
closed = 1;
nodes = (
"740 0 LINE",
"754 66 LINE",
"580 66 LINE",
"690 114 OFFCURVE",
"777 218 OFFCURVE",
"805 350 CURVE SMOOTH",
"851 569 OFFCURVE",
"724 714 OFFCURVE",
"517 714 CURVE SMOOTH",
"305 714 OFFCURVE",
"120 569 OFFCURVE",
"74 350 CURVE SMOOTH",
"29 137 OFFCURVE",
"159 0 OFFCURVE",
"385 0 CURVE SMOOTH"
);
},
{
closed = 1;
nodes = (
"202 72 OFFCURVE",
"115 170 OFFCURVE",
"153 350 CURVE SMOOTH",
"191 529 OFFCURVE",
"342 642 OFFCURVE",
"502 642 CURVE SMOOTH",
"685 642 OFFCURVE",
"764 529 OFFCURVE",
"726 350 CURVE SMOOTH",
"688 171 OFFCURVE",
"542 72 OFFCURVE",
"381 72 CURVE SMOOTH"
);
}
);
width = 820;
}
);
leftKerningGroup = O;
note = Q;
rightKerningGroup = O;
unicode = 0051;
},
{
glyphname = R;
lastChange = "2015-11-30 00:21:37 +0000";
layers = (
{
layerId = "EA8340D9-3B60-45BA-AE27-149F2EF80A01";
name = "Light Italic";
paths = (
{
closed = 1;
nodes = (
"98 0 LINE",
"161 297 LINE",
"328 297 LINE",
"429 0 LINE",
"510 0 LINE",
"408 301 LINE",
"529 318 OFFCURVE",
"597 395 OFFCURVE",
"617 497 CURVE SMOOTH",
"642 621 OFFCURVE",
"577 699 OFFCURVE",
"438 699 CURVE SMOOTH",
"168 699 LINE",
"20 0 LINE"
);
},
{
closed = 1;
nodes = (
"232 633 LINE",
"423 633 LINE SMOOTH",
"517 633 OFFCURVE",
"561 602 OFFCURVE",
"539 497 CURVE SMOOTH",
"520 407 OFFCURVE",
"450 363 OFFCURVE",
"357 363 CURVE SMOOTH",
"175 363 LINE"
);
}
);
width = 612;
}
);
note = R;
rightKerningGroup = R;
unicode = 0052;
},
{
glyphname = Racute;
lastChange = "2015-11-30 00:21:35 +0000";
layers = (
{
layerId = "EA8340D9-3B60-45BA-AE27-149F2EF80A01";
name = "Light Italic";
paths = (
{
closed = 1;
nodes = (
"98 0 LINE",
"161 297 LINE",
"328 297 LINE",
"429 0 LINE",
"510 0 LINE",
"408 301 LINE",
"529 318 OFFCURVE",
"597 395 OFFCURVE",
"617 497 CURVE SMOOTH",
"642 621 OFFCURVE",
"577 699 OFFCURVE",
"438 699 CURVE SMOOTH",
"168 699 LINE",
"20 0 LINE"
);
},
{
closed = 1;
nodes = (
"232 633 LINE",
"423 633 LINE SMOOTH",
"517 633 OFFCURVE",
"561 602 OFFCURVE",
"539 497 CURVE SMOOTH",
"520 407 OFFCURVE",
"450 363 OFFCURVE",
"357 363 CURVE SMOOTH",
"175 363 LINE"
);
},
{
closed = 1;
nodes = (
"412 742 LINE",
"528 912 LINE",
"447 912 LINE",
"343 742 LINE"
);
}
);
width = 612;
}
);
note = Racute;
rightKerningGroup = R;
unicode = 0154;
},
{
glyphname = Rcaron;
lastChange = "2015-11-30 00:21:36 +0000";
layers = (
{
layerId = "EA8340D9-3B60-45BA-AE27-149F2EF80A01";
name = "Light Italic";
paths = (
{
closed = 1;
nodes = (
"98 0 LINE",
"161 297 LINE",
"328 297 LINE",
"429 0 LINE",
"510 0 LINE",
"408 301 LINE",
"529 318 OFFCURVE",
"597 395 OFFCURVE",
"617 497 CURVE SMOOTH",
"642 621 OFFCURVE",
"577 699 OFFCURVE",
"438 699 CURVE SMOOTH",
"168 699 LINE",
"20 0 LINE"
);
},
{
closed = 1;
nodes = (
"232 633 LINE",
"423 633 LINE SMOOTH",
"517 633 OFFCURVE",
"561 602 OFFCURVE",
"539 497 CURVE SMOOTH",
"520 407 OFFCURVE",
"450 363 OFFCURVE",
"357 363 CURVE SMOOTH",
"175 363 LINE"
);
},
{
closed = 1;
nodes = (
"424 742 LINE",
"596 903 LINE",
"515 903 LINE",
"398 789 LINE",
"331 903 LINE",
"256 903 LINE",
"357 742 LINE"
);
}
);
width = 612;
}
);
note = Rcaron;
rightKerningGroup = R;
unicode = 0158;
},
{
glyphname = Rcommaaccent;
lastChange = "2015-11-30 00:21:37 +0000";
layers = (
{
layerId = "EA8340D9-3B60-45BA-AE27-149F2EF80A01";
name = "Light Italic";
paths = (
{
closed = 1;
nodes = (
"98 0 LINE",
"161 297 LINE",
"328 297 LINE",
"429 0 LINE",
"510 0 LINE",
"408 301 LINE",
"529 318 OFFCURVE",
"597 395 OFFCURVE",
"617 497 CURVE SMOOTH",
"642 621 OFFCURVE",
"577 699 OFFCURVE",
"438 699 CURVE SMOOTH",
"168 699 LINE",
"20 0 LINE"
);
},
{
closed = 1;
nodes = (
"138 -260 LINE",
"271 -63 LINE",
"190 -63 LINE",
"69 -260 LINE"
);
},
{
closed = 1;
nodes = (
"232 633 LINE",
"423 633 LINE SMOOTH",
"517 633 OFFCURVE",
"561 602 OFFCURVE",
"539 497 CURVE SMOOTH",
"520 407 OFFCURVE",
"450 363 OFFCURVE",
"357 363 CURVE SMOOTH",
"175 363 LINE"
);
}
);
width = 612;
}
);
note = Rcommaaccent;
rightKerningGroup = R;
unicode = 0156;
},
{
glyphname = Rdotbelow;
lastChange = "2015-11-30 00:21:35 +0000";
layers = (
{
layerId = "EA8340D9-3B60-45BA-AE27-149F2EF80A01";
name = "Light Italic";
paths = (
{
closed = 1;
nodes = (
"98 0 LINE",
"161 297 LINE",
"328 297 LINE",
"429 0 LINE",
"510 0 LINE",
"408 301 LINE",
"529 318 OFFCURVE",
"597 395 OFFCURVE",
"617 497 CURVE SMOOTH",
"642 621 OFFCURVE",
"577 699 OFFCURVE",
"438 699 CURVE SMOOTH",
"168 699 LINE",
"20 0 LINE"
);
},
{
closed = 1;
nodes = (
"241 -152 OFFCURVE",
"268 -130 OFFCURVE",
"274 -103 CURVE",
"279 -76 OFFCURVE",
"261 -54 OFFCURVE",
"236 -54 CURVE SMOOTH",
"209 -54 OFFCURVE",
"181 -76 OFFCURVE",
"176 -103 CURVE",
"170 -130 OFFCURVE",
"188 -152 OFFCURVE",
"215 -152 CURVE SMOOTH"
);
},
{
closed = 1;
nodes = (
"232 633 LINE",
"423 633 LINE SMOOTH",
"517 633 OFFCURVE",
"561 602 OFFCURVE",
"539 497 CURVE SMOOTH",
"520 407 OFFCURVE",
"450 363 OFFCURVE",
"357 363 CURVE SMOOTH",
"175 363 LINE"
);
}
);
width = 612;
}
);
note = Rdotbelow;
rightKerningGroup = R;
unicode = 1E5A;
},
{
glyphname = Rdotbelowmacron;
lastChange = "2015-11-30 00:21:37 +0000";
layers = (
{
layerId = "EA8340D9-3B60-45BA-AE27-149F2EF80A01";
name = "Light Italic";
paths = (
{
closed = 1;
nodes = (
"98 0 LINE",
"161 297 LINE",
"328 297 LINE",
"429 0 LINE",
"510 0 LINE",
"408 301 LINE",
"529 318 OFFCURVE",
"597 395 OFFCURVE",
"617 497 CURVE SMOOTH",
"642 621 OFFCURVE",
"577 699 OFFCURVE",
"438 699 CURVE SMOOTH",
"168 699 LINE",
"20 0 LINE"
);
},
{
closed = 1;
nodes = (
"219 -152 OFFCURVE",
"246 -130 OFFCURVE",
"252 -103 CURVE",
"257 -76 OFFCURVE",
"239 -54 OFFCURVE",
"214 -54 CURVE SMOOTH",
"187 -54 OFFCURVE",
"159 -76 OFFCURVE",
"154 -103 CURVE",
"148 -130 OFFCURVE",
"166 -152 OFFCURVE",
"193 -152 CURVE SMOOTH"
);
},
{
closed = 1;
nodes = (
"232 633 LINE",
"423 633 LINE SMOOTH",
"517 633 OFFCURVE",
"561 602 OFFCURVE",
"539 497 CURVE SMOOTH",
"520 407 OFFCURVE",
"450 363 OFFCURVE",
"357 363 CURVE SMOOTH",
"175 363 LINE"
);
},
{
closed = 1;
nodes = (
"542 787 LINE",
"553 841 LINE",
"253 841 LINE",
"242 787 LINE"
);
}
);
width = 612;
}
);
note = Rdotbelowmacron;
rightKerningGroup = R;
unicode = 1E5C;
},
{
glyphname = Rlinebelow;
lastChange = "2015-11-30 00:21:37 +0000";
layers = (
{
layerId = "EA8340D9-3B60-45BA-AE27-149F2EF80A01";
name = "Light Italic";
paths = (
{
closed = 1;
nodes = (
"98 0 LINE",
"161 297 LINE",
"328 297 LINE",
"429 0 LINE",
"510 0 LINE",
"408 301 LINE",
"529 318 OFFCURVE",
"597 395 OFFCURVE",
"617 497 CURVE SMOOTH",
"642 621 OFFCURVE",
"577 699 OFFCURVE",
"438 699 CURVE SMOOTH",
"168 699 LINE",
"20 0 LINE"
);
},
{
closed = 1;
nodes = (
"362 -131 LINE",
"374 -74 LINE",
"70 -74 LINE",
"58 -131 LINE"
);
},
{
closed = 1;
nodes = (
"232 633 LINE",
"423 633 LINE SMOOTH",
"517 633 OFFCURVE",
"561 602 OFFCURVE",
"539 497 CURVE SMOOTH",
"520 407 OFFCURVE",
"450 363 OFFCURVE",
"357 363 CURVE SMOOTH",
"175 363 LINE"
);
}
);
width = 612;
}
);
note = Rlinebelow;
rightKerningGroup = R;
unicode = 1E5E;
},
{
glyphname = S;
lastChange = "2015-11-30 00:21:37 +0000";
layers = (
{
layerId = "EA8340D9-3B60-45BA-AE27-149F2EF80A01";
name = "Light Italic";
paths = (
{
closed = 1;
nodes = (
"387 -15 OFFCURVE",
"466 54 OFFCURVE",
"491 171 CURVE SMOOTH",
"517 293 OFFCURVE",
"453 333 OFFCURVE",
"337 381 CURVE SMOOTH",
"221 429 OFFCURVE",
"182 459 OFFCURVE",
"198 534 CURVE SMOOTH",
"212 602 OFFCURVE",
"269 644 OFFCURVE",
"383 644 CURVE SMOOTH",
"447 644 OFFCURVE",
"503 631 OFFCURVE",
"552 607 CURVE",
"567 678 LINE",
"516 701 OFFCURVE",
"461 714 OFFCURVE",
"387 714 CURVE SMOOTH",
"237 714 OFFCURVE",
"143 642 OFFCURVE",
"120 534 CURVE SMOOTH",
"99 435 OFFCURVE",
"154 375 OFFCURVE",
"264 327 CURVE SMOOTH",
"384 275 OFFCURVE",
"431 255 OFFCURVE",
"413 171 CURVE SMOOTH",
"396 94 OFFCURVE",
"335 55 OFFCURVE",
"213 55 CURVE SMOOTH",
"145 55 OFFCURVE",
"78 68 OFFCURVE",
"20 96 CURVE",
"4 22 LINE",
"47 -1 OFFCURVE",
"125 -15 OFFCURVE",
"202 -15 CURVE SMOOTH"
);
}
);
width = 555;
}
);
leftKerningGroup = S;
note = S;
rightKerningGroup = S;
unicode = 0053;
},
{
glyphname = Sacute;
lastChange = "2015-11-30 00:21:37 +0000";
layers = (
{
layerId = "EA8340D9-3B60-45BA-AE27-149F2EF80A01";
name = "Light Italic";
paths = (
{
closed = 1;
nodes = (
"387 -15 OFFCURVE",
"466 54 OFFCURVE",
"491 171 CURVE SMOOTH",
"517 293 OFFCURVE",
"453 333 OFFCURVE",
"337 381 CURVE SMOOTH",
"221 429 OFFCURVE",
"182 459 OFFCURVE",
"198 534 CURVE SMOOTH",
"212 602 OFFCURVE",
"269 644 OFFCURVE",
"383 644 CURVE SMOOTH",
"447 644 OFFCURVE",
"503 631 OFFCURVE",
"552 607 CURVE",
"567 678 LINE",
"516 701 OFFCURVE",
"461 714 OFFCURVE",
"387 714 CURVE SMOOTH",
"237 714 OFFCURVE",
"143 642 OFFCURVE",
"120 534 CURVE SMOOTH",
"99 435 OFFCURVE",
"154 375 OFFCURVE",
"264 327 CURVE SMOOTH",
"384 275 OFFCURVE",
"431 255 OFFCURVE",
"413 171 CURVE SMOOTH",
"396 94 OFFCURVE",
"335 55 OFFCURVE",
"213 55 CURVE SMOOTH",
"145 55 OFFCURVE",
"78 68 OFFCURVE",
"20 96 CURVE",
"4 22 LINE",
"47 -1 OFFCURVE",
"125 -15 OFFCURVE",
"202 -15 CURVE SMOOTH"
);
},
{
closed = 1;
nodes = (
"419 742 LINE",
"535 912 LINE",
"454 912 LINE",
"350 742 LINE"
);
}
);
width = 555;
}
);
leftKerningGroup = S;
note = Sacute;
rightKerningGroup = S;
unicode = 015A;
},
{
glyphname = Scaron;
lastChange = "2015-11-30 00:21:37 +0000";
layers = (
{
layerId = "EA8340D9-3B60-45BA-AE27-149F2EF80A01";
name = "Light Italic";
paths = (
{
closed = 1;
nodes = (
"387 -15 OFFCURVE",
"466 54 OFFCURVE",
"491 171 CURVE SMOOTH",
"517 293 OFFCURVE",
"453 333 OFFCURVE",
"337 381 CURVE SMOOTH",
"221 429 OFFCURVE",
"182 459 OFFCURVE",
"198 534 CURVE SMOOTH",
"212 602 OFFCURVE",
"269 644 OFFCURVE",
"383 644 CURVE SMOOTH",
"447 644 OFFCURVE",
"503 631 OFFCURVE",
"552 607 CURVE",
"567 678 LINE",
"516 701 OFFCURVE",
"461 714 OFFCURVE",
"387 714 CURVE SMOOTH",
"237 714 OFFCURVE",
"143 642 OFFCURVE",
"120 534 CURVE SMOOTH",
"99 435 OFFCURVE",
"154 375 OFFCURVE",
"264 327 CURVE SMOOTH",
"384 275 OFFCURVE",
"431 255 OFFCURVE",
"413 171 CURVE SMOOTH",
"396 94 OFFCURVE",
"335 55 OFFCURVE",
"213 55 CURVE SMOOTH",
"145 55 OFFCURVE",
"78 68 OFFCURVE",
"20 96 CURVE",
"4 22 LINE",
"47 -1 OFFCURVE",
"125 -15 OFFCURVE",
"202 -15 CURVE SMOOTH"
);
},
{
closed = 1;
nodes = (
"436 742 LINE",
"608 903 LINE",
"527 903 LINE",
"410 789 LINE",
"343 903 LINE",
"268 903 LINE",
"369 742 LINE"
);
}
);
width = 555;
}
);
leftKerningGroup = S;
note = Scaron;
rightKerningGroup = S;
unicode = 0160;
},
{
glyphname = Scedilla;
lastChange = "2015-11-30 00:21:35 +0000";
layers = (
{
layerId = "EA8340D9-3B60-45BA-AE27-149F2EF80A01";
name = "Light Italic";
paths = (
{
closed = 1;
nodes = (
"236 -248 OFFCURVE",
"282 -206 OFFCURVE",
"293 -152 CURVE SMOOTH",
"302 -106 OFFCURVE",
"282 -68 OFFCURVE",
"221 -60 CURVE",
"249 -13 LINE",
"400 -2 OFFCURVE",
"468 64 OFFCURVE",
"491 171 CURVE SMOOTH",
"517 293 OFFCURVE",
"453 333 OFFCURVE",
"337 381 CURVE SMOOTH",
"221 429 OFFCURVE",
"182 459 OFFCURVE",
"198 534 CURVE SMOOTH",
"212 602 OFFCURVE",
"269 644 OFFCURVE",
"383 644 CURVE SMOOTH",
"447 644 OFFCURVE",
"503 631 OFFCURVE",
"552 607 CURVE",
"567 678 LINE",
"516 701 OFFCURVE",
"461 714 OFFCURVE",
"387 714 CURVE SMOOTH",
"237 714 OFFCURVE",
"143 642 OFFCURVE",
"120 534 CURVE SMOOTH",
"99 435 OFFCURVE",
"154 375 OFFCURVE",
"264 327 CURVE SMOOTH",
"384 275 OFFCURVE",
"431 255 OFFCURVE",
"413 171 CURVE SMOOTH",
"396 94 OFFCURVE",
"335 55 OFFCURVE",
"213 55 CURVE SMOOTH",
"145 55 OFFCURVE",
"78 68 OFFCURVE",
"20 96 CURVE",
"4 22 LINE",
"42 1 OFFCURVE",
"109 -12 OFFCURVE",
"177 -14 CURVE",
"132 -93 LINE",
"209 -93 OFFCURVE",
"229 -113 OFFCURVE",
"222 -150 CURVE SMOOTH",
"215 -186 OFFCURVE",
"187 -200 OFFCURVE",
"144 -200 CURVE SMOOTH",
"125 -200 OFFCURVE",
"101 -196 OFFCURVE",
"89 -190 CURVE",
"79 -238 LINE",
"93 -244 OFFCURVE",
"122 -248 OFFCURVE",
"150 -248 CURVE SMOOTH"
);
}
);
width = 555;
}
);
leftKerningGroup = S;
note = Scedilla;
rightKerningGroup = S;
unicode = 015E;
},
{
glyphname = Scircumflex;
lastChange = "2015-11-30 00:21:36 +0000";
layers = (
{
layerId = "EA8340D9-3B60-45BA-AE27-149F2EF80A01";
name = "Light Italic";
paths = (
{
closed = 1;
nodes = (
"387 -15 OFFCURVE",
"466 54 OFFCURVE",
"491 171 CURVE SMOOTH",
"517 293 OFFCURVE",
"453 333 OFFCURVE",
"337 381 CURVE SMOOTH",
"221 429 OFFCURVE",
"182 459 OFFCURVE",
"198 534 CURVE SMOOTH",
"212 602 OFFCURVE",
"269 644 OFFCURVE",
"383 644 CURVE SMOOTH",
"447 644 OFFCURVE",
"503 631 OFFCURVE",
"552 607 CURVE",
"567 678 LINE",
"516 701 OFFCURVE",
"461 714 OFFCURVE",
"387 714 CURVE SMOOTH",
"237 714 OFFCURVE",
"143 642 OFFCURVE",
"120 534 CURVE SMOOTH",
"99 435 OFFCURVE",
"154 375 OFFCURVE",
"264 327 CURVE SMOOTH",
"384 275 OFFCURVE",
"431 255 OFFCURVE",
"413 171 CURVE SMOOTH",
"396 94 OFFCURVE",
"335 55 OFFCURVE",
"213 55 CURVE SMOOTH",
"145 55 OFFCURVE",
"78 68 OFFCURVE",
"20 96 CURVE",
"4 22 LINE",
"47 -1 OFFCURVE",
"125 -15 OFFCURVE",
"202 -15 CURVE SMOOTH"
);
},
{
closed = 1;
nodes = (
"306 742 LINE",
"422 856 LINE",
"490 742 LINE",
"565 742 LINE",
"462 903 LINE",
"395 903 LINE",
"225 742 LINE"
);
}
);
width = 555;
}
);
leftKerningGroup = S;
note = Scircumflex;
rightKerningGroup = S;
unicode = 015C;
},
{
glyphname = Scommaaccent;
lastChange = "2015-11-30 00:21:37 +0000";
layers = (
{
layerId = "EA8340D9-3B60-45BA-AE27-149F2EF80A01";
name = "Light Italic";
paths = (
{
closed = 1;
nodes = (
"387 -15 OFFCURVE",
"466 54 OFFCURVE",
"491 171 CURVE SMOOTH",
"517 293 OFFCURVE",
"453 333 OFFCURVE",
"337 381 CURVE SMOOTH",
"221 429 OFFCURVE",
"182 459 OFFCURVE",
"198 534 CURVE SMOOTH",
"212 602 OFFCURVE",
"269 644 OFFCURVE",
"383 644 CURVE SMOOTH",
"447 644 OFFCURVE",
"503 631 OFFCURVE",
"552 607 CURVE",
"567 678 LINE",
"516 701 OFFCURVE",
"461 714 OFFCURVE",
"387 714 CURVE SMOOTH",
"237 714 OFFCURVE",
"143 642 OFFCURVE",
"120 534 CURVE SMOOTH",
"99 435 OFFCURVE",
"154 375 OFFCURVE",
"264 327 CURVE SMOOTH",
"384 275 OFFCURVE",
"431 255 OFFCURVE",
"413 171 CURVE SMOOTH",
"396 94 OFFCURVE",
"335 55 OFFCURVE",
"213 55 CURVE SMOOTH",
"145 55 OFFCURVE",
"78 68 OFFCURVE",
"20 96 CURVE",
"4 22 LINE",
"47 -1 OFFCURVE",
"125 -15 OFFCURVE",
"202 -15 CURVE SMOOTH"
);
},
{
closed = 1;
nodes = (
"124 -259 LINE",
"257 -63 LINE",
"177 -63 LINE",
"54 -259 LINE"
);
}
);
width = 555;
}
);
leftKerningGroup = S;
note = Scommaaccent;
rightKerningGroup = S;
unicode = 0218;
},
{
glyphname = Sdotaccent;
lastChange = "2015-11-30 00:21:37 +0000";
layers = (
{
layerId = "EA8340D9-3B60-45BA-AE27-149F2EF80A01";
name = "Light Italic";
paths = (
{
closed = 1;
nodes = (
"387 -15 OFFCURVE",
"466 54 OFFCURVE",
"491 171 CURVE SMOOTH",
"517 293 OFFCURVE",
"453 333 OFFCURVE",
"337 381 CURVE SMOOTH",
"221 429 OFFCURVE",
"182 459 OFFCURVE",
"198 534 CURVE SMOOTH",
"212 602 OFFCURVE",
"269 644 OFFCURVE",
"383 644 CURVE SMOOTH",
"447 644 OFFCURVE",
"503 631 OFFCURVE",
"552 607 CURVE",
"567 678 LINE",
"516 701 OFFCURVE",
"461 714 OFFCURVE",
"387 714 CURVE SMOOTH",
"237 714 OFFCURVE",
"143 642 OFFCURVE",
"120 534 CURVE SMOOTH",
"99 435 OFFCURVE",
"154 375 OFFCURVE",
"264 327 CURVE SMOOTH",
"384 275 OFFCURVE",
"431 255 OFFCURVE",
"413 171 CURVE SMOOTH",
"396 94 OFFCURVE",
"335 55 OFFCURVE",
"213 55 CURVE SMOOTH",
"145 55 OFFCURVE",
"78 68 OFFCURVE",
"20 96 CURVE",
"4 22 LINE",
"47 -1 OFFCURVE",
"125 -15 OFFCURVE",
"202 -15 CURVE SMOOTH"
);
},
{
closed = 1;
nodes = (
"425 742 OFFCURVE",
"452 764 OFFCURVE",
"458 791 CURVE SMOOTH",
"464 818 OFFCURVE",
"445 840 OFFCURVE",
"419 840 CURVE SMOOTH",
"392 840 OFFCURVE",
"365 818 OFFCURVE",
"359 791 CURVE SMOOTH",
"353 764 OFFCURVE",
"372 742 OFFCURVE",
"399 742 CURVE SMOOTH"
);
}
);
width = 555;
}
);
leftKerningGroup = S;
note = Sdotaccent;
rightKerningGroup = S;
unicode = 1E60;
},
{
glyphname = Sdotbelow;
lastChange = "2015-11-30 00:21:34 +0000";
layers = (
{
layerId = "EA8340D9-3B60-45BA-AE27-149F2EF80A01";
name = "Light Italic";
paths = (
{
closed = 1;
nodes = (
"387 -15 OFFCURVE",
"466 54 OFFCURVE",
"491 171 CURVE SMOOTH",
"517 293 OFFCURVE",
"453 333 OFFCURVE",
"337 381 CURVE SMOOTH",
"221 429 OFFCURVE",
"182 459 OFFCURVE",
"198 534 CURVE SMOOTH",
"212 602 OFFCURVE",
"269 644 OFFCURVE",
"383 644 CURVE SMOOTH",
"447 644 OFFCURVE",
"503 631 OFFCURVE",
"552 607 CURVE",
"567 678 LINE",
"516 701 OFFCURVE",
"461 714 OFFCURVE",
"387 714 CURVE SMOOTH",
"237 714 OFFCURVE",
"143 642 OFFCURVE",
"120 534 CURVE SMOOTH",
"99 435 OFFCURVE",
"154 375 OFFCURVE",
"264 327 CURVE SMOOTH",
"384 275 OFFCURVE",
"431 255 OFFCURVE",
"413 171 CURVE SMOOTH",
"396 94 OFFCURVE",
"335 55 OFFCURVE",
"213 55 CURVE SMOOTH",
"145 55 OFFCURVE",
"78 68 OFFCURVE",
"20 96 CURVE",
"4 22 LINE",
"47 -1 OFFCURVE",
"125 -15 OFFCURVE",
"202 -15 CURVE SMOOTH"
);
},
{
closed = 1;
nodes = (
"214 -152 OFFCURVE",
"241 -130 OFFCURVE",
"247 -103 CURVE",
"252 -76 OFFCURVE",
"234 -54 OFFCURVE",
"209 -54 CURVE SMOOTH",
"182 -54 OFFCURVE",
"154 -76 OFFCURVE",
"149 -103 CURVE",
"143 -130 OFFCURVE",
"161 -152 OFFCURVE",
"188 -152 CURVE SMOOTH"
);
}
);
width = 555;
}
);
leftKerningGroup = S;
note = Sdotbelow;
rightKerningGroup = S;
unicode = 1E62;
},
{
glyphname = Germandbls;
lastChange = "2015-11-30 00:21:37 +0000";
layers = (
{
layerId = "EA8340D9-3B60-45BA-AE27-149F2EF80A01";
name = "Light Italic";
paths = (
{
closed = 1;
nodes = (
"451 -15 OFFCURVE",
"532 76 OFFCURVE",
"556 198 CURVE SMOOTH",
"577 306 OFFCURVE",
"522 378 OFFCURVE",
"398 389 CURVE",
"562 521 LINE",
"581 625 OFFCURVE",
"519 714 OFFCURVE",
"390 714 CURVE SMOOTH",
"245 714 OFFCURVE",
"151 641 OFFCURVE",
"117 480 CURVE SMOOTH",
"15 0 LINE",
"93 0 LINE",
"195 484 LINE SMOOTH",
"220 602 OFFCURVE",
"294 643 OFFCURVE",
"375 643 CURVE SMOOTH",
"461 643 OFFCURVE",
"490 598 OFFCURVE",
"482 532 CURVE",
"304 387 LINE",
"293 335 LINE",
"331 335 LINE SMOOTH",
"432 335 OFFCURVE",
"501 306 OFFCURVE",
"478 198 CURVE SMOOTH",
"458 104 OFFCURVE",
"399 55 OFFCURVE",
"292 55 CURVE SMOOTH",
"243 55 OFFCURVE",
"209 60 OFFCURVE",
"177 76 CURVE",
"162 5 LINE",
"192 -10 OFFCURVE",
"240 -15 OFFCURVE",
"291 -15 CURVE SMOOTH"
);
}
);
width = 614;
}
);
note = uni1E9E;
unicode = 1E9E;
},
{
glyphname = Schwa;
lastChange = "2015-11-30 00:21:36 +0000";
layers = (
{
layerId = "EA8340D9-3B60-45BA-AE27-149F2EF80A01";
name = "Light Italic";
paths = (
{
closed = 1;
nodes = (
"591 -15 OFFCURVE",
"748 129 OFFCURVE",
"795 350 CURVE SMOOTH",
"844 581 OFFCURVE",
"727 714 OFFCURVE",
"476 714 CURVE SMOOTH",
"382 714 OFFCURVE",
"272 693 OFFCURVE",
"211 670 CURVE",
"196 600 LINE",
"264 625 OFFCURVE",
"362 643 OFFCURVE",
"452 643 CURVE SMOOTH",
"657 643 OFFCURVE",
"748 551 OFFCURVE",
"716 376 CURVE",
"79 376 LINE",
"70 331 LINE SMOOTH",
"28 136 OFFCURVE",
"116 -15 OFFCURVE",
"356 -15 CURVE SMOOTH"
);
},
{
closed = 1;
nodes = (
"175 55 OFFCURVE",
"114 164 OFFCURVE",
"143 315 CURVE",
"704 315 LINE",
"669 165 OFFCURVE",
"560 55 OFFCURVE",
"369 55 CURVE SMOOTH"
);
}
);
width = 821;
}
);
note = uni018F;
unicode = 018F;
},
{
glyphname = T;
lastChange = "2015-11-30 00:21:34 +0000";
layers = (
{
layerId = "EA8340D9-3B60-45BA-AE27-149F2EF80A01";
name = "Light Italic";
paths = (
{
closed = 1;
nodes = (
"282 0 LINE",
"416 633 LINE",
"640 633 LINE",
"654 699 LINE",
"128 699 LINE",
"114 633 LINE",
"338 633 LINE",
"204 0 LINE"
);
}
);
width = 586;
}
);
leftKerningGroup = T;
note = T;
rightKerningGroup = T;
unicode = 0054;
},
{
glyphname = Tbar;
lastChange = "2015-11-30 00:21:35 +0000";
layers = (
{
layerId = "EA8340D9-3B60-45BA-AE27-149F2EF80A01";
name = "Light Italic";
paths = (
{
closed = 1;
nodes = (
"282 0 LINE",
"346 305 LINE",
"477 305 LINE",
"491 370 LINE",
"360 370 LINE",
"416 633 LINE",
"640 633 LINE",
"654 699 LINE",
"128 699 LINE",
"114 633 LINE",
"338 633 LINE",
"282 370 LINE",
"150 370 LINE",
"136 305 LINE",
"268 305 LINE",
"204 0 LINE"
);
}
);
width = 586;
}
);
leftKerningGroup = T;
note = Tbar;
rightKerningGroup = T;
unicode = 0166;
},
{
glyphname = Tcaron;
lastChange = "2015-11-30 00:21:35 +0000";
layers = (
{
layerId = "EA8340D9-3B60-45BA-AE27-149F2EF80A01";
name = "Light Italic";
paths = (
{
closed = 1;
nodes = (
"282 0 LINE",
"416 633 LINE",
"640 633 LINE",
"654 699 LINE",
"128 699 LINE",
"114 633 LINE",
"338 633 LINE",
"204 0 LINE"
);
},
{
closed = 1;
nodes = (
"433 742 LINE",
"605 903 LINE",
"524 903 LINE",
"407 789 LINE",
"340 903 LINE",
"265 903 LINE",
"366 742 LINE"
);
}
);
width = 586;
}
);
leftKerningGroup = T;
note = Tcaron;
rightKerningGroup = T;
unicode = 0164;
},
{
glyphname = Tcedilla;
lastChange = "2015-11-30 00:21:37 +0000";
layers = (
{
layerId = "EA8340D9-3B60-45BA-AE27-149F2EF80A01";
name = "Light Italic";
paths = (
{
closed = 1;
nodes = (
"258 -248 OFFCURVE",
"304 -206 OFFCURVE",
"315 -152 CURVE SMOOTH",
"324 -106 OFFCURVE",
"304 -68 OFFCURVE",
"243 -60 CURVE",
"279 0 LINE",
"282 0 LINE",
"416 633 LINE",
"640 633 LINE",
"654 699 LINE",
"128 699 LINE",
"114 633 LINE",
"338 633 LINE",
"204 0 LINE",
"208 0 LINE",
"154 -93 LINE",
"231 -93 OFFCURVE",
"251 -113 OFFCURVE",
"244 -150 CURVE SMOOTH",
"237 -186 OFFCURVE",
"209 -200 OFFCURVE",
"166 -200 CURVE SMOOTH",
"147 -200 OFFCURVE",
"123 -196 OFFCURVE",
"111 -190 CURVE",
"101 -238 LINE",
"115 -244 OFFCURVE",
"144 -248 OFFCURVE",
"172 -248 CURVE SMOOTH"
);
}
);
width = 586;
}
);
leftKerningGroup = T;
note = Tcedilla;
rightKerningGroup = T;
unicode = 0162;
},
{
glyphname = Tcommaaccent;
lastChange = "2015-11-30 00:21:34 +0000";
layers = (
{
layerId = "EA8340D9-3B60-45BA-AE27-149F2EF80A01";
name = "Light Italic";
paths = (
{
closed = 1;
nodes = (
"282 0 LINE",
"416 633 LINE",
"640 633 LINE",
"654 699 LINE",
"128 699 LINE",
"114 633 LINE",
"338 633 LINE",
"204 0 LINE"
);
},
{
closed = 1;
nodes = (
"135 -260 LINE",
"268 -63 LINE",
"187 -63 LINE",
"66 -260 LINE"
);
}
);
width = 586;
}
);
leftKerningGroup = T;
note = Tcommaaccent;
rightKerningGroup = T;
unicode = 021A;
},
{
glyphname = Tdotbelow;
lastChange = "2015-11-30 00:21:35 +0000";
layers = (
{
layerId = "EA8340D9-3B60-45BA-AE27-149F2EF80A01";
name = "Light Italic";
paths = (
{
closed = 1;
nodes = (
"282 0 LINE",
"416 633 LINE",
"640 633 LINE",
"654 699 LINE",
"128 699 LINE",
"114 633 LINE",
"338 633 LINE",
"204 0 LINE"
);
},
{
closed = 1;
nodes = (
"238 -152 OFFCURVE",
"265 -130 OFFCURVE",
"271 -103 CURVE",
"276 -76 OFFCURVE",
"258 -54 OFFCURVE",
"233 -54 CURVE SMOOTH",
"206 -54 OFFCURVE",
"178 -76 OFFCURVE",
"173 -103 CURVE",
"167 -130 OFFCURVE",
"185 -152 OFFCURVE",
"212 -152 CURVE SMOOTH"
);
}
);
width = 586;
}
);
leftKerningGroup = T;
note = Tdotbelow;
rightKerningGroup = T;
unicode = 1E6C;
},
{
glyphname = Tlinebelow;
lastChange = "2015-11-30 00:21:34 +0000";
layers = (
{
layerId = "EA8340D9-3B60-45BA-AE27-149F2EF80A01";
name = "Light Italic";
paths = (
{
closed = 1;
nodes = (
"282 0 LINE",
"416 633 LINE",
"640 633 LINE",
"654 699 LINE",
"128 699 LINE",
"114 633 LINE",
"338 633 LINE",
"204 0 LINE"
);
},
{
closed = 1;
nodes = (
"367 -131 LINE",
"379 -74 LINE",
"75 -74 LINE",
"63 -131 LINE"
);
}
);
width = 586;
}
);
leftKerningGroup = T;
note = Tlinebelow;
rightKerningGroup = T;
unicode = 1E6E;
},
{
glyphname = U;
lastChange = "2015-11-30 00:21:34 +0000";
layers = (
{
layerId = "EA8340D9-3B60-45BA-AE27-149F2EF80A01";
name = "Light Italic";
paths = (
{
closed = 1;
nodes = (
"502 -15 OFFCURVE",
"591 88 OFFCURVE",
"626 250 CURVE SMOOTH",
"721 699 LINE",
"643 699 LINE",
"546 244 LINE SMOOTH",
"519 113 OFFCURVE",
"431 55 OFFCURVE",
"305 55 CURVE SMOOTH",
"173 55 OFFCURVE",
"115 109 OFFCURVE",
"144 244 CURVE SMOOTH",
"241 699 LINE",
"163 699 LINE",
"68 250 LINE SMOOTH",
"35 94 OFFCURVE",
"113 -15 OFFCURVE",
"290 -15 CURVE SMOOTH"
);
}
);
width = 688;
}
);
leftKerningGroup = U;
note = U;
rightKerningGroup = U;
unicode = 0055;
},
{
glyphname = Uacute;
lastChange = "2015-11-30 00:21:36 +0000";
layers = (
{
layerId = "EA8340D9-3B60-45BA-AE27-149F2EF80A01";
name = "Light Italic";
paths = (
{
closed = 1;
nodes = (
"502 -15 OFFCURVE",
"591 88 OFFCURVE",
"626 250 CURVE SMOOTH",
"721 699 LINE",
"643 699 LINE",
"546 244 LINE SMOOTH",
"519 113 OFFCURVE",
"431 55 OFFCURVE",
"305 55 CURVE SMOOTH",
"173 55 OFFCURVE",
"115 109 OFFCURVE",
"144 244 CURVE SMOOTH",
"241 699 LINE",
"163 699 LINE",
"68 250 LINE SMOOTH",
"35 94 OFFCURVE",
"113 -15 OFFCURVE",
"290 -15 CURVE SMOOTH"
);
},
{
closed = 1;
nodes = (
"479 742 LINE",
"595 912 LINE",
"514 912 LINE",
"410 742 LINE"
);
}
);
width = 688;
}
);
leftKerningGroup = U;
note = Uacute;
rightKerningGroup = U;
unicode = 00DA;
},
{
glyphname = Ubreve;
lastChange = "2015-11-30 00:21:35 +0000";
layers = (
{
layerId = "EA8340D9-3B60-45BA-AE27-149F2EF80A01";
name = "Light Italic";
paths = (
{
closed = 1;
nodes = (
"502 -15 OFFCURVE",
"591 88 OFFCURVE",
"626 250 CURVE SMOOTH",
"721 699 LINE",
"643 699 LINE",
"546 244 LINE SMOOTH",
"519 113 OFFCURVE",
"431 55 OFFCURVE",
"305 55 CURVE SMOOTH",
"173 55 OFFCURVE",
"115 109 OFFCURVE",
"144 244 CURVE SMOOTH",
"241 699 LINE",
"163 699 LINE",
"68 250 LINE SMOOTH",
"35 94 OFFCURVE",
"113 -15 OFFCURVE",
"290 -15 CURVE SMOOTH"
);
},
{
closed = 1;
nodes = (
"537 742 OFFCURVE",
"602 797 OFFCURVE",
"618 872 CURVE",
"556 872 LINE",
"547 826 OFFCURVE",
"510 796 OFFCURVE",
"460 796 CURVE SMOOTH",
"410 796 OFFCURVE",
"387 826 OFFCURVE",
"396 872 CURVE",
"339 872 LINE",
"324 797 OFFCURVE",
"366 742 OFFCURVE",
"452 742 CURVE SMOOTH"
);
}
);
width = 688;
}
);
leftKerningGroup = U;
note = Ubreve;
rightKerningGroup = U;
unicode = 016C;
},
{
glyphname = Ucaron;
lastChange = "2015-11-30 00:21:35 +0000";
layers = (
{
layerId = "EA8340D9-3B60-45BA-AE27-149F2EF80A01";
name = "Light Italic";
paths = (
{
closed = 1;
nodes = (
"502 -15 OFFCURVE",
"591 88 OFFCURVE",
"626 250 CURVE SMOOTH",
"721 699 LINE",
"643 699 LINE",
"546 244 LINE SMOOTH",
"519 113 OFFCURVE",
"431 55 OFFCURVE",
"305 55 CURVE SMOOTH",
"173 55 OFFCURVE",
"115 109 OFFCURVE",
"144 244 CURVE SMOOTH",
"241 699 LINE",
"163 699 LINE",
"68 250 LINE SMOOTH",
"35 94 OFFCURVE",
"113 -15 OFFCURVE",
"290 -15 CURVE SMOOTH"
);
},
{
closed = 1;
nodes = (
"484 742 LINE",
"656 903 LINE",
"575 903 LINE",
"458 789 LINE",
"391 903 LINE",
"316 903 LINE",
"417 742 LINE"
);
}
);
width = 688;
}
);
leftKerningGroup = U;
note = Ucaron;
rightKerningGroup = U;
unicode = 01D3;
},
{
glyphname = Ucircumflex;
lastChange = "2015-11-30 00:21:35 +0000";
layers = (
{
layerId = "EA8340D9-3B60-45BA-AE27-149F2EF80A01";
name = "Light Italic";
paths = (
{
closed = 1;
nodes = (
"502 -15 OFFCURVE",
"591 88 OFFCURVE",
"626 250 CURVE SMOOTH",
"721 699 LINE",
"643 699 LINE",
"546 244 LINE SMOOTH",
"519 113 OFFCURVE",
"431 55 OFFCURVE",
"305 55 CURVE SMOOTH",
"173 55 OFFCURVE",
"115 109 OFFCURVE",
"144 244 CURVE SMOOTH",
"241 699 LINE",
"163 699 LINE",
"68 250 LINE SMOOTH",
"35 94 OFFCURVE",
"113 -15 OFFCURVE",
"290 -15 CURVE SMOOTH"
);
},
{
closed = 1;
nodes = (
"363 742 LINE",
"479 856 LINE",
"547 742 LINE",
"622 742 LINE",
"519 903 LINE",
"452 903 LINE",
"282 742 LINE"
);
}
);
width = 688;
}
);
leftKerningGroup = U;
note = Ucircumflex;
rightKerningGroup = U;
unicode = 00DB;
},
{
glyphname = Udieresis;
lastChange = "2015-11-30 00:21:36 +0000";
layers = (
{
layerId = "EA8340D9-3B60-45BA-AE27-149F2EF80A01";
name = "Light Italic";
paths = (
{
closed = 1;
nodes = (
"502 -15 OFFCURVE",
"591 88 OFFCURVE",
"626 250 CURVE SMOOTH",
"721 699 LINE",
"643 699 LINE",
"546 244 LINE SMOOTH",
"519 113 OFFCURVE",
"431 55 OFFCURVE",
"305 55 CURVE SMOOTH",
"173 55 OFFCURVE",
"115 109 OFFCURVE",
"144 244 CURVE SMOOTH",
"241 699 LINE",
"163 699 LINE",
"68 250 LINE SMOOTH",
"35 94 OFFCURVE",
"113 -15 OFFCURVE",
"290 -15 CURVE SMOOTH"
);
},
{
closed = 1;
nodes = (
"369 742 OFFCURVE",
"396 764 OFFCURVE",
"402 791 CURVE SMOOTH",
"408 818 OFFCURVE",
"389 840 OFFCURVE",
"363 840 CURVE SMOOTH",
"336 840 OFFCURVE",
"310 818 OFFCURVE",
"304 791 CURVE SMOOTH",
"298 764 OFFCURVE",
"317 742 OFFCURVE",
"343 742 CURVE SMOOTH"
);
},
{
closed = 1;
nodes = (
"586 742 OFFCURVE",
"613 764 OFFCURVE",
"619 791 CURVE SMOOTH",
"625 818 OFFCURVE",
"606 840 OFFCURVE",
"580 840 CURVE SMOOTH",
"553 840 OFFCURVE",
"526 818 OFFCURVE",
"520 791 CURVE SMOOTH",
"514 764 OFFCURVE",
"533 742 OFFCURVE",
"560 742 CURVE SMOOTH"
);
}
);
width = 688;
}
);
leftKerningGroup = U;
note = Udieresis;
rightKerningGroup = U;
unicode = 00DC;
},
{
glyphname = Udieresisacute;
lastChange = "2015-11-30 00:21:35 +0000";
layers = (
{
layerId = "EA8340D9-3B60-45BA-AE27-149F2EF80A01";
name = "Light Italic";
paths = (
{
closed = 1;
nodes = (
"502 -15 OFFCURVE",
"591 88 OFFCURVE",
"626 250 CURVE SMOOTH",
"721 699 LINE",
"643 699 LINE",
"546 244 LINE SMOOTH",
"519 113 OFFCURVE",
"431 55 OFFCURVE",
"305 55 CURVE SMOOTH",
"173 55 OFFCURVE",
"115 109 OFFCURVE",
"144 244 CURVE SMOOTH",
"241 699 LINE",
"163 699 LINE",
"68 250 LINE SMOOTH",
"35 94 OFFCURVE",
"113 -15 OFFCURVE",
"290 -15 CURVE SMOOTH"
);
},
{
closed = 1;
nodes = (
"374 742 OFFCURVE",
"401 764 OFFCURVE",
"407 791 CURVE SMOOTH",
"413 818 OFFCURVE",
"394 840 OFFCURVE",
"368 840 CURVE SMOOTH",
"341 840 OFFCURVE",
"314 818 OFFCURVE",
"308 791 CURVE SMOOTH",
"302 764 OFFCURVE",
"321 742 OFFCURVE",
"348 742 CURVE SMOOTH"
);
},
{
closed = 1;
nodes = (
"590 742 OFFCURVE",
"617 764 OFFCURVE",
"623 791 CURVE SMOOTH",
"629 818 OFFCURVE",
"610 840 OFFCURVE",
"584 840 CURVE SMOOTH",
"557 840 OFFCURVE",
"530 818 OFFCURVE",
"524 791 CURVE SMOOTH",
"518 764 OFFCURVE",
"537 742 OFFCURVE",
"564 742 CURVE SMOOTH"
);
},
{
closed = 1;
nodes = (
"493 823 LINE",
"582 946 LINE",
"518 946 LINE",
"440 823 LINE"
);
}
);
width = 688;
}
);
leftKerningGroup = U;
note = Udieresisacute;
rightKerningGroup = U;
unicode = 01D7;
},
{
glyphname = Udieresiscaron;
lastChange = "2015-11-30 00:21:35 +0000";
layers = (
{
layerId = "EA8340D9-3B60-45BA-AE27-149F2EF80A01";
name = "Light Italic";
paths = (
{
closed = 1;
nodes = (
"502 -15 OFFCURVE",
"591 88 OFFCURVE",
"626 250 CURVE SMOOTH",
"721 699 LINE",
"643 699 LINE",
"546 244 LINE SMOOTH",
"519 113 OFFCURVE",
"431 55 OFFCURVE",
"305 55 CURVE SMOOTH",
"173 55 OFFCURVE",
"115 109 OFFCURVE",
"144 244 CURVE SMOOTH",
"241 699 LINE",
"163 699 LINE",
"68 250 LINE SMOOTH",
"35 94 OFFCURVE",
"113 -15 OFFCURVE",
"290 -15 CURVE SMOOTH"
);
},
{
closed = 1;
nodes = (
"370 742 OFFCURVE",
"397 764 OFFCURVE",
"403 791 CURVE SMOOTH",
"409 818 OFFCURVE",
"390 840 OFFCURVE",
"363 840 CURVE SMOOTH",
"337 840 OFFCURVE",
"310 818 OFFCURVE",
"304 791 CURVE SMOOTH",
"298 764 OFFCURVE",
"317 742 OFFCURVE",
"343 742 CURVE SMOOTH"
);
},
{
closed = 1;
nodes = (
"586 742 OFFCURVE",
"613 764 OFFCURVE",
"619 791 CURVE SMOOTH",
"625 818 OFFCURVE",
"606 840 OFFCURVE",
"579 840 CURVE SMOOTH",
"553 840 OFFCURVE",
"526 818 OFFCURVE",
"520 791 CURVE SMOOTH",
"514 764 OFFCURVE",
"533 742 OFFCURVE",
"559 742 CURVE SMOOTH"
);
},
{
closed = 1;
nodes = (
"497 819 LINE",
"643 941 LINE",
"574 941 LINE",
"477 857 LINE",
"415 941 LINE",
"345 941 LINE",
"440 819 LINE"
);
}
);
width = 688;
}
);
leftKerningGroup = U;
note = Udieresiscaron;
rightKerningGroup = U;
unicode = 01D9;
},
{
glyphname = Udieresisgrave;
lastChange = "2015-11-30 00:21:37 +0000";
layers = (
{
layerId = "EA8340D9-3B60-45BA-AE27-149F2EF80A01";
name = "Light Italic";
paths = (
{
closed = 1;
nodes = (
"502 -15 OFFCURVE",
"591 88 OFFCURVE",
"626 250 CURVE SMOOTH",
"721 699 LINE",
"643 699 LINE",
"546 244 LINE SMOOTH",
"519 113 OFFCURVE",
"431 55 OFFCURVE",
"305 55 CURVE SMOOTH",
"173 55 OFFCURVE",
"115 109 OFFCURVE",
"144 244 CURVE SMOOTH",
"241 699 LINE",
"163 699 LINE",
"68 250 LINE SMOOTH",
"35 94 OFFCURVE",
"113 -15 OFFCURVE",
"290 -15 CURVE SMOOTH"
);
},
{
closed = 1;
nodes = (
"372 742 OFFCURVE",
"399 764 OFFCURVE",
"405 791 CURVE SMOOTH",
"411 818 OFFCURVE",
"392 840 OFFCURVE",
"365 840 CURVE SMOOTH",
"339 840 OFFCURVE",
"312 818 OFFCURVE",
"306 791 CURVE SMOOTH",
"300 764 OFFCURVE",
"319 742 OFFCURVE",
"345 742 CURVE SMOOTH"
);
},
{
closed = 1;
nodes = (
"503 823 LINE",
"477 946 LINE",
"413 946 LINE",
"450 823 LINE"
);
},
{
closed = 1;
nodes = (
"588 742 OFFCURVE",
"615 764 OFFCURVE",
"621 791 CURVE SMOOTH",
"627 818 OFFCURVE",
"608 840 OFFCURVE",
"581 840 CURVE SMOOTH",
"555 840 OFFCURVE",
"528 818 OFFCURVE",
"522 791 CURVE SMOOTH",
"516 764 OFFCURVE",
"535 742 OFFCURVE",
"561 742 CURVE SMOOTH"
);
}
);
width = 688;
}
);
leftKerningGroup = U;
note = Udieresisgrave;
rightKerningGroup = U;
unicode = 01DB;
},
{
glyphname = Udieresismacron;
lastChange = "2015-11-30 00:21:34 +0000";
layers = (
{
layerId = "EA8340D9-3B60-45BA-AE27-149F2EF80A01";
name = "Light Italic";
paths = (
{
closed = 1;
nodes = (
"502 -15 OFFCURVE",
"591 88 OFFCURVE",
"626 250 CURVE SMOOTH",
"721 699 LINE",
"643 699 LINE",
"546 244 LINE SMOOTH",
"519 113 OFFCURVE",
"431 55 OFFCURVE",
"305 55 CURVE SMOOTH",
"173 55 OFFCURVE",
"115 109 OFFCURVE",
"144 244 CURVE SMOOTH",
"241 699 LINE",
"163 699 LINE",
"68 250 LINE SMOOTH",
"35 94 OFFCURVE",
"113 -15 OFFCURVE",
"290 -15 CURVE SMOOTH"
);
},
{
closed = 1;
nodes = (
"368 742 OFFCURVE",
"395 764 OFFCURVE",
"401 791 CURVE SMOOTH",
"407 818 OFFCURVE",
"388 840 OFFCURVE",
"362 840 CURVE SMOOTH",
"335 840 OFFCURVE",
"309 818 OFFCURVE",
"303 791 CURVE SMOOTH",
"297 764 OFFCURVE",
"316 742 OFFCURVE",
"342 742 CURVE SMOOTH"
);
},
{
closed = 1;
nodes = (
"585 742 OFFCURVE",
"612 764 OFFCURVE",
"618 791 CURVE SMOOTH",
"624 818 OFFCURVE",
"605 840 OFFCURVE",
"579 840 CURVE SMOOTH",
"552 840 OFFCURVE",
"525 818 OFFCURVE",
"519 791 CURVE SMOOTH",
"513 764 OFFCURVE",
"532 742 OFFCURVE",
"559 742 CURVE SMOOTH"
);
},
{
closed = 1;
nodes = (
"637 913 LINE",
"648 967 LINE",
"348 967 LINE",
"337 913 LINE"
);
}
);
width = 688;
}
);
leftKerningGroup = U;
note = Udieresismacron;
rightKerningGroup = U;
unicode = 01D5;
},
{
glyphname = Udotbelow;
lastChange = "2015-11-30 00:21:36 +0000";
layers = (
{
layerId = "EA8340D9-3B60-45BA-AE27-149F2EF80A01";
name = "Light Italic";
paths = (
{
closed = 1;
nodes = (
"502 -15 OFFCURVE",
"591 88 OFFCURVE",
"626 250 CURVE SMOOTH",
"721 699 LINE",
"643 699 LINE",
"546 244 LINE SMOOTH",
"519 113 OFFCURVE",
"431 55 OFFCURVE",
"305 55 CURVE SMOOTH",
"173 55 OFFCURVE",
"115 109 OFFCURVE",
"144 244 CURVE SMOOTH",
"241 699 LINE",
"163 699 LINE",
"68 250 LINE SMOOTH",
"35 94 OFFCURVE",
"113 -15 OFFCURVE",
"290 -15 CURVE SMOOTH"
);
},
{
closed = 1;
nodes = (
"289 -152 OFFCURVE",
"316 -130 OFFCURVE",
"322 -103 CURVE",
"327 -76 OFFCURVE",
"309 -54 OFFCURVE",
"284 -54 CURVE SMOOTH",
"257 -54 OFFCURVE",
"229 -76 OFFCURVE",
"224 -103 CURVE",
"218 -130 OFFCURVE",
"236 -152 OFFCURVE",
"263 -152 CURVE SMOOTH"
);
}
);
width = 688;
}
);
leftKerningGroup = U;
note = Udotbelow;
rightKerningGroup = U;
unicode = 1EE4;
},
{
glyphname = Ugrave;
lastChange = "2015-11-30 00:21:34 +0000";
layers = (
{
layerId = "EA8340D9-3B60-45BA-AE27-149F2EF80A01";
name = "Light Italic";
paths = (
{
closed = 1;
nodes = (
"502 -15 OFFCURVE",
"591 88 OFFCURVE",
"626 250 CURVE SMOOTH",
"721 699 LINE",
"643 699 LINE",
"546 244 LINE SMOOTH",
"519 113 OFFCURVE",
"431 55 OFFCURVE",
"305 55 CURVE SMOOTH",
"173 55 OFFCURVE",
"115 109 OFFCURVE",
"144 244 CURVE SMOOTH",
"241 699 LINE",
"163 699 LINE",
"68 250 LINE SMOOTH",
"35 94 OFFCURVE",
"113 -15 OFFCURVE",
"290 -15 CURVE SMOOTH"
);
},
{
closed = 1;
nodes = (
"493 742 LINE",
"461 912 LINE",
"380 912 LINE",
"424 742 LINE"
);
}
);
width = 688;
}
);
leftKerningGroup = U;
note = Ugrave;
rightKerningGroup = U;
unicode = 00D9;
},
{
glyphname = Uhookabove;
lastChange = "2015-11-30 00:21:35 +0000";
layers = (
{
layerId = "EA8340D9-3B60-45BA-AE27-149F2EF80A01";
name = "Light Italic";
paths = (
{
closed = 1;
nodes = (
"502 -15 OFFCURVE",
"591 88 OFFCURVE",
"626 250 CURVE SMOOTH",
"721 699 LINE",
"643 699 LINE",
"546 244 LINE SMOOTH",
"519 113 OFFCURVE",
"431 55 OFFCURVE",
"305 55 CURVE SMOOTH",
"173 55 OFFCURVE",
"115 109 OFFCURVE",
"144 244 CURVE SMOOTH",
"241 699 LINE",
"163 699 LINE",
"68 250 LINE SMOOTH",
"35 94 OFFCURVE",
"113 -15 OFFCURVE",
"290 -15 CURVE SMOOTH"
);
},
{
closed = 1;
nodes = (
"476 742 LINE",
"483 777 LINE",
"547 783 OFFCURVE",
"587 823 OFFCURVE",
"597 871 CURVE SMOOTH",
"609 926 OFFCURVE",
"569 964 OFFCURVE",
"495 964 CURVE SMOOTH",
"467 964 OFFCURVE",
"435 959 OFFCURVE",
"417 953 CURVE",
"407 908 LINE",
"420 914 OFFCURVE",
"452 918 OFFCURVE",
"469 918 CURVE SMOOTH",
"516 918 OFFCURVE",
"536 903 OFFCURVE",
"529 868 CURVE SMOOTH",
"520 827 OFFCURVE",
"487 810 OFFCURVE",
"423 810 CURVE",
"409 742 LINE"
);
}
);
width = 688;
}
);
leftKerningGroup = U;
note = Uhookabove;
rightKerningGroup = U;
unicode = 1EE6;
},
{
glyphname = Uhorn;
lastChange = "2015-11-30 00:21:36 +0000";
layers = (
{
layerId = "EA8340D9-3B60-45BA-AE27-149F2EF80A01";
name = "Light Italic";
paths = (
{
closed = 1;
nodes = (
"488 -15 OFFCURVE",
"591 88 OFFCURVE",
"626 250 CURVE SMOOTH",
"692 561 LINE",
"798 561 OFFCURVE",
"872 628 OFFCURVE",
"889 707 CURVE SMOOTH",
"897 747 LINE",
"826 747 LINE",
"819 711 LINE SMOOTH",
"807 654 OFFCURVE",
"771 623 OFFCURVE",
"705 623 CURVE",
"721 699 LINE",
"643 699 LINE",
"546 244 LINE SMOOTH",
"519 113 OFFCURVE",
"423 55 OFFCURVE",
"305 55 CURVE SMOOTH",
"165 55 OFFCURVE",
"117 113 OFFCURVE",
"144 244 CURVE SMOOTH",
"241 699 LINE",
"163 699 LINE",
"68 250 LINE SMOOTH",
"33 88 OFFCURVE",
"115 -15 OFFCURVE",
"290 -15 CURVE SMOOTH"
);
}
);
width = 814;
}
);
leftKerningGroup = U;
note = Uhorn;
rightKerningGroup = U;
unicode = 01AF;
},
{
glyphname = Uhornacute;
lastChange = "2015-11-30 00:21:34 +0000";
layers = (
{
layerId = "EA8340D9-3B60-45BA-AE27-149F2EF80A01";
name = "Light Italic";
paths = (
{
closed = 1;
nodes = (
"488 -15 OFFCURVE",
"591 88 OFFCURVE",
"626 250 CURVE SMOOTH",
"692 561 LINE",
"798 561 OFFCURVE",
"872 628 OFFCURVE",
"889 707 CURVE SMOOTH",
"897 747 LINE",
"826 747 LINE",
"819 711 LINE SMOOTH",
"807 654 OFFCURVE",
"771 623 OFFCURVE",
"705 623 CURVE",
"721 699 LINE",
"643 699 LINE",
"546 244 LINE SMOOTH",
"519 113 OFFCURVE",
"423 55 OFFCURVE",
"305 55 CURVE SMOOTH",
"165 55 OFFCURVE",
"117 113 OFFCURVE",
"144 244 CURVE SMOOTH",
"241 699 LINE",
"163 699 LINE",
"68 250 LINE SMOOTH",
"33 88 OFFCURVE",
"115 -15 OFFCURVE",
"290 -15 CURVE SMOOTH"
);
},
{
closed = 1;
nodes = (
"486 742 LINE",
"602 912 LINE",
"521 912 LINE",
"417 742 LINE"
);
}
);
width = 814;
}
);
leftKerningGroup = U;
note = Uhornacute;
rightKerningGroup = U;
unicode = 1EE8;
},
{
glyphname = Uhorndotbelow;
lastChange = "2015-11-30 00:21:34 +0000";
layers = (
{
layerId = "EA8340D9-3B60-45BA-AE27-149F2EF80A01";
name = "Light Italic";
paths = (
{
closed = 1;
nodes = (
"488 -15 OFFCURVE",
"591 88 OFFCURVE",
"626 250 CURVE SMOOTH",
"692 561 LINE",
"798 561 OFFCURVE",
"872 628 OFFCURVE",
"889 707 CURVE SMOOTH",
"897 747 LINE",
"826 747 LINE",
"819 711 LINE SMOOTH",
"807 654 OFFCURVE",
"771 623 OFFCURVE",
"705 623 CURVE",
"721 699 LINE",
"643 699 LINE",
"546 244 LINE SMOOTH",
"519 113 OFFCURVE",
"423 55 OFFCURVE",
"305 55 CURVE SMOOTH",
"165 55 OFFCURVE",
"117 113 OFFCURVE",
"144 244 CURVE SMOOTH",
"241 699 LINE",
"163 699 LINE",
"68 250 LINE SMOOTH",
"33 88 OFFCURVE",
"115 -15 OFFCURVE",
"290 -15 CURVE SMOOTH"
);
},
{
closed = 1;
nodes = (
"286 -152 OFFCURVE",
"313 -130 OFFCURVE",
"319 -103 CURVE",
"324 -76 OFFCURVE",
"306 -54 OFFCURVE",
"281 -54 CURVE SMOOTH",
"254 -54 OFFCURVE",
"226 -76 OFFCURVE",
"221 -103 CURVE",
"215 -130 OFFCURVE",
"233 -152 OFFCURVE",
"260 -152 CURVE SMOOTH"
);
}
);
width = 814;
}
);
leftKerningGroup = U;
note = Uhorndotbelow;
rightKerningGroup = U;
unicode = 1EF0;
},
{
glyphname = Uhorngrave;
lastChange = "2015-11-30 00:21:34 +0000";
layers = (
{
layerId = "EA8340D9-3B60-45BA-AE27-149F2EF80A01";
name = "Light Italic";
paths = (
{
closed = 1;
nodes = (
"488 -15 OFFCURVE",
"591 88 OFFCURVE",
"626 250 CURVE SMOOTH",
"692 561 LINE",
"798 561 OFFCURVE",
"872 628 OFFCURVE",
"889 707 CURVE SMOOTH",
"897 747 LINE",
"826 747 LINE",
"819 711 LINE SMOOTH",
"807 654 OFFCURVE",
"771 623 OFFCURVE",
"705 623 CURVE",
"721 699 LINE",
"643 699 LINE",
"546 244 LINE SMOOTH",
"519 113 OFFCURVE",
"423 55 OFFCURVE",
"305 55 CURVE SMOOTH",
"165 55 OFFCURVE",
"117 113 OFFCURVE",
"144 244 CURVE SMOOTH",
"241 699 LINE",
"163 699 LINE",
"68 250 LINE SMOOTH",
"33 88 OFFCURVE",
"115 -15 OFFCURVE",
"290 -15 CURVE SMOOTH"
);
},
{
closed = 1;
nodes = (
"500 742 LINE",
"468 912 LINE",
"387 912 LINE",
"431 742 LINE"
);
}
);
width = 814;
}
);
leftKerningGroup = U;
note = Uhorngrave;
rightKerningGroup = U;
unicode = 1EEA;
},
{
glyphname = Uhornhookabove;
lastChange = "2015-11-30 00:21:36 +0000";
layers = (
{
layerId = "EA8340D9-3B60-45BA-AE27-149F2EF80A01";
name = "Light Italic";
paths = (
{
closed = 1;
nodes = (
"488 -15 OFFCURVE",
"591 88 OFFCURVE",
"626 250 CURVE SMOOTH",
"692 561 LINE",
"798 561 OFFCURVE",
"872 628 OFFCURVE",
"889 707 CURVE SMOOTH",
"897 747 LINE",
"826 747 LINE",
"819 711 LINE SMOOTH",
"807 654 OFFCURVE",
"771 623 OFFCURVE",
"705 623 CURVE",
"721 699 LINE",
"643 699 LINE",
"546 244 LINE SMOOTH",
"519 113 OFFCURVE",
"423 55 OFFCURVE",
"305 55 CURVE SMOOTH",
"165 55 OFFCURVE",
"117 113 OFFCURVE",
"144 244 CURVE SMOOTH",
"241 699 LINE",
"163 699 LINE",
"68 250 LINE SMOOTH",
"33 88 OFFCURVE",
"115 -15 OFFCURVE",
"290 -15 CURVE SMOOTH"
);
},
{
closed = 1;
nodes = (
"478 742 LINE",
"485 777 LINE",
"549 783 OFFCURVE",
"589 823 OFFCURVE",
"599 871 CURVE SMOOTH",
"611 926 OFFCURVE",
"571 964 OFFCURVE",
"497 964 CURVE SMOOTH",
"469 964 OFFCURVE",
"437 959 OFFCURVE",
"419 953 CURVE",
"409 908 LINE",
"422 914 OFFCURVE",
"454 918 OFFCURVE",
"471 918 CURVE SMOOTH",
"518 918 OFFCURVE",
"538 903 OFFCURVE",
"531 868 CURVE SMOOTH",
"522 827 OFFCURVE",
"489 810 OFFCURVE",
"425 810 CURVE",
"411 742 LINE"
);
}
);
width = 814;
}
);
leftKerningGroup = U;
note = Uhornhookabove;
rightKerningGroup = U;
unicode = 1EEC;
},
{
glyphname = Uhorntilde;
lastChange = "2015-11-30 00:21:34 +0000";
layers = (
{
layerId = "EA8340D9-3B60-45BA-AE27-149F2EF80A01";
name = "Light Italic";
paths = (
{
closed = 1;
nodes = (
"488 -15 OFFCURVE",
"591 88 OFFCURVE",
"626 250 CURVE SMOOTH",
"692 561 LINE",
"798 561 OFFCURVE",
"872 628 OFFCURVE",
"889 707 CURVE SMOOTH",
"897 747 LINE",
"826 747 LINE",
"819 711 LINE SMOOTH",
"807 654 OFFCURVE",
"771 623 OFFCURVE",
"705 623 CURVE",
"721 699 LINE",
"643 699 LINE",
"546 244 LINE SMOOTH",
"519 113 OFFCURVE",
"423 55 OFFCURVE",
"305 55 CURVE SMOOTH",
"165 55 OFFCURVE",
"117 113 OFFCURVE",
"144 244 CURVE SMOOTH",
"241 699 LINE",
"163 699 LINE",
"68 250 LINE SMOOTH",
"33 88 OFFCURVE",
"115 -15 OFFCURVE",
"290 -15 CURVE SMOOTH"
);
},
{
closed = 1;
nodes = (
"308 783 OFFCURVE",
"342 795 OFFCURVE",
"377 795 CURVE SMOOTH",
"441 795 OFFCURVE",
"474 745 OFFCURVE",
"547 745 CURVE SMOOTH",
"587 745 OFFCURVE",
"623 755 OFFCURVE",
"650 787 CURVE",
"665 856 LINE",
"630 816 OFFCURVE",
"595 804 OFFCURVE",
"559 804 CURVE SMOOTH",
"494 804 OFFCURVE",
"457 854 OFFCURVE",
"389 854 CURVE SMOOTH",
"350 854 OFFCURVE",
"313 843 OFFCURVE",
"285 811 CURVE",
"270 742 LINE"
);
}
);
width = 814;
}
);
leftKerningGroup = U;
note = Uhorntilde;
rightKerningGroup = U;
unicode = 1EEE;
},
{
glyphname = Uhungarumlaut;
lastChange = "2015-11-30 00:21:34 +0000";
layers = (
{
layerId = "EA8340D9-3B60-45BA-AE27-149F2EF80A01";
name = "Light Italic";
paths = (
{
closed = 1;
nodes = (
"502 -15 OFFCURVE",
"591 88 OFFCURVE",
"626 250 CURVE SMOOTH",
"721 699 LINE",
"643 699 LINE",
"546 244 LINE SMOOTH",
"519 113 OFFCURVE",
"431 55 OFFCURVE",
"305 55 CURVE SMOOTH",
"173 55 OFFCURVE",
"115 109 OFFCURVE",
"144 244 CURVE SMOOTH",
"241 699 LINE",
"163 699 LINE",
"68 250 LINE SMOOTH",
"35 94 OFFCURVE",
"113 -15 OFFCURVE",
"290 -15 CURVE SMOOTH"
);
},
{
closed = 1;
nodes = (
"377 742 LINE",
"493 912 LINE",
"412 912 LINE",
"309 742 LINE"
);
},
{
closed = 1;
nodes = (
"567 742 LINE",
"683 912 LINE",
"602 912 LINE",
"498 742 LINE"
);
}
);
width = 688;
}
);
leftKerningGroup = U;
note = Uhungarumlaut;
rightKerningGroup = U;
unicode = 0170;
},
{
glyphname = Umacron;
lastChange = "2015-11-30 00:21:37 +0000";
layers = (
{
layerId = "EA8340D9-3B60-45BA-AE27-149F2EF80A01";
name = "Light Italic";
paths = (
{
closed = 1;
nodes = (
"502 -15 OFFCURVE",
"591 88 OFFCURVE",
"626 250 CURVE SMOOTH",
"721 699 LINE",
"643 699 LINE",
"546 244 LINE SMOOTH",
"519 113 OFFCURVE",
"431 55 OFFCURVE",
"305 55 CURVE SMOOTH",
"173 55 OFFCURVE",
"115 109 OFFCURVE",
"144 244 CURVE SMOOTH",
"241 699 LINE",
"163 699 LINE",
"68 250 LINE SMOOTH",
"35 94 OFFCURVE",
"113 -15 OFFCURVE",
"290 -15 CURVE SMOOTH"
);
},
{
closed = 1;
nodes = (
"605 762 LINE",
"616 816 LINE",
"316 816 LINE",
"305 762 LINE"
);
}
);
width = 688;
}
);
leftKerningGroup = U;
note = Umacron;
rightKerningGroup = U;
unicode = 016A;
},
{
glyphname = Uogonek;
lastChange = "2015-11-30 00:21:36 +0000";
layers = (
{
layerId = "EA8340D9-3B60-45BA-AE27-149F2EF80A01";
name = "Light Italic";
paths = (
{
closed = 1;
nodes = (
"281 -210 OFFCURVE",
"306 -206 OFFCURVE",
"323 -199 CURVE",
"334 -149 LINE",
"320 -155 OFFCURVE",
"303 -159 OFFCURVE",
"285 -159 CURVE SMOOTH",
"253 -159 OFFCURVE",
"241 -145 OFFCURVE",
"248 -112 CURVE SMOOTH",
"256 -75 OFFCURVE",
"283 -43 OFFCURVE",
"327 -14 CURVE",
"512 -2 OFFCURVE",
"593 98 OFFCURVE",
"626 250 CURVE SMOOTH",
"721 699 LINE",
"643 699 LINE",
"546 244 LINE SMOOTH",
"519 113 OFFCURVE",
"431 55 OFFCURVE",
"305 55 CURVE SMOOTH",
"173 55 OFFCURVE",
"115 109 OFFCURVE",
"144 244 CURVE SMOOTH",
"241 699 LINE",
"163 699 LINE",
"68 250 LINE SMOOTH",
"37 104 OFFCURVE",
"103 0 OFFCURVE",
"257 -13 CURVE",
"219 -40 OFFCURVE",
"186 -79 OFFCURVE",
"177 -123 CURVE SMOOTH",
"165 -182 OFFCURVE",
"203 -210 OFFCURVE",
"256 -210 CURVE SMOOTH"
);
}
);
width = 688;
}
);
leftKerningGroup = U;
note = Uogonek;
rightKerningGroup = U;
unicode = 0172;
},
{
glyphname = Uring;
lastChange = "2015-11-30 00:21:36 +0000";
layers = (
{
layerId = "EA8340D9-3B60-45BA-AE27-149F2EF80A01";
name = "Light Italic";
paths = (
{
closed = 1;
nodes = (
"502 -15 OFFCURVE",
"591 88 OFFCURVE",
"626 250 CURVE SMOOTH",
"721 699 LINE",
"643 699 LINE",
"546 244 LINE SMOOTH",
"519 113 OFFCURVE",
"431 55 OFFCURVE",
"305 55 CURVE SMOOTH",
"173 55 OFFCURVE",
"115 109 OFFCURVE",
"144 244 CURVE SMOOTH",
"241 699 LINE",
"163 699 LINE",
"68 250 LINE SMOOTH",
"35 94 OFFCURVE",
"113 -15 OFFCURVE",
"290 -15 CURVE SMOOTH"
);
},
{
closed = 1;
nodes = (
"516 742 OFFCURVE",
"569 790 OFFCURVE",
"582 850 CURVE SMOOTH",
"594 909 OFFCURVE",
"556 958 OFFCURVE",
"497 958 CURVE SMOOTH",
"432 958 OFFCURVE",
"378 909 OFFCURVE",
"366 850 CURVE SMOOTH",
"353 790 OFFCURVE",
"393 742 OFFCURVE",
"451 742 CURVE SMOOTH"
);
},
{
closed = 1;
nodes = (
"422 792 OFFCURVE",
"410 819 OFFCURVE",
"417 850 CURVE SMOOTH",
"423 881 OFFCURVE",
"454 907 OFFCURVE",
"486 907 CURVE SMOOTH",
"527 907 OFFCURVE",
"537 881 OFFCURVE",
"531 850 CURVE SMOOTH",
"524 819 OFFCURVE",
"493 792 OFFCURVE",
"462 792 CURVE SMOOTH"
);
}
);
width = 688;
}
);
leftKerningGroup = U;
note = Uring;
rightKerningGroup = U;
unicode = 016E;
},
{
glyphname = Utilde;
lastChange = "2015-11-30 00:21:35 +0000";
layers = (
{
layerId = "EA8340D9-3B60-45BA-AE27-149F2EF80A01";
name = "Light Italic";
paths = (
{
closed = 1;
nodes = (
"502 -15 OFFCURVE",
"591 88 OFFCURVE",
"626 250 CURVE SMOOTH",
"721 699 LINE",
"643 699 LINE",
"546 244 LINE SMOOTH",
"519 113 OFFCURVE",
"431 55 OFFCURVE",
"305 55 CURVE SMOOTH",
"173 55 OFFCURVE",
"115 109 OFFCURVE",
"144 244 CURVE SMOOTH",
"241 699 LINE",
"163 699 LINE",
"68 250 LINE SMOOTH",
"35 94 OFFCURVE",
"113 -15 OFFCURVE",
"290 -15 CURVE SMOOTH"
);
},
{
closed = 1;
nodes = (
"304 783 OFFCURVE",
"338 795 OFFCURVE",
"373 795 CURVE SMOOTH",
"437 795 OFFCURVE",
"470 745 OFFCURVE",
"543 745 CURVE SMOOTH",
"583 745 OFFCURVE",
"619 755 OFFCURVE",
"646 787 CURVE",
"661 856 LINE",
"626 816 OFFCURVE",
"591 804 OFFCURVE",
"555 804 CURVE SMOOTH",
"490 804 OFFCURVE",
"453 854 OFFCURVE",
"385 854 CURVE SMOOTH",
"346 854 OFFCURVE",
"309 843 OFFCURVE",
"281 811 CURVE",
"266 742 LINE"
);
}
);
width = 688;
}
);
leftKerningGroup = U;
note = Utilde;
rightKerningGroup = U;
unicode = 0168;
},
{
glyphname = V;
lastChange = "2015-11-30 00:21:36 +0000";
layers = (
{
layerId = "EA8340D9-3B60-45BA-AE27-149F2EF80A01";
name = "Light Italic";
paths = (
{
closed = 1;
nodes = (
"352 0 LINE",
"779 699 LINE",
"694 699 LINE",
"334 108 LINE",
"227 699 LINE",
"148 699 LINE",
"279 0 LINE"
);
}
);
width = 731;
}
);
note = V;
unicode = 0056;
},
{
glyphname = W;
lastChange = "2015-11-30 00:21:35 +0000";
layers = (
{
layerId = "EA8340D9-3B60-45BA-AE27-149F2EF80A01";
name = "Light Italic";
paths = (
{
closed = 1;
nodes = (
"288 0 LINE",
"578 571 LINE",
"627 0 LINE",
"700 0 LINE",
"1057 699 LINE",
"976 699 LINE",
"683 131 LINE",
"635 699 LINE",
"573 699 LINE",
"281 132 LINE",
"229 699 LINE",
"148 699 LINE",
"209 0 LINE"
);
}
);
width = 1009;
}
);
leftKerningGroup = W;
note = W;
rightKerningGroup = W;
unicode = 0057;
},
{
glyphname = Wacute;
lastChange = "2015-11-30 00:21:34 +0000";
layers = (
{
layerId = "EA8340D9-3B60-45BA-AE27-149F2EF80A01";
name = "Light Italic";
paths = (
{
closed = 1;
nodes = (
"288 0 LINE",
"578 571 LINE",
"627 0 LINE",
"700 0 LINE",
"1057 699 LINE",
"976 699 LINE",
"683 131 LINE",
"635 699 LINE",
"573 699 LINE",
"281 132 LINE",
"229 699 LINE",
"148 699 LINE",
"209 0 LINE"
);
},
{
closed = 1;
nodes = (
"653 742 LINE",
"769 912 LINE",
"688 912 LINE",
"584 742 LINE"
);
}
);
width = 1009;
}
);
leftKerningGroup = W;
note = Wacute;
rightKerningGroup = W;
unicode = 1E82;
},
{
glyphname = Wcircumflex;
lastChange = "2015-11-30 00:21:37 +0000";
layers = (
{
layerId = "EA8340D9-3B60-45BA-AE27-149F2EF80A01";
name = "Light Italic";
paths = (
{
closed = 1;
nodes = (
"288 0 LINE",
"578 571 LINE",
"627 0 LINE",
"700 0 LINE",
"1057 699 LINE",
"976 699 LINE",
"683 131 LINE",
"635 699 LINE",
"573 699 LINE",
"281 132 LINE",
"229 699 LINE",
"148 699 LINE",
"209 0 LINE"
);
},
{
closed = 1;
nodes = (
"523 742 LINE",
"639 856 LINE",
"707 742 LINE",
"782 742 LINE",
"679 903 LINE",
"612 903 LINE",
"442 742 LINE"
);
}
);
width = 1009;
}
);
leftKerningGroup = W;
note = Wcircumflex;
rightKerningGroup = W;
unicode = 0174;
},
{
glyphname = Wdieresis;
lastChange = "2015-11-30 00:21:35 +0000";
layers = (
{
layerId = "EA8340D9-3B60-45BA-AE27-149F2EF80A01";
name = "Light Italic";
paths = (
{
closed = 1;
nodes = (
"288 0 LINE",
"578 571 LINE",
"627 0 LINE",
"700 0 LINE",
"1057 699 LINE",
"976 699 LINE",
"683 131 LINE",
"635 699 LINE",
"573 699 LINE",
"281 132 LINE",
"229 699 LINE",
"148 699 LINE",
"209 0 LINE"
);
},
{
closed = 1;
nodes = (
"529 742 OFFCURVE",
"556 764 OFFCURVE",
"562 791 CURVE SMOOTH",
"568 818 OFFCURVE",
"549 840 OFFCURVE",
"523 840 CURVE SMOOTH",
"496 840 OFFCURVE",
"470 818 OFFCURVE",
"464 791 CURVE SMOOTH",
"458 764 OFFCURVE",
"477 742 OFFCURVE",
"503 742 CURVE SMOOTH"
);
},
{
closed = 1;
nodes = (
"746 742 OFFCURVE",
"773 764 OFFCURVE",
"779 791 CURVE SMOOTH",
"785 818 OFFCURVE",
"766 840 OFFCURVE",
"740 840 CURVE SMOOTH",
"713 840 OFFCURVE",
"686 818 OFFCURVE",
"680 791 CURVE SMOOTH",
"674 764 OFFCURVE",
"693 742 OFFCURVE",
"720 742 CURVE SMOOTH"
);
}
);
width = 1009;
}
);
leftKerningGroup = W;
note = Wdieresis;
rightKerningGroup = W;
unicode = 1E84;
},
{
glyphname = Wgrave;
lastChange = "2015-11-30 00:21:34 +0000";
layers = (
{
layerId = "EA8340D9-3B60-45BA-AE27-149F2EF80A01";
name = "Light Italic";
paths = (
{
closed = 1;
nodes = (
"288 0 LINE",
"578 571 LINE",
"627 0 LINE",
"700 0 LINE",
"1057 699 LINE",
"976 699 LINE",
"683 131 LINE",
"635 699 LINE",
"573 699 LINE",
"281 132 LINE",
"229 699 LINE",
"148 699 LINE",
"209 0 LINE"
);
},
{
closed = 1;
nodes = (
"641 742 LINE",
"609 912 LINE",
"528 912 LINE",
"572 742 LINE"
);
}
);
width = 1009;
}
);
leftKerningGroup = W;
note = Wgrave;
rightKerningGroup = W;
unicode = 1E80;
},
{
glyphname = X;
lastChange = "2015-11-30 00:21:34 +0000";
layers = (
{
layerId = "EA8340D9-3B60-45BA-AE27-149F2EF80A01";
name = "Light Italic";
paths = (
{
closed = 1;
nodes = (
"91 0 LINE",
"374 298 LINE",
"532 0 LINE",
"619 0 LINE",
"430 357 LINE",
"756 699 LINE",
"667 699 LINE",
"399 417 LINE",
"250 699 LINE",
"163 699 LINE",
"343 358 LINE",
"2 0 LINE"
);
}
);
width = 723;
}
);
note = X;
unicode = 0058;
},
{
glyphname = Y;
lastChange = "2015-11-30 00:21:35 +0000";
layers = (
{
layerId = "EA8340D9-3B60-45BA-AE27-149F2EF80A01";
name = "Light Italic";
paths = (
{
closed = 1;
nodes = (
"332 0 LINE",
"388 265 LINE",
"734 699 LINE",
"649 699 LINE",
"361 336 LINE",
"228 699 LINE",
"148 699 LINE",
"310 265 LINE",
"254 0 LINE"
);
}
);
width = 686;
}
);
leftKerningGroup = Y;
note = Y;
rightKerningGroup = Y;
unicode = 0059;
},
{
glyphname = Yacute;
lastChange = "2015-11-30 00:21:37 +0000";
layers = (
{
layerId = "EA8340D9-3B60-45BA-AE27-149F2EF80A01";
name = "Light Italic";
paths = (
{
closed = 1;
nodes = (
"332 0 LINE",
"388 265 LINE",
"734 699 LINE",
"649 699 LINE",
"361 336 LINE",
"228 699 LINE",
"148 699 LINE",
"310 265 LINE",
"254 0 LINE"
);
},
{
closed = 1;
nodes = (
"479 742 LINE",
"595 912 LINE",
"514 912 LINE",
"410 742 LINE"
);
}
);
width = 686;
}
);
leftKerningGroup = Y;
note = Yacute;
rightKerningGroup = Y;
unicode = 00DD;
},
{
glyphname = Ycircumflex;
lastChange = "2015-11-30 00:21:36 +0000";
layers = (
{
layerId = "EA8340D9-3B60-45BA-AE27-149F2EF80A01";
name = "Light Italic";
paths = (
{
closed = 1;
nodes = (
"332 0 LINE",
"388 265 LINE",
"734 699 LINE",
"649 699 LINE",
"361 336 LINE",
"228 699 LINE",
"148 699 LINE",
"310 265 LINE",
"254 0 LINE"
);
},
{
closed = 1;
nodes = (
"362 742 LINE",
"478 856 LINE",
"546 742 LINE",
"621 742 LINE",
"518 903 LINE",
"451 903 LINE",
"281 742 LINE"
);
}
);
width = 686;
}
);
leftKerningGroup = Y;
note = Ycircumflex;
rightKerningGroup = Y;
unicode = 0176;
},
{
glyphname = Ydieresis;
lastChange = "2015-11-30 00:21:35 +0000";
layers = (
{
layerId = "EA8340D9-3B60-45BA-AE27-149F2EF80A01";
name = "Light Italic";
paths = (
{
closed = 1;
nodes = (
"332 0 LINE",
"388 265 LINE",
"734 699 LINE",
"649 699 LINE",
"361 336 LINE",
"228 699 LINE",
"148 699 LINE",
"310 265 LINE",
"254 0 LINE"
);
},
{
closed = 1;
nodes = (
"368 742 OFFCURVE",
"395 764 OFFCURVE",
"401 791 CURVE SMOOTH",
"407 818 OFFCURVE",
"388 840 OFFCURVE",
"362 840 CURVE SMOOTH",
"335 840 OFFCURVE",
"309 818 OFFCURVE",
"303 791 CURVE SMOOTH",
"297 764 OFFCURVE",
"316 742 OFFCURVE",
"342 742 CURVE SMOOTH"
);
},
{
closed = 1;
nodes = (
"585 742 OFFCURVE",
"612 764 OFFCURVE",
"618 791 CURVE SMOOTH",
"624 818 OFFCURVE",
"605 840 OFFCURVE",
"579 840 CURVE SMOOTH",
"552 840 OFFCURVE",
"525 818 OFFCURVE",
"519 791 CURVE SMOOTH",
"513 764 OFFCURVE",
"532 742 OFFCURVE",
"559 742 CURVE SMOOTH"
);
}
);
width = 686;
}
);
leftKerningGroup = Y;
note = Ydieresis;
rightKerningGroup = Y;
unicode = 0178;
},
{
glyphname = Ydotaccent;
lastChange = "2015-11-30 00:21:35 +0000";
layers = (
{
layerId = "EA8340D9-3B60-45BA-AE27-149F2EF80A01";
name = "Light Italic";
paths = (
{
closed = 1;
nodes = (
"332 0 LINE",
"388 265 LINE",
"734 699 LINE",
"649 699 LINE",
"361 336 LINE",
"228 699 LINE",
"148 699 LINE",
"310 265 LINE",
"254 0 LINE"
);
},
{
closed = 1;
nodes = (
"477 742 OFFCURVE",
"504 764 OFFCURVE",
"510 791 CURVE SMOOTH",
"516 818 OFFCURVE",
"497 840 OFFCURVE",
"471 840 CURVE SMOOTH",
"444 840 OFFCURVE",
"417 818 OFFCURVE",
"411 791 CURVE SMOOTH",
"405 764 OFFCURVE",
"424 742 OFFCURVE",
"451 742 CURVE SMOOTH"
);
}
);
width = 686;
}
);
leftKerningGroup = Y;
note = Ydotaccent;
rightKerningGroup = Y;
unicode = 1E8E;
},
{
glyphname = Ydotbelow;
lastChange = "2015-11-30 00:21:36 +0000";
layers = (
{
layerId = "EA8340D9-3B60-45BA-AE27-149F2EF80A01";
name = "Light Italic";
paths = (
{
closed = 1;
nodes = (
"332 0 LINE",
"388 265 LINE",
"734 699 LINE",
"649 699 LINE",
"361 336 LINE",
"228 699 LINE",
"148 699 LINE",
"310 265 LINE",
"254 0 LINE"
);
},
{
closed = 1;
nodes = (
"288 -152 OFFCURVE",
"315 -130 OFFCURVE",
"321 -103 CURVE",
"326 -76 OFFCURVE",
"308 -54 OFFCURVE",
"283 -54 CURVE SMOOTH",
"256 -54 OFFCURVE",
"228 -76 OFFCURVE",
"223 -103 CURVE",
"217 -130 OFFCURVE",
"235 -152 OFFCURVE",
"262 -152 CURVE SMOOTH"
);
}
);
width = 686;
}
);
leftKerningGroup = Y;
note = Ydotbelow;
rightKerningGroup = Y;
unicode = 1EF4;
},
{
glyphname = Ygrave;
lastChange = "2015-11-30 00:21:35 +0000";
layers = (
{
layerId = "EA8340D9-3B60-45BA-AE27-149F2EF80A01";
name = "Light Italic";
paths = (
{
closed = 1;
nodes = (
"332 0 LINE",
"388 265 LINE",
"734 699 LINE",
"649 699 LINE",
"361 336 LINE",
"228 699 LINE",
"148 699 LINE",
"310 265 LINE",
"254 0 LINE"
);
},
{
closed = 1;
nodes = (
"483 742 LINE",
"451 912 LINE",
"370 912 LINE",
"414 742 LINE"
);
}
);
width = 686;
}
);
leftKerningGroup = Y;
note = Ygrave;
rightKerningGroup = Y;
unicode = 1EF2;
},
{
glyphname = Yhookabove;
lastChange = "2015-11-30 00:21:35 +0000";
layers = (
{
layerId = "EA8340D9-3B60-45BA-AE27-149F2EF80A01";
name = "Light Italic";
paths = (
{
closed = 1;
nodes = (
"332 0 LINE",
"388 265 LINE",
"734 699 LINE",
"649 699 LINE",
"361 336 LINE",
"228 699 LINE",
"148 699 LINE",
"310 265 LINE",
"254 0 LINE"
);
},
{
closed = 1;
nodes = (
"477 742 LINE",
"484 777 LINE",
"548 783 OFFCURVE",
"588 823 OFFCURVE",
"598 871 CURVE SMOOTH",
"610 926 OFFCURVE",
"570 964 OFFCURVE",
"496 964 CURVE SMOOTH",
"468 964 OFFCURVE",
"436 959 OFFCURVE",
"418 953 CURVE",
"408 908 LINE",
"421 914 OFFCURVE",
"453 918 OFFCURVE",
"470 918 CURVE SMOOTH",
"517 918 OFFCURVE",
"537 903 OFFCURVE",
"530 868 CURVE SMOOTH",
"521 827 OFFCURVE",
"488 810 OFFCURVE",
"424 810 CURVE",
"410 742 LINE"
);
}
);
width = 686;
}
);
leftKerningGroup = Y;
note = Yhookabove;
rightKerningGroup = Y;
unicode = 1EF6;
},
{
glyphname = Ytilde;
lastChange = "2015-11-30 00:21:37 +0000";
layers = (
{
layerId = "EA8340D9-3B60-45BA-AE27-149F2EF80A01";
name = "Light Italic";
paths = (
{
closed = 1;
nodes = (
"332 0 LINE",
"388 265 LINE",
"734 699 LINE",
"649 699 LINE",
"361 336 LINE",
"228 699 LINE",
"148 699 LINE",
"310 265 LINE",
"254 0 LINE"
);
},
{
closed = 1;
nodes = (
"303 783 OFFCURVE",
"337 795 OFFCURVE",
"372 795 CURVE SMOOTH",
"436 795 OFFCURVE",
"469 745 OFFCURVE",
"542 745 CURVE SMOOTH",
"582 745 OFFCURVE",
"618 755 OFFCURVE",
"645 787 CURVE",
"660 856 LINE",
"625 816 OFFCURVE",
"590 804 OFFCURVE",
"554 804 CURVE SMOOTH",
"489 804 OFFCURVE",
"452 854 OFFCURVE",
"384 854 CURVE SMOOTH",
"345 854 OFFCURVE",
"308 843 OFFCURVE",
"280 811 CURVE",
"265 742 LINE"
);
}
);
width = 686;
}
);
leftKerningGroup = Y;
note = Ytilde;
rightKerningGroup = Y;
unicode = 1EF8;
},
{
glyphname = Z;
lastChange = "2015-11-30 00:21:37 +0000";
layers = (
{
layerId = "EA8340D9-3B60-45BA-AE27-149F2EF80A01";
name = "Light Italic";
paths = (
{
closed = 1;
nodes = (
"517 0 LINE",
"530 65 LINE",
"108 65 LINE",
"638 643 LINE",
"650 699 LINE",
"158 699 LINE",
"144 633 LINE",
"542 633 LINE",
"11 55 LINE",
"0 0 LINE"
);
}
);
width = 617;
}
);
leftKerningGroup = Z;
note = Z;
rightKerningGroup = Z;
unicode = 005A;
},
{
glyphname = Zacute;
lastChange = "2015-11-30 00:21:35 +0000";
layers = (
{
layerId = "EA8340D9-3B60-45BA-AE27-149F2EF80A01";
name = "Light Italic";
paths = (
{
closed = 1;
nodes = (
"517 0 LINE",
"530 65 LINE",
"108 65 LINE",
"638 643 LINE",
"650 699 LINE",
"158 699 LINE",
"144 633 LINE",
"542 633 LINE",
"11 55 LINE",
"0 0 LINE"
);
},
{
closed = 1;
nodes = (
"427 742 LINE",
"543 912 LINE",
"462 912 LINE",
"358 742 LINE"
);
}
);
width = 617;
}
);
leftKerningGroup = Z;
note = Zacute;
rightKerningGroup = Z;
unicode = 0179;
},
{
glyphname = Zcaron;
lastChange = "2015-11-30 00:21:36 +0000";
layers = (
{
layerId = "EA8340D9-3B60-45BA-AE27-149F2EF80A01";
name = "Light Italic";
paths = (
{
closed = 1;
nodes = (
"517 0 LINE",
"530 65 LINE",
"108 65 LINE",
"638 643 LINE",
"650 699 LINE",
"158 699 LINE",
"144 633 LINE",
"542 633 LINE",
"11 55 LINE",
"0 0 LINE"
);
},
{
closed = 1;
nodes = (
"449 742 LINE",
"621 903 LINE",
"540 903 LINE",
"423 789 LINE",
"356 903 LINE",
"281 903 LINE",
"382 742 LINE"
);
}
);
width = 617;
}
);
leftKerningGroup = Z;
note = Zcaron;
rightKerningGroup = Z;
unicode = 017D;
},
{
glyphname = Zdotaccent;
lastChange = "2015-11-30 00:21:35 +0000";
layers = (
{
layerId = "EA8340D9-3B60-45BA-AE27-149F2EF80A01";
name = "Light Italic";
paths = (
{
closed = 1;
nodes = (
"517 0 LINE",
"530 65 LINE",
"108 65 LINE",
"638 643 LINE",
"650 699 LINE",
"158 699 LINE",
"144 633 LINE",
"542 633 LINE",
"11 55 LINE",
"0 0 LINE"
);
},
{
closed = 1;
nodes = (
"432 742 OFFCURVE",
"459 764 OFFCURVE",
"465 791 CURVE SMOOTH",
"471 818 OFFCURVE",
"452 840 OFFCURVE",
"426 840 CURVE SMOOTH",
"399 840 OFFCURVE",
"372 818 OFFCURVE",
"366 791 CURVE SMOOTH",
"360 764 OFFCURVE",
"379 742 OFFCURVE",
"406 742 CURVE SMOOTH"
);
}
);
width = 617;
}
);
leftKerningGroup = Z;
note = Zdotaccent;
rightKerningGroup = Z;
unicode = 017B;
},
{
glyphname = Zdotbelow;
lastChange = "2015-11-30 00:21:36 +0000";
layers = (
{
layerId = "EA8340D9-3B60-45BA-AE27-149F2EF80A01";
name = "Light Italic";
paths = (
{
closed = 1;
nodes = (
"517 0 LINE",
"530 65 LINE",
"108 65 LINE",
"638 643 LINE",
"650 699 LINE",
"158 699 LINE",
"144 633 LINE",
"542 633 LINE",
"11 55 LINE",
"0 0 LINE"
);
},
{
closed = 1;
nodes = (
"262 -152 OFFCURVE",
"289 -130 OFFCURVE",
"295 -103 CURVE",
"300 -76 OFFCURVE",
"282 -54 OFFCURVE",
"257 -54 CURVE SMOOTH",
"230 -54 OFFCURVE",
"202 -76 OFFCURVE",
"197 -103 CURVE",
"191 -130 OFFCURVE",
"209 -152 OFFCURVE",
"236 -152 CURVE SMOOTH"
);
}
);
width = 617;
}
);
leftKerningGroup = Z;
note = Zdotbelow;
rightKerningGroup = Z;
unicode = 1E92;
},
{
glyphname = a;
lastChange = "2015-11-30 00:21:34 +0000";
layers = (
{
layerId = "EA8340D9-3B60-45BA-AE27-149F2EF80A01";
name = "Light Italic";
paths = (
{
closed = 1;
nodes = (
"347 -15 OFFCURVE",
"413 9 OFFCURVE",
"477 75 CURVE",
"461 0 LINE",
"536 0 LINE",
"638 480 LINE",
"561 480 LINE",
"543 399 LINE",
"513 459 OFFCURVE",
"449 495 OFFCURVE",
"356 495 CURVE SMOOTH",
"213 495 OFFCURVE",
"83 392 OFFCURVE",
"50 239 CURVE SMOOTH",
"17 83 OFFCURVE",
"105 -15 OFFCURVE",
"247 -15 CURVE SMOOTH"
);
},
{
closed = 1;
nodes = (
"170 46 OFFCURVE",
"102 122 OFFCURVE",
"127 239 CURVE SMOOTH",
"152 356 OFFCURVE",
"253 433 OFFCURVE",
"359 433 CURVE SMOOTH",
"459 433 OFFCURVE",
"515 382 OFFCURVE",
"522 299 CURVE",
"497 179 LINE",
"452 96 OFFCURVE",
"367 46 OFFCURVE",
"276 46 CURVE SMOOTH"
);
}
);
width = 651;
}
);
leftKerningGroup = a;
note = a;
rightKerningGroup = a;
unicode = 0061;
},
{
glyphname = aacute;
lastChange = "2015-11-30 00:21:36 +0000";
layers = (
{
layerId = "EA8340D9-3B60-45BA-AE27-149F2EF80A01";
name = "Light Italic";
paths = (
{
closed = 1;
nodes = (
"347 -15 OFFCURVE",
"413 9 OFFCURVE",
"477 75 CURVE",
"461 0 LINE",
"536 0 LINE",
"638 480 LINE",
"561 480 LINE",
"543 399 LINE",
"513 459 OFFCURVE",
"449 495 OFFCURVE",
"356 495 CURVE SMOOTH",
"213 495 OFFCURVE",
"83 392 OFFCURVE",
"50 239 CURVE SMOOTH",
"17 83 OFFCURVE",
"105 -15 OFFCURVE",
"247 -15 CURVE SMOOTH"
);
},
{
closed = 1;
nodes = (
"170 46 OFFCURVE",
"102 122 OFFCURVE",
"127 239 CURVE SMOOTH",
"152 356 OFFCURVE",
"253 433 OFFCURVE",
"359 433 CURVE SMOOTH",
"459 433 OFFCURVE",
"515 382 OFFCURVE",
"522 299 CURVE",
"497 179 LINE",
"452 96 OFFCURVE",
"367 46 OFFCURVE",
"276 46 CURVE SMOOTH"
);
},
{
closed = 1;
nodes = (
"475 535 LINE",
"591 705 LINE",
"510 705 LINE",
"406 535 LINE"
);
}
);
width = 651;
}
);
leftKerningGroup = a;
note = aacute;
rightKerningGroup = a;
unicode = 00E1;
},
{
glyphname = abreve;
lastChange = "2015-11-30 00:21:36 +0000";
layers = (
{
layerId = "EA8340D9-3B60-45BA-AE27-149F2EF80A01";
name = "Light Italic";
paths = (
{
closed = 1;
nodes = (
"347 -15 OFFCURVE",
"413 9 OFFCURVE",
"477 75 CURVE",
"461 0 LINE",
"536 0 LINE",
"638 480 LINE",
"561 480 LINE",
"543 399 LINE",
"513 459 OFFCURVE",
"449 495 OFFCURVE",
"356 495 CURVE SMOOTH",
"213 495 OFFCURVE",
"83 392 OFFCURVE",
"50 239 CURVE SMOOTH",
"17 83 OFFCURVE",
"105 -15 OFFCURVE",
"247 -15 CURVE SMOOTH"
);
},
{
closed = 1;
nodes = (
"170 46 OFFCURVE",
"102 122 OFFCURVE",
"127 239 CURVE SMOOTH",
"152 356 OFFCURVE",
"253 433 OFFCURVE",
"359 433 CURVE SMOOTH",
"459 433 OFFCURVE",
"515 382 OFFCURVE",
"522 299 CURVE",
"497 179 LINE",
"452 96 OFFCURVE",
"367 46 OFFCURVE",
"276 46 CURVE SMOOTH"
);
},
{
closed = 1;
nodes = (
"540 535 OFFCURVE",
"605 590 OFFCURVE",
"621 665 CURVE",
"559 665 LINE",
"550 619 OFFCURVE",
"513 589 OFFCURVE",
"463 589 CURVE SMOOTH",
"413 589 OFFCURVE",
"390 619 OFFCURVE",
"399 665 CURVE",
"342 665 LINE",
"327 590 OFFCURVE",
"369 535 OFFCURVE",
"455 535 CURVE SMOOTH"
);
}
);
width = 651;
}
);
leftKerningGroup = a;
note = abreve;
rightKerningGroup = a;
unicode = 0103;
},
{
glyphname = abreveacute;
lastChange = "2015-11-30 00:21:35 +0000";
layers = (
{
layerId = "EA8340D9-3B60-45BA-AE27-149F2EF80A01";
name = "Light Italic";
paths = (
{
closed = 1;
nodes = (
"347 -15 OFFCURVE",
"413 9 OFFCURVE",
"477 75 CURVE",
"461 0 LINE",
"536 0 LINE",
"638 480 LINE",
"561 480 LINE",
"543 399 LINE",
"513 459 OFFCURVE",
"449 495 OFFCURVE",
"356 495 CURVE SMOOTH",
"213 495 OFFCURVE",
"83 392 OFFCURVE",
"50 239 CURVE SMOOTH",
"17 83 OFFCURVE",
"105 -15 OFFCURVE",
"247 -15 CURVE SMOOTH"
);
},
{
closed = 1;
nodes = (
"170 46 OFFCURVE",
"102 122 OFFCURVE",
"127 239 CURVE SMOOTH",
"152 356 OFFCURVE",
"253 433 OFFCURVE",
"359 433 CURVE SMOOTH",
"459 433 OFFCURVE",
"515 382 OFFCURVE",
"522 299 CURVE",
"497 179 LINE",
"452 96 OFFCURVE",
"367 46 OFFCURVE",
"276 46 CURVE SMOOTH"
);
},
{
closed = 1;
nodes = (
"526 535 OFFCURVE",
"591 589 OFFCURVE",
"606 663 CURVE",
"549 663 LINE",
"539 617 OFFCURVE",
"504 588 OFFCURVE",
"454 588 CURVE SMOOTH",
"405 588 OFFCURVE",
"381 617 OFFCURVE",
"391 663 CURVE",
"333 663 LINE",
"317 589 OFFCURVE",
"358 535 OFFCURVE",
"442 535 CURVE SMOOTH"
);
},
{
closed = 1;
nodes = (
"486 648 LINE",
"575 771 LINE",
"511 771 LINE",
"432 648 LINE"
);
}
);
width = 651;
}
);
leftKerningGroup = a;
note = abreveacute;
rightKerningGroup = a;
unicode = 1EAF;
},
{
glyphname = abrevedotbelow;
lastChange = "2015-11-30 00:21:36 +0000";
layers = (
{
layerId = "EA8340D9-3B60-45BA-AE27-149F2EF80A01";
name = "Light Italic";
paths = (
{
closed = 1;
nodes = (
"347 -15 OFFCURVE",
"413 9 OFFCURVE",
"477 75 CURVE",
"461 0 LINE",
"536 0 LINE",
"638 480 LINE",
"561 480 LINE",
"543 399 LINE",
"513 459 OFFCURVE",
"449 495 OFFCURVE",
"356 495 CURVE SMOOTH",
"213 495 OFFCURVE",
"83 392 OFFCURVE",
"50 239 CURVE SMOOTH",
"17 83 OFFCURVE",
"105 -15 OFFCURVE",
"247 -15 CURVE SMOOTH"
);
},
{
closed = 1;
nodes = (
"317 -152 OFFCURVE",
"344 -130 OFFCURVE",
"350 -103 CURVE",
"355 -76 OFFCURVE",
"337 -54 OFFCURVE",
"312 -54 CURVE SMOOTH",
"285 -54 OFFCURVE",
"257 -76 OFFCURVE",
"252 -103 CURVE",
"246 -130 OFFCURVE",
"264 -152 OFFCURVE",
"291 -152 CURVE SMOOTH"
);
},
{
closed = 1;
nodes = (
"170 46 OFFCURVE",
"102 122 OFFCURVE",
"127 239 CURVE SMOOTH",
"152 356 OFFCURVE",
"253 433 OFFCURVE",
"359 433 CURVE SMOOTH",
"459 433 OFFCURVE",
"515 382 OFFCURVE",
"522 299 CURVE",
"497 179 LINE",
"452 96 OFFCURVE",
"367 46 OFFCURVE",
"276 46 CURVE SMOOTH"
);
},
{
closed = 1;
nodes = (
"520 535 OFFCURVE",
"585 590 OFFCURVE",
"601 665 CURVE",
"539 665 LINE",
"530 619 OFFCURVE",
"493 589 OFFCURVE",
"443 589 CURVE SMOOTH",
"393 589 OFFCURVE",
"370 619 OFFCURVE",
"379 665 CURVE",
"322 665 LINE",
"307 590 OFFCURVE",
"349 535 OFFCURVE",
"435 535 CURVE SMOOTH"
);
}
);
width = 651;
}
);
leftKerningGroup = a;
note = abrevedotbelow;
rightKerningGroup = a;
unicode = 1EB7;
},
{
glyphname = abrevegrave;
lastChange = "2015-11-30 00:21:34 +0000";
layers = (
{
layerId = "EA8340D9-3B60-45BA-AE27-149F2EF80A01";
name = "Light Italic";
paths = (
{
closed = 1;
nodes = (
"347 -15 OFFCURVE",
"413 9 OFFCURVE",
"477 75 CURVE",
"461 0 LINE",
"536 0 LINE",
"638 480 LINE",
"561 480 LINE",
"543 399 LINE",
"513 459 OFFCURVE",
"449 495 OFFCURVE",
"356 495 CURVE SMOOTH",
"213 495 OFFCURVE",
"83 392 OFFCURVE",
"50 239 CURVE SMOOTH",
"17 83 OFFCURVE",
"105 -15 OFFCURVE",
"247 -15 CURVE SMOOTH"
);
},
{
closed = 1;
nodes = (
"170 46 OFFCURVE",
"102 122 OFFCURVE",
"127 239 CURVE SMOOTH",
"152 356 OFFCURVE",
"253 433 OFFCURVE",
"359 433 CURVE SMOOTH",
"459 433 OFFCURVE",
"515 382 OFFCURVE",
"522 299 CURVE",
"497 179 LINE",
"452 96 OFFCURVE",
"367 46 OFFCURVE",
"276 46 CURVE SMOOTH"
);
},
{
closed = 1;
nodes = (
"530 535 OFFCURVE",
"595 589 OFFCURVE",
"610 663 CURVE",
"553 663 LINE",
"543 617 OFFCURVE",
"508 588 OFFCURVE",
"458 588 CURVE SMOOTH",
"409 588 OFFCURVE",
"385 617 OFFCURVE",
"395 663 CURVE",
"337 663 LINE",
"321 589 OFFCURVE",
"362 535 OFFCURVE",
"446 535 CURVE SMOOTH"
);
},
{
closed = 1;
nodes = (
"507 648 LINE",
"480 771 LINE",
"415 771 LINE",
"453 648 LINE"
);
}
);
width = 651;
}
);
leftKerningGroup = a;
note = abrevegrave;
rightKerningGroup = a;
unicode = 1EB1;
},
{
glyphname = abrevehookabove;
lastChange = "2015-11-30 00:21:37 +0000";
layers = (
{
layerId = "EA8340D9-3B60-45BA-AE27-149F2EF80A01";
name = "Light Italic";
paths = (
{
closed = 1;
nodes = (
"347 -15 OFFCURVE",
"413 9 OFFCURVE",
"477 75 CURVE",
"461 0 LINE",
"536 0 LINE",
"638 480 LINE",
"561 480 LINE",
"543 399 LINE",
"513 459 OFFCURVE",
"449 495 OFFCURVE",
"356 495 CURVE SMOOTH",
"213 495 OFFCURVE",
"83 392 OFFCURVE",
"50 239 CURVE SMOOTH",
"17 83 OFFCURVE",
"105 -15 OFFCURVE",
"247 -15 CURVE SMOOTH"
);
},
{
closed = 1;
nodes = (
"170 46 OFFCURVE",
"102 122 OFFCURVE",
"127 239 CURVE SMOOTH",
"152 356 OFFCURVE",
"253 433 OFFCURVE",
"359 433 CURVE SMOOTH",
"459 433 OFFCURVE",
"515 382 OFFCURVE",
"522 299 CURVE",
"497 179 LINE",
"452 96 OFFCURVE",
"367 46 OFFCURVE",
"276 46 CURVE SMOOTH"
);
},
{
closed = 1;
nodes = (
"526 535 OFFCURVE",
"591 589 OFFCURVE",
"606 663 CURVE",
"550 663 LINE",
"540 617 OFFCURVE",
"504 587 OFFCURVE",
"454 587 CURVE SMOOTH",
"404 587 OFFCURVE",
"380 617 OFFCURVE",
"390 663 CURVE",
"333 663 LINE",
"317 589 OFFCURVE",
"358 535 OFFCURVE",
"442 535 CURVE SMOOTH"
);
},
{
closed = 1;
nodes = (
"486 635 LINE",
"491 660 LINE",
"535 666 OFFCURVE",
"565 693 OFFCURVE",
"572 725 CURVE SMOOTH",
"580 765 OFFCURVE",
"557 791 OFFCURVE",
"502 791 CURVE SMOOTH",
"481 791 OFFCURVE",
"455 787 OFFCURVE",
"440 782 CURVE",
"432 746 LINE",
"443 751 OFFCURVE",
"463 754 OFFCURVE",
"479 754 CURVE SMOOTH",
"508 754 OFFCURVE",
"521 743 OFFCURVE",
"516 721 CURVE SMOOTH",
"511 697 OFFCURVE",
"489 685 OFFCURVE",
"446 685 CURVE",
"436 635 LINE"
);
}
);
width = 651;
}
);
leftKerningGroup = a;
note = abrevehookabove;
rightKerningGroup = a;
unicode = 1EB3;
},
{
glyphname = abrevetilde;
lastChange = "2015-11-30 00:21:37 +0000";
layers = (
{
layerId = "EA8340D9-3B60-45BA-AE27-149F2EF80A01";
name = "Light Italic";
paths = (
{
closed = 1;
nodes = (
"347 -15 OFFCURVE",
"413 9 OFFCURVE",
"477 75 CURVE",
"461 0 LINE",
"536 0 LINE",
"638 480 LINE",
"561 480 LINE",
"543 399 LINE",
"513 459 OFFCURVE",
"449 495 OFFCURVE",
"356 495 CURVE SMOOTH",
"213 495 OFFCURVE",
"83 392 OFFCURVE",
"50 239 CURVE SMOOTH",
"17 83 OFFCURVE",
"105 -15 OFFCURVE",
"247 -15 CURVE SMOOTH"
);
},
{
closed = 1;
nodes = (
"170 46 OFFCURVE",
"102 122 OFFCURVE",
"127 239 CURVE SMOOTH",
"152 356 OFFCURVE",
"253 433 OFFCURVE",
"359 433 CURVE SMOOTH",
"459 433 OFFCURVE",
"515 382 OFFCURVE",
"522 299 CURVE",
"497 179 LINE",
"452 96 OFFCURVE",
"367 46 OFFCURVE",
"276 46 CURVE SMOOTH"
);
},
{
closed = 1;
nodes = (
"539 535 OFFCURVE",
"604 589 OFFCURVE",
"619 663 CURVE",
"563 663 LINE",
"553 617 OFFCURVE",
"517 587 OFFCURVE",
"467 587 CURVE SMOOTH",
"417 587 OFFCURVE",
"393 617 OFFCURVE",
"403 663 CURVE",
"346 663 LINE",
"330 589 OFFCURVE",
"371 535 OFFCURVE",
"455 535 CURVE SMOOTH"
);
},
{
closed = 1;
nodes = (
"352 715 OFFCURVE",
"381 725 OFFCURVE",
"411 725 CURVE SMOOTH",
"467 725 OFFCURVE",
"497 682 OFFCURVE",
"561 682 CURVE SMOOTH",
"596 682 OFFCURVE",
"626 690 OFFCURVE",
"650 718 CURVE",
"663 779 LINE",
"632 744 OFFCURVE",
"603 733 OFFCURVE",
"572 733 CURVE SMOOTH",
"515 733 OFFCURVE",
"482 777 OFFCURVE",
"422 777 CURVE SMOOTH",
"388 777 OFFCURVE",
"356 768 OFFCURVE",
"331 740 CURVE",
"318 679 LINE"
);
}
);
width = 651;
}
);
leftKerningGroup = a;
note = abrevetilde;
rightKerningGroup = a;
unicode = 1EB5;
},
{
glyphname = acaron;
lastChange = "2015-11-30 00:21:36 +0000";
layers = (
{
layerId = "EA8340D9-3B60-45BA-AE27-149F2EF80A01";
name = "Light Italic";
paths = (
{
closed = 1;
nodes = (
"347 -15 OFFCURVE",
"413 9 OFFCURVE",
"477 75 CURVE",
"461 0 LINE",
"536 0 LINE",
"638 480 LINE",
"561 480 LINE",
"543 399 LINE",
"513 459 OFFCURVE",
"449 495 OFFCURVE",
"356 495 CURVE SMOOTH",
"213 495 OFFCURVE",
"83 392 OFFCURVE",
"50 239 CURVE SMOOTH",
"17 83 OFFCURVE",
"105 -15 OFFCURVE",
"247 -15 CURVE SMOOTH"
);
},
{
closed = 1;
nodes = (
"170 46 OFFCURVE",
"102 122 OFFCURVE",
"127 239 CURVE SMOOTH",
"152 356 OFFCURVE",
"253 433 OFFCURVE",
"359 433 CURVE SMOOTH",
"459 433 OFFCURVE",
"515 382 OFFCURVE",
"522 299 CURVE",
"497 179 LINE",
"452 96 OFFCURVE",
"367 46 OFFCURVE",
"276 46 CURVE SMOOTH"
);
},
{
closed = 1;
nodes = (
"476 535 LINE",
"648 696 LINE",
"567 696 LINE",
"450 582 LINE",
"383 696 LINE",
"308 696 LINE",
"409 535 LINE"
);
}
);
width = 651;
}
);
leftKerningGroup = a;
note = acaron;
rightKerningGroup = a;
unicode = 01CE;
},
{
glyphname = acircumflex;
lastChange = "2015-11-30 00:21:36 +0000";
layers = (
{
layerId = "EA8340D9-3B60-45BA-AE27-149F2EF80A01";
name = "Light Italic";
paths = (
{
closed = 1;
nodes = (
"347 -15 OFFCURVE",
"413 9 OFFCURVE",
"477 75 CURVE",
"461 0 LINE",
"536 0 LINE",
"638 480 LINE",
"561 480 LINE",
"543 399 LINE",
"513 459 OFFCURVE",
"449 495 OFFCURVE",
"356 495 CURVE SMOOTH",
"213 495 OFFCURVE",
"83 392 OFFCURVE",
"50 239 CURVE SMOOTH",
"17 83 OFFCURVE",
"105 -15 OFFCURVE",
"247 -15 CURVE SMOOTH"
);
},
{
closed = 1;
nodes = (
"170 46 OFFCURVE",
"102 122 OFFCURVE",
"127 239 CURVE SMOOTH",
"152 356 OFFCURVE",
"253 433 OFFCURVE",
"359 433 CURVE SMOOTH",
"459 433 OFFCURVE",
"515 382 OFFCURVE",
"522 299 CURVE",
"497 179 LINE",
"452 96 OFFCURVE",
"367 46 OFFCURVE",
"276 46 CURVE SMOOTH"
);
},
{
closed = 1;
nodes = (
"355 535 LINE",
"471 649 LINE",
"539 535 LINE",
"614 535 LINE",
"511 696 LINE",
"444 696 LINE",
"274 535 LINE"
);
}
);
width = 651;
}
);
leftKerningGroup = a;
note = acircumflex;
rightKerningGroup = a;
unicode = 00E2;
},
{
glyphname = acircumflexacute;
lastChange = "2015-11-30 00:21:35 +0000";
layers = (
{
layerId = "EA8340D9-3B60-45BA-AE27-149F2EF80A01";
name = "Light Italic";
paths = (
{
closed = 1;
nodes = (
"347 -15 OFFCURVE",
"413 9 OFFCURVE",
"477 75 CURVE",
"461 0 LINE",
"536 0 LINE",
"638 480 LINE",
"561 480 LINE",
"543 399 LINE",
"513 459 OFFCURVE",
"449 495 OFFCURVE",
"356 495 CURVE SMOOTH",
"213 495 OFFCURVE",
"83 392 OFFCURVE",
"50 239 CURVE SMOOTH",
"17 83 OFFCURVE",
"105 -15 OFFCURVE",
"247 -15 CURVE SMOOTH"
);
},
{
closed = 1;
nodes = (
"170 46 OFFCURVE",
"102 122 OFFCURVE",
"127 239 CURVE SMOOTH",
"152 356 OFFCURVE",
"253 433 OFFCURVE",
"359 433 CURVE SMOOTH",
"459 433 OFFCURVE",
"515 382 OFFCURVE",
"522 299 CURVE",
"497 179 LINE",
"452 96 OFFCURVE",
"367 46 OFFCURVE",
"276 46 CURVE SMOOTH"
);
},
{
closed = 1;
nodes = (
"355 535 LINE",
"468 630 LINE",
"539 535 LINE",
"616 535 LINE",
"510 673 LINE",
"443 673 LINE",
"276 535 LINE"
);
},
{
closed = 1;
nodes = (
"609 638 LINE",
"715 758 LINE",
"651 758 LINE",
"555 638 LINE"
);
}
);
width = 651;
}
);
leftKerningGroup = a;
note = acircumflexacute;
rightKerningGroup = a;
unicode = 1EA5;
},
{
glyphname = acircumflexdotbelow;
lastChange = "2015-11-30 00:21:36 +0000";
layers = (
{
layerId = "EA8340D9-3B60-45BA-AE27-149F2EF80A01";
name = "Light Italic";
paths = (
{
closed = 1;
nodes = (
"347 -15 OFFCURVE",
"413 9 OFFCURVE",
"477 75 CURVE",
"461 0 LINE",
"536 0 LINE",
"638 480 LINE",
"561 480 LINE",
"543 399 LINE",
"513 459 OFFCURVE",
"449 495 OFFCURVE",
"356 495 CURVE SMOOTH",
"213 495 OFFCURVE",
"83 392 OFFCURVE",
"50 239 CURVE SMOOTH",
"17 83 OFFCURVE",
"105 -15 OFFCURVE",
"247 -15 CURVE SMOOTH"
);
},
{
closed = 1;
nodes = (
"317 -152 OFFCURVE",
"344 -130 OFFCURVE",
"350 -103 CURVE",
"355 -76 OFFCURVE",
"337 -54 OFFCURVE",
"312 -54 CURVE SMOOTH",
"285 -54 OFFCURVE",
"257 -76 OFFCURVE",
"252 -103 CURVE",
"246 -130 OFFCURVE",
"264 -152 OFFCURVE",
"291 -152 CURVE SMOOTH"
);
},
{
closed = 1;
nodes = (
"170 46 OFFCURVE",
"102 122 OFFCURVE",
"127 239 CURVE SMOOTH",
"152 356 OFFCURVE",
"253 433 OFFCURVE",
"359 433 CURVE SMOOTH",
"459 433 OFFCURVE",
"515 382 OFFCURVE",
"522 299 CURVE",
"497 179 LINE",
"452 96 OFFCURVE",
"367 46 OFFCURVE",
"276 46 CURVE SMOOTH"
);
},
{
closed = 1;
nodes = (
"353 535 LINE",
"469 649 LINE",
"537 535 LINE",
"612 535 LINE",
"509 696 LINE",
"442 696 LINE",
"272 535 LINE"
);
}
);
width = 651;
}
);
leftKerningGroup = a;
note = acircumflexdotbelow;
rightKerningGroup = a;
unicode = 1EAD;
},
{
glyphname = acircumflexgrave;
lastChange = "2015-11-30 00:21:34 +0000";
layers = (
{
layerId = "EA8340D9-3B60-45BA-AE27-149F2EF80A01";
name = "Light Italic";
paths = (
{
closed = 1;
nodes = (
"347 -15 OFFCURVE",
"413 9 OFFCURVE",
"477 75 CURVE",
"461 0 LINE",
"536 0 LINE",
"638 480 LINE",
"561 480 LINE",
"543 399 LINE",
"513 459 OFFCURVE",
"449 495 OFFCURVE",
"356 495 CURVE SMOOTH",
"213 495 OFFCURVE",
"83 392 OFFCURVE",
"50 239 CURVE SMOOTH",
"17 83 OFFCURVE",
"105 -15 OFFCURVE",
"247 -15 CURVE SMOOTH"
);
},
{
closed = 1;
nodes = (
"170 46 OFFCURVE",
"102 122 OFFCURVE",
"127 239 CURVE SMOOTH",
"152 356 OFFCURVE",
"253 433 OFFCURVE",
"359 433 CURVE SMOOTH",
"459 433 OFFCURVE",
"515 382 OFFCURVE",
"522 299 CURVE",
"497 179 LINE",
"452 96 OFFCURVE",
"367 46 OFFCURVE",
"276 46 CURVE SMOOTH"
);
},
{
closed = 1;
nodes = (
"372 638 LINE",
"327 758 LINE",
"263 758 LINE",
"318 638 LINE"
);
},
{
closed = 1;
nodes = (
"344 535 LINE",
"457 630 LINE",
"528 535 LINE",
"606 535 LINE",
"500 673 LINE",
"433 673 LINE",
"266 535 LINE"
);
}
);
width = 651;
}
);
leftKerningGroup = a;
note = acircumflexgrave;
rightKerningGroup = a;
unicode = 1EA7;
},
{
glyphname = acircumflexhookabove;
lastChange = "2015-11-30 00:21:37 +0000";
layers = (
{
layerId = "EA8340D9-3B60-45BA-AE27-149F2EF80A01";
name = "Light Italic";
paths = (
{
closed = 1;
nodes = (
"347 -15 OFFCURVE",
"413 9 OFFCURVE",
"477 75 CURVE",
"461 0 LINE",
"536 0 LINE",
"638 480 LINE",
"561 480 LINE",
"543 399 LINE",
"513 459 OFFCURVE",
"449 495 OFFCURVE",
"356 495 CURVE SMOOTH",
"213 495 OFFCURVE",
"83 392 OFFCURVE",
"50 239 CURVE SMOOTH",
"17 83 OFFCURVE",
"105 -15 OFFCURVE",
"247 -15 CURVE SMOOTH"
);
},
{
closed = 1;
nodes = (
"170 46 OFFCURVE",
"102 122 OFFCURVE",
"127 239 CURVE SMOOTH",
"152 356 OFFCURVE",
"253 433 OFFCURVE",
"359 433 CURVE SMOOTH",
"459 433 OFFCURVE",
"515 382 OFFCURVE",
"522 299 CURVE",
"497 179 LINE",
"452 96 OFFCURVE",
"367 46 OFFCURVE",
"276 46 CURVE SMOOTH"
);
},
{
closed = 1;
nodes = (
"348 535 LINE",
"461 630 LINE",
"532 535 LINE",
"610 535 LINE",
"504 673 LINE",
"437 673 LINE",
"270 535 LINE"
);
},
{
closed = 1;
nodes = (
"602 631 LINE",
"607 656 LINE",
"651 662 OFFCURVE",
"681 689 OFFCURVE",
"688 721 CURVE SMOOTH",
"696 761 OFFCURVE",
"673 787 OFFCURVE",
"618 787 CURVE SMOOTH",
"597 787 OFFCURVE",
"571 783 OFFCURVE",
"557 778 CURVE",
"549 742 LINE",
"560 747 OFFCURVE",
"579 750 OFFCURVE",
"595 750 CURVE SMOOTH",
"624 750 OFFCURVE",
"637 739 OFFCURVE",
"632 717 CURVE SMOOTH",
"627 693 OFFCURVE",
"605 681 OFFCURVE",
"563 681 CURVE",
"553 631 LINE"
);
}
);
width = 651;
}
);
leftKerningGroup = a;
note = acircumflexhookabove;
rightKerningGroup = a;
unicode = 1EA9;
},
{
glyphname = acircumflextilde;
lastChange = "2015-11-30 00:21:35 +0000";
layers = (
{
layerId = "EA8340D9-3B60-45BA-AE27-149F2EF80A01";
name = "Light Italic";
paths = (
{
closed = 1;
nodes = (
"347 -15 OFFCURVE",
"413 9 OFFCURVE",
"477 75 CURVE",
"461 0 LINE",
"536 0 LINE",
"638 480 LINE",
"561 480 LINE",
"543 399 LINE",
"513 459 OFFCURVE",
"449 495 OFFCURVE",
"356 495 CURVE SMOOTH",
"213 495 OFFCURVE",
"83 392 OFFCURVE",
"50 239 CURVE SMOOTH",
"17 83 OFFCURVE",
"105 -15 OFFCURVE",
"247 -15 CURVE SMOOTH"
);
},
{
closed = 1;
nodes = (
"170 46 OFFCURVE",
"102 122 OFFCURVE",
"127 239 CURVE SMOOTH",
"152 356 OFFCURVE",
"253 433 OFFCURVE",
"359 433 CURVE SMOOTH",
"459 433 OFFCURVE",
"515 382 OFFCURVE",
"522 299 CURVE",
"497 179 LINE",
"452 96 OFFCURVE",
"367 46 OFFCURVE",
"276 46 CURVE SMOOTH"
);
},
{
closed = 1;
nodes = (
"352 535 LINE",
"465 630 LINE",
"536 535 LINE",
"614 535 LINE",
"508 673 LINE",
"441 673 LINE",
"274 535 LINE"
);
},
{
closed = 1;
nodes = (
"351 711 OFFCURVE",
"380 721 OFFCURVE",
"410 721 CURVE SMOOTH",
"466 721 OFFCURVE",
"496 678 OFFCURVE",
"560 678 CURVE SMOOTH",
"594 678 OFFCURVE",
"625 686 OFFCURVE",
"649 714 CURVE",
"662 775 LINE",
"631 740 OFFCURVE",
"601 729 OFFCURVE",
"571 729 CURVE SMOOTH",
"514 729 OFFCURVE",
"481 773 OFFCURVE",
"421 773 CURVE SMOOTH",
"387 773 OFFCURVE",
"355 764 OFFCURVE",
"330 736 CURVE",
"317 675 LINE"
);
}
);
width = 651;
}
);
leftKerningGroup = a;
note = acircumflextilde;
rightKerningGroup = a;
unicode = 1EAB;
},
{
glyphname = adieresis;
lastChange = "2015-11-30 00:21:35 +0000";
layers = (
{
layerId = "EA8340D9-3B60-45BA-AE27-149F2EF80A01";
name = "Light Italic";
paths = (
{
closed = 1;
nodes = (
"347 -15 OFFCURVE",
"413 9 OFFCURVE",
"477 75 CURVE",
"461 0 LINE",
"536 0 LINE",
"638 480 LINE",
"561 480 LINE",
"543 399 LINE",
"513 459 OFFCURVE",
"449 495 OFFCURVE",
"356 495 CURVE SMOOTH",
"213 495 OFFCURVE",
"83 392 OFFCURVE",
"50 239 CURVE SMOOTH",
"17 83 OFFCURVE",
"105 -15 OFFCURVE",
"247 -15 CURVE SMOOTH"
);
},
{
closed = 1;
nodes = (
"170 46 OFFCURVE",
"102 122 OFFCURVE",
"127 239 CURVE SMOOTH",
"152 356 OFFCURVE",
"253 433 OFFCURVE",
"359 433 CURVE SMOOTH",
"459 433 OFFCURVE",
"515 382 OFFCURVE",
"522 299 CURVE",
"497 179 LINE",
"452 96 OFFCURVE",
"367 46 OFFCURVE",
"276 46 CURVE SMOOTH"
);
},
{
closed = 1;
nodes = (
"365 535 OFFCURVE",
"392 557 OFFCURVE",
"398 584 CURVE SMOOTH",
"404 611 OFFCURVE",
"385 633 OFFCURVE",
"359 633 CURVE SMOOTH",
"332 633 OFFCURVE",
"306 611 OFFCURVE",
"300 584 CURVE SMOOTH",
"294 557 OFFCURVE",
"313 535 OFFCURVE",
"339 535 CURVE SMOOTH"
);
},
{
closed = 1;
nodes = (
"582 535 OFFCURVE",
"609 557 OFFCURVE",
"615 584 CURVE SMOOTH",
"621 611 OFFCURVE",
"602 633 OFFCURVE",
"576 633 CURVE SMOOTH",
"549 633 OFFCURVE",
"522 611 OFFCURVE",
"516 584 CURVE SMOOTH",
"510 557 OFFCURVE",
"529 535 OFFCURVE",
"556 535 CURVE SMOOTH"
);
}
);
width = 651;
}
);
leftKerningGroup = a;
note = adieresis;
rightKerningGroup = a;
unicode = 00E4;
},
{
glyphname = adotbelow;
lastChange = "2015-11-30 00:21:34 +0000";
layers = (
{
layerId = "EA8340D9-3B60-45BA-AE27-149F2EF80A01";
name = "Light Italic";
paths = (
{
closed = 1;
nodes = (
"347 -15 OFFCURVE",
"413 9 OFFCURVE",
"477 75 CURVE",
"461 0 LINE",
"536 0 LINE",
"638 480 LINE",
"561 480 LINE",
"543 399 LINE",
"513 459 OFFCURVE",
"449 495 OFFCURVE",
"356 495 CURVE SMOOTH",
"213 495 OFFCURVE",
"83 392 OFFCURVE",
"50 239 CURVE SMOOTH",
"17 83 OFFCURVE",
"105 -15 OFFCURVE",
"247 -15 CURVE SMOOTH"
);
},
{
closed = 1;
nodes = (
"309 -152 OFFCURVE",
"336 -130 OFFCURVE",
"342 -103 CURVE",
"347 -76 OFFCURVE",
"329 -54 OFFCURVE",
"304 -54 CURVE SMOOTH",
"277 -54 OFFCURVE",
"249 -76 OFFCURVE",
"244 -103 CURVE",
"238 -130 OFFCURVE",
"256 -152 OFFCURVE",
"283 -152 CURVE SMOOTH"
);
},
{
closed = 1;
nodes = (
"170 46 OFFCURVE",
"102 122 OFFCURVE",
"127 239 CURVE SMOOTH",
"152 356 OFFCURVE",
"253 433 OFFCURVE",
"359 433 CURVE SMOOTH",
"459 433 OFFCURVE",
"515 382 OFFCURVE",
"522 299 CURVE",
"497 179 LINE",
"452 96 OFFCURVE",
"367 46 OFFCURVE",
"276 46 CURVE SMOOTH"
);
}
);
width = 651;
}
);
leftKerningGroup = a;
note = adotbelow;
rightKerningGroup = a;
unicode = 1EA1;
},
{
glyphname = agrave;
lastChange = "2015-11-30 00:21:35 +0000";
layers = (
{
layerId = "EA8340D9-3B60-45BA-AE27-149F2EF80A01";
name = "Light Italic";
paths = (
{
closed = 1;
nodes = (
"347 -15 OFFCURVE",
"413 9 OFFCURVE",
"477 75 CURVE",
"461 0 LINE",
"536 0 LINE",
"638 480 LINE",
"561 480 LINE",
"543 399 LINE",
"513 459 OFFCURVE",
"449 495 OFFCURVE",
"356 495 CURVE SMOOTH",
"213 495 OFFCURVE",
"83 392 OFFCURVE",
"50 239 CURVE SMOOTH",
"17 83 OFFCURVE",
"105 -15 OFFCURVE",
"247 -15 CURVE SMOOTH"
);
},
{
closed = 1;
nodes = (
"170 46 OFFCURVE",
"102 122 OFFCURVE",
"127 239 CURVE SMOOTH",
"152 356 OFFCURVE",
"253 433 OFFCURVE",
"359 433 CURVE SMOOTH",
"459 433 OFFCURVE",
"515 382 OFFCURVE",
"522 299 CURVE",
"497 179 LINE",
"452 96 OFFCURVE",
"367 46 OFFCURVE",
"276 46 CURVE SMOOTH"
);
},
{
closed = 1;
nodes = (
"490 535 LINE",
"458 705 LINE",
"377 705 LINE",
"421 535 LINE"
);
}
);
width = 651;
}
);
leftKerningGroup = a;
note = agrave;
rightKerningGroup = a;
unicode = 00E0;
},
{
glyphname = ahookabove;
lastChange = "2015-11-30 00:21:37 +0000";
layers = (
{
layerId = "EA8340D9-3B60-45BA-AE27-149F2EF80A01";
name = "Light Italic";
paths = (
{
closed = 1;
nodes = (
"347 -15 OFFCURVE",
"413 9 OFFCURVE",
"477 75 CURVE",
"461 0 LINE",
"536 0 LINE",
"638 480 LINE",
"561 480 LINE",
"543 399 LINE",
"513 459 OFFCURVE",
"449 495 OFFCURVE",
"356 495 CURVE SMOOTH",
"213 495 OFFCURVE",
"83 392 OFFCURVE",
"50 239 CURVE SMOOTH",
"17 83 OFFCURVE",
"105 -15 OFFCURVE",
"247 -15 CURVE SMOOTH"
);
},
{
closed = 1;
nodes = (
"170 46 OFFCURVE",
"102 122 OFFCURVE",
"127 239 CURVE SMOOTH",
"152 356 OFFCURVE",
"253 433 OFFCURVE",
"359 433 CURVE SMOOTH",
"459 433 OFFCURVE",
"515 382 OFFCURVE",
"522 299 CURVE",
"497 179 LINE",
"452 96 OFFCURVE",
"367 46 OFFCURVE",
"276 46 CURVE SMOOTH"
);
},
{
closed = 1;
nodes = (
"474 535 LINE",
"481 570 LINE",
"545 576 OFFCURVE",
"585 616 OFFCURVE",
"595 664 CURVE SMOOTH",
"607 719 OFFCURVE",
"567 757 OFFCURVE",
"493 757 CURVE SMOOTH",
"465 757 OFFCURVE",
"433 752 OFFCURVE",
"415 746 CURVE",
"405 701 LINE",
"418 707 OFFCURVE",
"450 711 OFFCURVE",
"467 711 CURVE SMOOTH",
"514 711 OFFCURVE",
"534 696 OFFCURVE",
"527 661 CURVE SMOOTH",
"518 620 OFFCURVE",
"485 603 OFFCURVE",
"421 603 CURVE",
"407 535 LINE"
);
}
);
width = 651;
}
);
leftKerningGroup = a;
note = ahookabove;
rightKerningGroup = a;
unicode = 1EA3;
},
{
glyphname = "alpha-latin";
lastChange = "2015-11-30 00:21:35 +0000";
layers = (
{
layerId = "EA8340D9-3B60-45BA-AE27-149F2EF80A01";
name = "Light Italic";
paths = (
{
closed = 1;
nodes = (
"340 -15 OFFCURVE",
"414 18 OFFCURVE",
"478 84 CURVE",
"461 0 LINE",
"536 0 LINE",
"638 480 LINE",
"561 480 LINE",
"543 399 LINE",
"514 463 OFFCURVE",
"447 495 OFFCURVE",
"356 495 CURVE SMOOTH",
"213 495 OFFCURVE",
"83 392 OFFCURVE",
"50 239 CURVE SMOOTH",
"17 83 OFFCURVE",
"105 -15 OFFCURVE",
"247 -15 CURVE SMOOTH"
);
},
{
closed = 1;
nodes = (
"170 46 OFFCURVE",
"102 122 OFFCURVE",
"127 239 CURVE SMOOTH",
"152 356 OFFCURVE",
"253 433 OFFCURVE",
"359 433 CURVE SMOOTH",
"453 433 OFFCURVE",
"515 382 OFFCURVE",
"522 299 CURVE",
"497 179 LINE",
"452 96 OFFCURVE",
"367 46 OFFCURVE",
"276 46 CURVE SMOOTH"
);
}
);
width = 656;
}
);
leftKerningGroup = a;
note = ascript;
rightKerningGroup = a;
unicode = 0251;
},
{
glyphname = amacron;
lastChange = "2015-11-30 00:21:34 +0000";
layers = (
{
layerId = "EA8340D9-3B60-45BA-AE27-149F2EF80A01";
name = "Light Italic";
paths = (
{
closed = 1;
nodes = (
"347 -15 OFFCURVE",
"413 9 OFFCURVE",
"477 75 CURVE",
"461 0 LINE",
"536 0 LINE",
"638 480 LINE",
"561 480 LINE",
"543 399 LINE",
"513 459 OFFCURVE",
"449 495 OFFCURVE",
"356 495 CURVE SMOOTH",
"213 495 OFFCURVE",
"83 392 OFFCURVE",
"50 239 CURVE SMOOTH",
"17 83 OFFCURVE",
"105 -15 OFFCURVE",
"247 -15 CURVE SMOOTH"
);
},
{
closed = 1;
nodes = (
"170 46 OFFCURVE",
"102 122 OFFCURVE",
"127 239 CURVE SMOOTH",
"152 356 OFFCURVE",
"253 433 OFFCURVE",
"359 433 CURVE SMOOTH",
"459 433 OFFCURVE",
"515 382 OFFCURVE",
"522 299 CURVE",
"497 179 LINE",
"452 96 OFFCURVE",
"367 46 OFFCURVE",
"276 46 CURVE SMOOTH"
);
},
{
closed = 1;
nodes = (
"608 555 LINE",
"619 609 LINE",
"319 609 LINE",
"308 555 LINE"
);
}
);
width = 651;
}
);
leftKerningGroup = a;
note = amacron;
rightKerningGroup = a;
unicode = 0101;
},
{
glyphname = aogonek;
lastChange = "2015-11-30 00:21:35 +0000";
layers = (
{
layerId = "EA8340D9-3B60-45BA-AE27-149F2EF80A01";
name = "Light Italic";
paths = (
{
closed = 1;
nodes = (
"467 -210 OFFCURVE",
"492 -206 OFFCURVE",
"509 -199 CURVE",
"520 -149 LINE",
"506 -155 OFFCURVE",
"489 -159 OFFCURVE",
"471 -159 CURVE SMOOTH",
"439 -159 OFFCURVE",
"427 -145 OFFCURVE",
"434 -112 CURVE SMOOTH",
"443 -69 OFFCURVE",
"478 -34 OFFCURVE",
"536 0 CURVE",
"638 480 LINE",
"561 480 LINE",
"543 399 LINE",
"513 459 OFFCURVE",
"449 495 OFFCURVE",
"356 495 CURVE SMOOTH",
"213 495 OFFCURVE",
"83 392 OFFCURVE",
"50 239 CURVE SMOOTH",
"17 83 OFFCURVE",
"105 -15 OFFCURVE",
"247 -15 CURVE SMOOTH",
"347 -15 OFFCURVE",
"413 9 OFFCURVE",
"477 75 CURVE",
"461 0 LINE",
"417 -27 OFFCURVE",
"374 -71 OFFCURVE",
"363 -123 CURVE SMOOTH",
"351 -182 OFFCURVE",
"389 -210 OFFCURVE",
"442 -210 CURVE SMOOTH"
);
},
{
closed = 1;
nodes = (
"170 46 OFFCURVE",
"102 122 OFFCURVE",
"127 239 CURVE SMOOTH",
"152 356 OFFCURVE",
"253 433 OFFCURVE",
"359 433 CURVE SMOOTH",
"459 433 OFFCURVE",
"515 382 OFFCURVE",
"522 299 CURVE",
"497 179 LINE",
"452 96 OFFCURVE",
"367 46 OFFCURVE",
"276 46 CURVE SMOOTH"
);
}
);
width = 651;
}
);
leftKerningGroup = a;
note = aogonek;
rightKerningGroup = a;
unicode = 0105;
},
